<ttFont>
<head>
    <!-- Most of this table will be recalculated by the compiler -->
    <tableVersion value="1.0"/>
    <fontRevision value="0.26999"/>
    <checkSumAdjustment value="0xa8c5941d"/>
    <magicNumber value="0x5f0f3cf5"/>
    <flags value="00000000 00001011"/>
    <unitsPerEm value="1000"/>
    <created value="Sat Dec 13 18:01:59 2008"/>
    <modified value="Mon Apr  2 06:48:47 2012"/>
    <xMin value="-500"/>
    <yMin value="-283"/>
    <xMax value="1215"/>
    <yMax value="970"/>
    <macStyle value="00000000 00000000"/>
    <lowestRecPPEM value="8"/>
    <fontDirectionHint value="2"/>
    <indexToLocFormat value="0"/>
    <glyphDataFormat value="0"/>
  </head>
    <TTGlyph name=".notdef" xMin="80" yMin="40" xMax="400" yMax="520">
      <contour>
        <pt x="120" y="480" on="1"/>
        <pt x="120" y="80" on="1"/>
        <pt x="360" y="80" on="1"/>
        <pt x="360" y="480" on="1"/>
      </contour>
      <contour>
        <pt x="80" y="520" on="1"/>
        <pt x="400" y="520" on="1"/>
        <pt x="400" y="40" on="1"/>
        <pt x="80" y="40" on="1"/>
      </contour>
    </TTGlyph>
    <TTGlyph name="A" xMin="15" yMin="0" xMax="500" yMax="720">
      <contour>
        <pt x="135" y="720" on="1"/>
        <pt x="375" y="720" on="1"/>
        <pt x="388" y="680" on="0"/>
        <pt x="428" y="550" on="0"/>
        <pt x="495" y="260" on="0"/>
        <pt x="495" y="180" on="1"/>
        <pt x="495" y="80" on="1"/>
        <pt x="495" y="33" on="0"/>
        <pt x="500" y="0" on="1"/>
        <pt x="330" y="0" on="1"/>
        <pt x="309" y="0" on="0"/>
        <pt x="295" y="56" on="0"/>
        <pt x="295" y="130" on="1"/>
        <pt x="295" y="140" on="1"/>
        <pt x="215" y="140" on="1"/>
        <pt x="215" y="0" on="1"/>
        <pt x="15" y="0" on="1"/>
        <pt x="15" y="180" on="1"/>
        <pt x="15" y="260" on="0"/>
        <pt x="75" y="530" on="0"/>
        <pt x="105" y="625" on="1"/>
      </contour>
      <contour>
        <pt x="215" y="280" on="1"/>
        <pt x="295" y="280" on="1"/>
        <pt x="295" y="322" on="1"/>
        <pt x="295" y="363" on="0"/>
        <pt x="267" y="596" on="0"/>
        <pt x="255" y="620" on="1"/>
        <pt x="244" y="596" on="0"/>
        <pt x="215" y="361" on="0"/>
        <pt x="215" y="322" on="1"/>
      </contour>
    </TTGlyph>
    <TTGlyph name="AE" xMin="15" yMin="0" xMax="675" yMax="720">
      <contour>
        <pt x="295" y="580" on="1"/>
        <pt x="247" y="580" on="1"/>
        <pt x="237" y="554" on="0"/>
        <pt x="215" y="359" on="0"/>
        <pt x="215" y="322" on="1"/>
        <pt x="215" y="280" on="1"/>
        <pt x="295" y="280" on="1"/>
      </contour>
      <contour>
        <pt x="15" y="0" on="1"/>
        <pt x="15" y="180" on="1"/>
        <pt x="15" y="260" on="0"/>
        <pt x="75" y="530" on="0"/>
        <pt x="105" y="625" on="1"/>
        <pt x="135" y="720" on="1"/>
        <pt x="675" y="720" on="1"/>
        <pt x="675" y="580" on="1"/>
        <pt x="495" y="580" on="1"/>
        <pt x="495" y="430" on="1"/>
        <pt x="615" y="430" on="1"/>
        <pt x="615" y="290" on="1"/>
        <pt x="495" y="290" on="1"/>
        <pt x="495" y="140" on="1"/>
        <pt x="675" y="140" on="1"/>
        <pt x="675" y="0" on="1"/>
        <pt x="295" y="0" on="1"/>
        <pt x="295" y="140" on="1"/>
        <pt x="215" y="140" on="1"/>
        <pt x="215" y="0" on="1"/>
      </contour>
    </TTGlyph>
    <TTGlyph name="Aacute" xMin="15" yMin="0" xMax="500" yMax="910">
      <contour>
        <pt x="165" y="775" on="1"/>
        <pt x="145" y="850" on="1"/>
        <pt x="345" y="910" on="1"/>
        <pt x="365" y="795" on="1"/>
      </contour>
      <contour>
        <pt x="135" y="720" on="1"/>
        <pt x="375" y="720" on="1"/>
        <pt x="388" y="680" on="0"/>
        <pt x="428" y="550" on="0"/>
        <pt x="495" y="260" on="0"/>
        <pt x="495" y="180" on="1"/>
        <pt x="495" y="80" on="1"/>
        <pt x="495" y="33" on="0"/>
        <pt x="500" y="0" on="1"/>
        <pt x="330" y="0" on="1"/>
        <pt x="309" y="0" on="0"/>
        <pt x="295" y="56" on="0"/>
        <pt x="295" y="130" on="1"/>
        <pt x="295" y="140" on="1"/>
        <pt x="215" y="140" on="1"/>
        <pt x="215" y="0" on="1"/>
        <pt x="15" y="0" on="1"/>
        <pt x="15" y="180" on="1"/>
        <pt x="15" y="260" on="0"/>
        <pt x="75" y="530" on="0"/>
        <pt x="105" y="625" on="1"/>
      </contour>
      <contour>
        <pt x="215" y="280" on="1"/>
        <pt x="295" y="280" on="1"/>
        <pt x="295" y="322" on="1"/>
        <pt x="295" y="363" on="0"/>
        <pt x="267" y="596" on="0"/>
        <pt x="255" y="620" on="1"/>
        <pt x="244" y="596" on="0"/>
        <pt x="215" y="361" on="0"/>
        <pt x="215" y="322" on="1"/>
      </contour>
    </TTGlyph>
    <TTGlyph name="Abreve" xMin="15" yMin="0" xMax="500" yMax="910">
      <contour>
        <pt x="255" y="860" on="1"/>
        <pt x="282" y="860" on="0"/>
        <pt x="357" y="885" on="0"/>
        <pt x="381" y="898" on="1"/>
        <pt x="405" y="910" on="1"/>
        <pt x="415" y="810" on="1"/>
        <pt x="335" y="775" on="0"/>
        <pt x="255" y="775" on="1"/>
        <pt x="219" y="775" on="0"/>
        <pt x="139" y="792" on="0"/>
        <pt x="117" y="801" on="1"/>
        <pt x="95" y="810" on="1"/>
        <pt x="105" y="910" on="1"/>
        <pt x="195" y="860" on="0"/>
      </contour>
      <contour>
        <pt x="135" y="720" on="1"/>
        <pt x="375" y="720" on="1"/>
        <pt x="388" y="680" on="0"/>
        <pt x="428" y="550" on="0"/>
        <pt x="495" y="260" on="0"/>
        <pt x="495" y="180" on="1"/>
        <pt x="495" y="80" on="1"/>
        <pt x="495" y="33" on="0"/>
        <pt x="500" y="0" on="1"/>
        <pt x="330" y="0" on="1"/>
        <pt x="309" y="0" on="0"/>
        <pt x="295" y="56" on="0"/>
        <pt x="295" y="130" on="1"/>
        <pt x="295" y="140" on="1"/>
        <pt x="215" y="140" on="1"/>
        <pt x="215" y="0" on="1"/>
        <pt x="15" y="0" on="1"/>
        <pt x="15" y="180" on="1"/>
        <pt x="15" y="260" on="0"/>
        <pt x="75" y="530" on="0"/>
        <pt x="105" y="625" on="1"/>
      </contour>
      <contour>
        <pt x="215" y="280" on="1"/>
        <pt x="295" y="280" on="1"/>
        <pt x="295" y="322" on="1"/>
        <pt x="295" y="363" on="0"/>
        <pt x="267" y="596" on="0"/>
        <pt x="255" y="620" on="1"/>
        <pt x="244" y="596" on="0"/>
        <pt x="215" y="361" on="0"/>
        <pt x="215" y="322" on="1"/>
      </contour>
    </TTGlyph>
    <TTGlyph name="Acircumflex" xMin="15" yMin="0" xMax="500" yMax="905">
      <contour>
        <pt x="115" y="770" on="1"/>
        <pt x="95" y="870" on="1"/>
        <pt x="255" y="905" on="1"/>
        <pt x="415" y="870" on="1"/>
        <pt x="395" y="770" on="1"/>
        <pt x="255" y="831" on="1"/>
      </contour>
      <contour>
        <pt x="135" y="720" on="1"/>
        <pt x="375" y="720" on="1"/>
        <pt x="388" y="680" on="0"/>
        <pt x="428" y="550" on="0"/>
        <pt x="495" y="260" on="0"/>
        <pt x="495" y="180" on="1"/>
        <pt x="495" y="80" on="1"/>
        <pt x="495" y="33" on="0"/>
        <pt x="500" y="0" on="1"/>
        <pt x="330" y="0" on="1"/>
        <pt x="309" y="0" on="0"/>
        <pt x="295" y="56" on="0"/>
        <pt x="295" y="130" on="1"/>
        <pt x="295" y="140" on="1"/>
        <pt x="215" y="140" on="1"/>
        <pt x="215" y="0" on="1"/>
        <pt x="15" y="0" on="1"/>
        <pt x="15" y="180" on="1"/>
        <pt x="15" y="260" on="0"/>
        <pt x="75" y="530" on="0"/>
        <pt x="105" y="625" on="1"/>
      </contour>
      <contour>
        <pt x="215" y="280" on="1"/>
        <pt x="295" y="280" on="1"/>
        <pt x="295" y="322" on="1"/>
        <pt x="295" y="363" on="0"/>
        <pt x="267" y="596" on="0"/>
        <pt x="255" y="620" on="1"/>
        <pt x="244" y="596" on="0"/>
        <pt x="215" y="361" on="0"/>
        <pt x="215" y="322" on="1"/>
      </contour>
    </TTGlyph>
    <TTGlyph name="Adieresis" xMin="15" yMin="0" xMax="500" yMax="880">
      <contour>
        <pt x="75" y="765" on="1"/>
        <pt x="75" y="880" on="1"/>
        <pt x="215" y="880" on="1"/>
        <pt x="215" y="765" on="1"/>
      </contour>
      <contour>
        <pt x="295" y="765" on="1"/>
        <pt x="295" y="880" on="1"/>
        <pt x="435" y="880" on="1"/>
        <pt x="435" y="765" on="1"/>
      </contour>
      <contour>
        <pt x="135" y="720" on="1"/>
        <pt x="375" y="720" on="1"/>
        <pt x="388" y="680" on="0"/>
        <pt x="428" y="550" on="0"/>
        <pt x="495" y="260" on="0"/>
        <pt x="495" y="180" on="1"/>
        <pt x="495" y="80" on="1"/>
        <pt x="495" y="33" on="0"/>
        <pt x="500" y="0" on="1"/>
        <pt x="330" y="0" on="1"/>
        <pt x="309" y="0" on="0"/>
        <pt x="295" y="56" on="0"/>
        <pt x="295" y="130" on="1"/>
        <pt x="295" y="140" on="1"/>
        <pt x="215" y="140" on="1"/>
        <pt x="215" y="0" on="1"/>
        <pt x="15" y="0" on="1"/>
        <pt x="15" y="180" on="1"/>
        <pt x="15" y="260" on="0"/>
        <pt x="75" y="530" on="0"/>
        <pt x="105" y="625" on="1"/>
      </contour>
      <contour>
        <pt x="215" y="280" on="1"/>
        <pt x="295" y="280" on="1"/>
        <pt x="295" y="322" on="1"/>
        <pt x="295" y="363" on="0"/>
        <pt x="267" y="596" on="0"/>
        <pt x="255" y="620" on="1"/>
        <pt x="244" y="596" on="0"/>
        <pt x="215" y="361" on="0"/>
        <pt x="215" y="322" on="1"/>
      </contour>
    </TTGlyph>
    <TTGlyph name="Agrave" xMin="15" yMin="0" xMax="500" yMax="910">
      <contour>
        <pt x="345" y="775" on="1"/>
        <pt x="145" y="795" on="1"/>
        <pt x="165" y="910" on="1"/>
        <pt x="365" y="850" on="1"/>
      </contour>
      <contour>
        <pt x="135" y="720" on="1"/>
        <pt x="375" y="720" on="1"/>
        <pt x="388" y="680" on="0"/>
        <pt x="428" y="550" on="0"/>
        <pt x="495" y="260" on="0"/>
        <pt x="495" y="180" on="1"/>
        <pt x="495" y="80" on="1"/>
        <pt x="495" y="33" on="0"/>
        <pt x="500" y="0" on="1"/>
        <pt x="330" y="0" on="1"/>
        <pt x="309" y="0" on="0"/>
        <pt x="295" y="56" on="0"/>
        <pt x="295" y="130" on="1"/>
        <pt x="295" y="140" on="1"/>
        <pt x="215" y="140" on="1"/>
        <pt x="215" y="0" on="1"/>
        <pt x="15" y="0" on="1"/>
        <pt x="15" y="180" on="1"/>
        <pt x="15" y="260" on="0"/>
        <pt x="75" y="530" on="0"/>
        <pt x="105" y="625" on="1"/>
      </contour>
      <contour>
        <pt x="215" y="280" on="1"/>
        <pt x="295" y="280" on="1"/>
        <pt x="295" y="322" on="1"/>
        <pt x="295" y="363" on="0"/>
        <pt x="267" y="596" on="0"/>
        <pt x="255" y="620" on="1"/>
        <pt x="244" y="596" on="0"/>
        <pt x="215" y="361" on="0"/>
        <pt x="215" y="322" on="1"/>
      </contour>
    </TTGlyph>
    <TTGlyph name="Amacron" xMin="15" yMin="0" xMax="500" yMax="890">
      <contour>
        <pt x="425" y="810" on="1"/>
        <pt x="85" y="810" on="1"/>
        <pt x="85" y="890" on="1"/>
        <pt x="425" y="890" on="1"/>
      </contour>
      <contour>
        <pt x="135" y="720" on="1"/>
        <pt x="375" y="720" on="1"/>
        <pt x="388" y="680" on="0"/>
        <pt x="428" y="550" on="0"/>
        <pt x="495" y="260" on="0"/>
        <pt x="495" y="180" on="1"/>
        <pt x="495" y="80" on="1"/>
        <pt x="495" y="33" on="0"/>
        <pt x="500" y="0" on="1"/>
        <pt x="330" y="0" on="1"/>
        <pt x="309" y="0" on="0"/>
        <pt x="295" y="56" on="0"/>
        <pt x="295" y="130" on="1"/>
        <pt x="295" y="140" on="1"/>
        <pt x="215" y="140" on="1"/>
        <pt x="215" y="0" on="1"/>
        <pt x="15" y="0" on="1"/>
        <pt x="15" y="180" on="1"/>
        <pt x="15" y="260" on="0"/>
        <pt x="75" y="530" on="0"/>
        <pt x="105" y="625" on="1"/>
      </contour>
      <contour>
        <pt x="215" y="280" on="1"/>
        <pt x="295" y="280" on="1"/>
        <pt x="295" y="322" on="1"/>
        <pt x="295" y="363" on="0"/>
        <pt x="267" y="596" on="0"/>
        <pt x="255" y="620" on="1"/>
        <pt x="244" y="596" on="0"/>
        <pt x="215" y="361" on="0"/>
        <pt x="215" y="322" on="1"/>
      </contour>
    </TTGlyph>
    <TTGlyph name="Aogonek" xMin="15" yMin="-240" xMax="500" yMax="720">
      <contour>
        <pt x="215" y="280" on="1"/>
        <pt x="295" y="280" on="1"/>
        <pt x="295" y="322" on="1"/>
        <pt x="295" y="363" on="0"/>
        <pt x="267" y="596" on="0"/>
        <pt x="255" y="620" on="1"/>
        <pt x="244" y="596" on="0"/>
        <pt x="215" y="361" on="0"/>
        <pt x="215" y="322" on="1"/>
      </contour>
      <contour>
        <pt x="15" y="0" on="1"/>
        <pt x="15" y="180" on="1"/>
        <pt x="15" y="260" on="0"/>
        <pt x="75" y="530" on="0"/>
        <pt x="105" y="625" on="1"/>
        <pt x="135" y="720" on="1"/>
        <pt x="375" y="720" on="1"/>
        <pt x="388" y="680" on="0"/>
        <pt x="428" y="550" on="0"/>
        <pt x="495" y="260" on="0"/>
        <pt x="495" y="180" on="1"/>
        <pt x="495" y="80" on="1"/>
        <pt x="495" y="33" on="0"/>
        <pt x="500" y="0" on="1"/>
        <pt x="411" y="-32" on="0"/>
        <pt x="411" y="-99" on="1"/>
        <pt x="411" y="-120" on="0"/>
        <pt x="435" y="-120" on="1"/>
        <pt x="447" y="-120" on="0"/>
        <pt x="458" y="-113" on="1"/>
        <pt x="500" y="-223" on="1"/>
        <pt x="471" y="-240" on="0"/>
        <pt x="437" y="-240" on="1"/>
        <pt x="375" y="-240" on="0"/>
        <pt x="298" y="-182" on="0"/>
        <pt x="298" y="-134" on="1"/>
        <pt x="298" y="-62" on="0"/>
        <pt x="392" y="-7" on="1"/>
        <pt x="392" y="0" on="1"/>
        <pt x="330" y="0" on="1"/>
        <pt x="309" y="0" on="0"/>
        <pt x="295" y="56" on="0"/>
        <pt x="295" y="130" on="1"/>
        <pt x="295" y="140" on="1"/>
        <pt x="215" y="140" on="1"/>
        <pt x="215" y="0" on="1"/>
      </contour>
    </TTGlyph>
    <TTGlyph name="Aring" xMin="15" yMin="0" xMax="500" yMax="925">
      <contour>
        <pt x="215" y="280" on="1"/>
        <pt x="295" y="280" on="1"/>
        <pt x="295" y="322" on="1"/>
        <pt x="295" y="363" on="0"/>
        <pt x="267" y="596" on="0"/>
        <pt x="255" y="620" on="1"/>
        <pt x="244" y="596" on="0"/>
        <pt x="215" y="361" on="0"/>
        <pt x="215" y="322" on="1"/>
      </contour>
      <contour>
        <pt x="255" y="925" on="1"/>
        <pt x="302" y="925" on="0"/>
        <pt x="365" y="860" on="0"/>
        <pt x="365" y="815" on="1"/>
        <pt x="365" y="778" on="0"/>
        <pt x="342" y="748" on="1"/>
        <pt x="375" y="720" on="1"/>
        <pt x="388" y="680" on="0"/>
        <pt x="428" y="550" on="0"/>
        <pt x="495" y="260" on="0"/>
        <pt x="495" y="180" on="1"/>
        <pt x="495" y="80" on="1"/>
        <pt x="495" y="33" on="0"/>
        <pt x="500" y="0" on="1"/>
        <pt x="330" y="0" on="1"/>
        <pt x="309" y="0" on="0"/>
        <pt x="295" y="56" on="0"/>
        <pt x="295" y="130" on="1"/>
        <pt x="295" y="140" on="1"/>
        <pt x="215" y="140" on="1"/>
        <pt x="215" y="0" on="1"/>
        <pt x="15" y="0" on="1"/>
        <pt x="15" y="180" on="1"/>
        <pt x="15" y="260" on="0"/>
        <pt x="75" y="530" on="0"/>
        <pt x="105" y="625" on="1"/>
        <pt x="135" y="720" on="1"/>
        <pt x="168" y="747" on="1"/>
        <pt x="145" y="776" on="0"/>
        <pt x="145" y="815" on="1"/>
        <pt x="145" y="862" on="0"/>
        <pt x="210" y="925" on="0"/>
      </contour>
      <contour>
        <pt x="255" y="865" on="1"/>
        <pt x="233" y="865" on="0"/>
        <pt x="205" y="835" on="0"/>
        <pt x="205" y="815" on="1"/>
        <pt x="205" y="793" on="0"/>
        <pt x="235" y="765" on="0"/>
        <pt x="255" y="765" on="1"/>
        <pt x="277" y="765" on="0"/>
        <pt x="305" y="795" on="0"/>
        <pt x="305" y="815" on="1"/>
        <pt x="305" y="837" on="0"/>
        <pt x="275" y="865" on="0"/>
      </contour>
    </TTGlyph>
    <TTGlyph name="Atilde" xMin="15" yMin="0" xMax="500" yMax="905">
      <contour>
        <pt x="162" y="785" on="1"/>
        <pt x="84" y="805" on="1"/>
        <pt x="95" y="845" on="0"/>
        <pt x="156" y="905" on="0"/>
        <pt x="199" y="905" on="1"/>
        <pt x="228" y="905" on="0"/>
        <pt x="316" y="858" on="0"/>
        <pt x="329" y="858" on="1"/>
        <pt x="353" y="858" on="0"/>
        <pt x="364" y="900" on="1"/>
        <pt x="442" y="880" on="1"/>
        <pt x="431" y="838" on="0"/>
        <pt x="368" y="779" on="0"/>
        <pt x="327" y="779" on="1"/>
        <pt x="296" y="779" on="0"/>
        <pt x="208" y="826" on="0"/>
        <pt x="196" y="826" on="1"/>
        <pt x="173" y="826" on="0"/>
      </contour>
      <contour>
        <pt x="135" y="720" on="1"/>
        <pt x="375" y="720" on="1"/>
        <pt x="388" y="680" on="0"/>
        <pt x="428" y="550" on="0"/>
        <pt x="495" y="260" on="0"/>
        <pt x="495" y="180" on="1"/>
        <pt x="495" y="80" on="1"/>
        <pt x="495" y="33" on="0"/>
        <pt x="500" y="0" on="1"/>
        <pt x="330" y="0" on="1"/>
        <pt x="309" y="0" on="0"/>
        <pt x="295" y="56" on="0"/>
        <pt x="295" y="130" on="1"/>
        <pt x="295" y="140" on="1"/>
        <pt x="215" y="140" on="1"/>
        <pt x="215" y="0" on="1"/>
        <pt x="15" y="0" on="1"/>
        <pt x="15" y="180" on="1"/>
        <pt x="15" y="260" on="0"/>
        <pt x="75" y="530" on="0"/>
        <pt x="105" y="625" on="1"/>
      </contour>
      <contour>
        <pt x="215" y="280" on="1"/>
        <pt x="295" y="280" on="1"/>
        <pt x="295" y="322" on="1"/>
        <pt x="295" y="363" on="0"/>
        <pt x="267" y="596" on="0"/>
        <pt x="255" y="620" on="1"/>
        <pt x="244" y="596" on="0"/>
        <pt x="215" y="361" on="0"/>
        <pt x="215" y="322" on="1"/>
      </contour>
    </TTGlyph>
    <TTGlyph name="B" xMin="20" yMin="0" xMax="500" yMax="720">
      <contour>
        <pt x="220" y="450" on="1"/>
        <pt x="270" y="450" on="1"/>
        <pt x="300" y="450" on="0"/>
        <pt x="300" y="500" on="1"/>
        <pt x="300" y="550" on="1"/>
        <pt x="300" y="600" on="0"/>
        <pt x="270" y="600" on="1"/>
        <pt x="220" y="600" on="1"/>
      </contour>
      <contour>
        <pt x="20" y="720" on="1"/>
        <pt x="270" y="720" on="1"/>
        <pt x="377" y="720" on="0"/>
        <pt x="490" y="658" on="0"/>
        <pt x="490" y="600" on="1"/>
        <pt x="490" y="500" on="1"/>
        <pt x="490" y="411" on="0"/>
        <pt x="406" y="385" on="1"/>
        <pt x="500" y="358" on="0"/>
        <pt x="500" y="270" on="1"/>
        <pt x="500" y="120" on="1"/>
        <pt x="500" y="54" on="0"/>
        <pt x="396" y="0" on="0"/>
        <pt x="270" y="0" on="1"/>
        <pt x="20" y="0" on="1"/>
      </contour>
      <contour>
        <pt x="220" y="120" on="1"/>
        <pt x="270" y="120" on="1"/>
        <pt x="300" y="120" on="0"/>
        <pt x="300" y="170" on="1"/>
        <pt x="300" y="260" on="1"/>
        <pt x="300" y="310" on="0"/>
        <pt x="270" y="310" on="1"/>
        <pt x="220" y="310" on="1"/>
      </contour>
    </TTGlyph>
    <TTGlyph name="C" xMin="15" yMin="-10" xMax="475" yMax="730">
      <contour>
        <pt x="475" y="460" on="1"/>
        <pt x="295" y="460" on="1"/>
        <pt x="295" y="560" on="1"/>
        <pt x="295" y="610" on="0"/>
        <pt x="215" y="610" on="0"/>
        <pt x="215" y="560" on="1"/>
        <pt x="215" y="160" on="1"/>
        <pt x="215" y="110" on="0"/>
        <pt x="295" y="110" on="0"/>
        <pt x="295" y="160" on="1"/>
        <pt x="295" y="260" on="1"/>
        <pt x="475" y="260" on="1"/>
        <pt x="475" y="100" on="1"/>
        <pt x="475" y="40" on="0"/>
        <pt x="376" y="-10" on="0"/>
        <pt x="255" y="-10" on="1"/>
        <pt x="124" y="-10" on="0"/>
        <pt x="15" y="44" on="0"/>
        <pt x="15" y="110" on="1"/>
        <pt x="15" y="610" on="1"/>
        <pt x="15" y="676" on="0"/>
        <pt x="124" y="730" on="0"/>
        <pt x="255" y="730" on="1"/>
        <pt x="376" y="730" on="0"/>
        <pt x="475" y="680" on="0"/>
        <pt x="475" y="620" on="1"/>
      </contour>
    </TTGlyph>
    <TTGlyph name="Cacute" xMin="15" yMin="-10" xMax="475" yMax="910">
      <contour>
        <pt x="175" y="775" on="1"/>
        <pt x="155" y="850" on="1"/>
        <pt x="355" y="910" on="1"/>
        <pt x="375" y="795" on="1"/>
      </contour>
      <contour>
        <pt x="475" y="460" on="1"/>
        <pt x="295" y="460" on="1"/>
        <pt x="295" y="560" on="1"/>
        <pt x="295" y="610" on="0"/>
        <pt x="215" y="610" on="0"/>
        <pt x="215" y="560" on="1"/>
        <pt x="215" y="160" on="1"/>
        <pt x="215" y="110" on="0"/>
        <pt x="295" y="110" on="0"/>
        <pt x="295" y="160" on="1"/>
        <pt x="295" y="260" on="1"/>
        <pt x="475" y="260" on="1"/>
        <pt x="475" y="100" on="1"/>
        <pt x="475" y="40" on="0"/>
        <pt x="376" y="-10" on="0"/>
        <pt x="255" y="-10" on="1"/>
        <pt x="124" y="-10" on="0"/>
        <pt x="15" y="44" on="0"/>
        <pt x="15" y="110" on="1"/>
        <pt x="15" y="610" on="1"/>
        <pt x="15" y="676" on="0"/>
        <pt x="124" y="730" on="0"/>
        <pt x="255" y="730" on="1"/>
        <pt x="376" y="730" on="0"/>
        <pt x="475" y="680" on="0"/>
        <pt x="475" y="620" on="1"/>
      </contour>
    </TTGlyph>
    <TTGlyph name="Ccaron" xMin="15" yMin="-10" xMax="475" yMax="910">
      <contour>
        <pt x="95" y="810" on="1"/>
        <pt x="115" y="910" on="1"/>
        <pt x="255" y="849" on="1"/>
        <pt x="395" y="910" on="1"/>
        <pt x="415" y="810" on="1"/>
        <pt x="255" y="775" on="1"/>
      </contour>
      <contour>
        <pt x="475" y="460" on="1"/>
        <pt x="295" y="460" on="1"/>
        <pt x="295" y="560" on="1"/>
        <pt x="295" y="610" on="0"/>
        <pt x="215" y="610" on="0"/>
        <pt x="215" y="560" on="1"/>
        <pt x="215" y="160" on="1"/>
        <pt x="215" y="110" on="0"/>
        <pt x="295" y="110" on="0"/>
        <pt x="295" y="160" on="1"/>
        <pt x="295" y="260" on="1"/>
        <pt x="475" y="260" on="1"/>
        <pt x="475" y="100" on="1"/>
        <pt x="475" y="40" on="0"/>
        <pt x="376" y="-10" on="0"/>
        <pt x="255" y="-10" on="1"/>
        <pt x="124" y="-10" on="0"/>
        <pt x="15" y="44" on="0"/>
        <pt x="15" y="110" on="1"/>
        <pt x="15" y="610" on="1"/>
        <pt x="15" y="676" on="0"/>
        <pt x="124" y="730" on="0"/>
        <pt x="255" y="730" on="1"/>
        <pt x="376" y="730" on="0"/>
        <pt x="475" y="680" on="0"/>
        <pt x="475" y="620" on="1"/>
      </contour>
    </TTGlyph>
    <TTGlyph name="Ccedilla" xMin="15" yMin="-240" xMax="475" yMax="730">
      <contour>
        <pt x="475" y="460" on="1"/>
        <pt x="295" y="460" on="1"/>
        <pt x="295" y="560" on="1"/>
        <pt x="295" y="610" on="0"/>
        <pt x="215" y="610" on="0"/>
        <pt x="215" y="560" on="1"/>
        <pt x="215" y="160" on="1"/>
        <pt x="215" y="110" on="0"/>
        <pt x="295" y="110" on="0"/>
        <pt x="295" y="160" on="1"/>
        <pt x="295" y="260" on="1"/>
        <pt x="475" y="260" on="1"/>
        <pt x="475" y="100" on="1"/>
        <pt x="475" y="40" on="0"/>
        <pt x="376" y="-10" on="0"/>
        <pt x="255" y="-10" on="1"/>
        <pt x="252" y="-10" on="1"/>
        <pt x="241" y="-66" on="1"/>
        <pt x="262" y="-48" on="0"/>
        <pt x="307" y="-48" on="1"/>
        <pt x="381" y="-48" on="0"/>
        <pt x="381" y="-96" on="1"/>
        <pt x="381" y="-192" on="1"/>
        <pt x="381" y="-218" on="0"/>
        <pt x="331" y="-240" on="0"/>
        <pt x="271" y="-240" on="1"/>
        <pt x="215" y="-240" on="0"/>
        <pt x="169" y="-220" on="0"/>
        <pt x="169" y="-196" on="1"/>
        <pt x="169" y="-159" on="1"/>
        <pt x="241" y="-159" on="1"/>
        <pt x="241" y="-172" on="1"/>
        <pt x="241" y="-192" on="0"/>
        <pt x="301" y="-192" on="0"/>
        <pt x="301" y="-172" on="1"/>
        <pt x="301" y="-128" on="1"/>
        <pt x="301" y="-108" on="0"/>
        <pt x="270" y="-108" on="1"/>
        <pt x="254" y="-108" on="0"/>
        <pt x="241" y="-120" on="1"/>
        <pt x="169" y="-120" on="1"/>
        <pt x="186" y="-8" on="1"/>
        <pt x="94" y="-2" on="0"/>
        <pt x="15" y="53" on="0"/>
        <pt x="15" y="110" on="1"/>
        <pt x="15" y="610" on="1"/>
        <pt x="15" y="676" on="0"/>
        <pt x="124" y="730" on="0"/>
        <pt x="255" y="730" on="1"/>
        <pt x="376" y="730" on="0"/>
        <pt x="475" y="680" on="0"/>
        <pt x="475" y="620" on="1"/>
      </contour>
    </TTGlyph>
    <TTGlyph name="Ccircumflex" xMin="15" yMin="-10" xMax="475" yMax="905">
      <contour>
        <pt x="115" y="770" on="1"/>
        <pt x="95" y="870" on="1"/>
        <pt x="255" y="905" on="1"/>
        <pt x="415" y="870" on="1"/>
        <pt x="395" y="770" on="1"/>
        <pt x="255" y="831" on="1"/>
      </contour>
      <contour>
        <pt x="475" y="460" on="1"/>
        <pt x="295" y="460" on="1"/>
        <pt x="295" y="560" on="1"/>
        <pt x="295" y="610" on="0"/>
        <pt x="215" y="610" on="0"/>
        <pt x="215" y="560" on="1"/>
        <pt x="215" y="160" on="1"/>
        <pt x="215" y="110" on="0"/>
        <pt x="295" y="110" on="0"/>
        <pt x="295" y="160" on="1"/>
        <pt x="295" y="260" on="1"/>
        <pt x="475" y="260" on="1"/>
        <pt x="475" y="100" on="1"/>
        <pt x="475" y="40" on="0"/>
        <pt x="376" y="-10" on="0"/>
        <pt x="255" y="-10" on="1"/>
        <pt x="124" y="-10" on="0"/>
        <pt x="15" y="44" on="0"/>
        <pt x="15" y="110" on="1"/>
        <pt x="15" y="610" on="1"/>
        <pt x="15" y="676" on="0"/>
        <pt x="124" y="730" on="0"/>
        <pt x="255" y="730" on="1"/>
        <pt x="376" y="730" on="0"/>
        <pt x="475" y="680" on="0"/>
        <pt x="475" y="620" on="1"/>
      </contour>
    </TTGlyph>
    <TTGlyph name="Cdotaccent" xMin="15" yMin="-10" xMax="475" yMax="900">
      <contour>
        <pt x="155" y="785" on="1"/>
        <pt x="155" y="900" on="1"/>
        <pt x="355" y="900" on="1"/>
        <pt x="355" y="785" on="1"/>
      </contour>
      <contour>
        <pt x="475" y="460" on="1"/>
        <pt x="295" y="460" on="1"/>
        <pt x="295" y="560" on="1"/>
        <pt x="295" y="610" on="0"/>
        <pt x="215" y="610" on="0"/>
        <pt x="215" y="560" on="1"/>
        <pt x="215" y="160" on="1"/>
        <pt x="215" y="110" on="0"/>
        <pt x="295" y="110" on="0"/>
        <pt x="295" y="160" on="1"/>
        <pt x="295" y="260" on="1"/>
        <pt x="475" y="260" on="1"/>
        <pt x="475" y="100" on="1"/>
        <pt x="475" y="40" on="0"/>
        <pt x="376" y="-10" on="0"/>
        <pt x="255" y="-10" on="1"/>
        <pt x="124" y="-10" on="0"/>
        <pt x="15" y="44" on="0"/>
        <pt x="15" y="110" on="1"/>
        <pt x="15" y="610" on="1"/>
        <pt x="15" y="676" on="0"/>
        <pt x="124" y="730" on="0"/>
        <pt x="255" y="730" on="1"/>
        <pt x="376" y="730" on="0"/>
        <pt x="475" y="680" on="0"/>
        <pt x="475" y="620" on="1"/>
      </contour>
    </TTGlyph>
    <TTGlyph name="D" xMin="20" yMin="0" xMax="500" yMax="720">
      <contour>
        <pt x="20" y="720" on="1"/>
        <pt x="260" y="720" on="1"/>
        <pt x="391" y="720" on="0"/>
        <pt x="500" y="648" on="0"/>
        <pt x="500" y="560" on="1"/>
        <pt x="500" y="160" on="1"/>
        <pt x="500" y="72" on="0"/>
        <pt x="391" y="0" on="0"/>
        <pt x="260" y="0" on="1"/>
        <pt x="20" y="0" on="1"/>
      </contour>
      <contour>
        <pt x="220" y="600" on="1"/>
        <pt x="220" y="120" on="1"/>
        <pt x="260" y="120" on="1"/>
        <pt x="300" y="120" on="0"/>
        <pt x="300" y="170" on="1"/>
        <pt x="300" y="550" on="1"/>
        <pt x="300" y="600" on="0"/>
        <pt x="260" y="600" on="1"/>
      </contour>
    </TTGlyph>
    <TTGlyph name="Dcaron" xMin="20" yMin="0" xMax="500" yMax="910">
      <contour>
        <pt x="95" y="810" on="1"/>
        <pt x="115" y="910" on="1"/>
        <pt x="255" y="849" on="1"/>
        <pt x="395" y="910" on="1"/>
        <pt x="415" y="810" on="1"/>
        <pt x="255" y="775" on="1"/>
      </contour>
      <contour>
        <pt x="20" y="720" on="1"/>
        <pt x="260" y="720" on="1"/>
        <pt x="391" y="720" on="0"/>
        <pt x="500" y="648" on="0"/>
        <pt x="500" y="560" on="1"/>
        <pt x="500" y="160" on="1"/>
        <pt x="500" y="72" on="0"/>
        <pt x="391" y="0" on="0"/>
        <pt x="260" y="0" on="1"/>
        <pt x="20" y="0" on="1"/>
      </contour>
      <contour>
        <pt x="220" y="600" on="1"/>
        <pt x="220" y="120" on="1"/>
        <pt x="260" y="120" on="1"/>
        <pt x="300" y="120" on="0"/>
        <pt x="300" y="170" on="1"/>
        <pt x="300" y="550" on="1"/>
        <pt x="300" y="600" on="0"/>
        <pt x="260" y="600" on="1"/>
      </contour>
    </TTGlyph>
    <TTGlyph name="Dcroat" xMin="10" yMin="0" xMax="530" yMax="720">
      <contour>
        <pt x="50" y="720" on="1"/>
        <pt x="290" y="720" on="1"/>
        <pt x="407" y="720" on="0"/>
        <pt x="530" y="638" on="0"/>
        <pt x="530" y="560" on="1"/>
        <pt x="530" y="160" on="1"/>
        <pt x="530" y="82" on="0"/>
        <pt x="407" y="0" on="0"/>
        <pt x="290" y="0" on="1"/>
        <pt x="50" y="0" on="1"/>
        <pt x="50" y="320" on="1"/>
        <pt x="10" y="320" on="1"/>
        <pt x="10" y="400" on="1"/>
        <pt x="50" y="400" on="1"/>
      </contour>
      <contour>
        <pt x="230" y="600" on="1"/>
        <pt x="230" y="400" on="1"/>
        <pt x="290" y="400" on="1"/>
        <pt x="290" y="320" on="1"/>
        <pt x="230" y="320" on="1"/>
        <pt x="230" y="120" on="1"/>
        <pt x="290" y="120" on="1"/>
        <pt x="330" y="120" on="0"/>
        <pt x="330" y="170" on="1"/>
        <pt x="330" y="550" on="1"/>
        <pt x="330" y="600" on="0"/>
        <pt x="290" y="600" on="1"/>
      </contour>
    </TTGlyph>
    <TTGlyph name="E" xMin="20" yMin="0" xMax="400" yMax="720">
      <contour>
        <pt x="20" y="720" on="1"/>
        <pt x="400" y="720" on="1"/>
        <pt x="400" y="580" on="1"/>
        <pt x="220" y="580" on="1"/>
        <pt x="220" y="430" on="1"/>
        <pt x="340" y="430" on="1"/>
        <pt x="340" y="290" on="1"/>
        <pt x="220" y="290" on="1"/>
        <pt x="220" y="140" on="1"/>
        <pt x="400" y="140" on="1"/>
        <pt x="400" y="0" on="1"/>
        <pt x="20" y="0" on="1"/>
      </contour>
    </TTGlyph>
    <TTGlyph name="Eacute" xMin="20" yMin="0" xMax="400" yMax="910">
      <contour>
        <pt x="130" y="775" on="1"/>
        <pt x="110" y="850" on="1"/>
        <pt x="310" y="910" on="1"/>
        <pt x="330" y="795" on="1"/>
      </contour>
      <contour>
        <pt x="20" y="720" on="1"/>
        <pt x="400" y="720" on="1"/>
        <pt x="400" y="580" on="1"/>
        <pt x="220" y="580" on="1"/>
        <pt x="220" y="430" on="1"/>
        <pt x="340" y="430" on="1"/>
        <pt x="340" y="290" on="1"/>
        <pt x="220" y="290" on="1"/>
        <pt x="220" y="140" on="1"/>
        <pt x="400" y="140" on="1"/>
        <pt x="400" y="0" on="1"/>
        <pt x="20" y="0" on="1"/>
      </contour>
    </TTGlyph>
    <TTGlyph name="Ebreve" xMin="20" yMin="0" xMax="400" yMax="910">
      <contour>
        <pt x="210" y="860" on="1"/>
        <pt x="237" y="860" on="0"/>
        <pt x="312" y="885" on="0"/>
        <pt x="336" y="898" on="1"/>
        <pt x="360" y="910" on="1"/>
        <pt x="370" y="810" on="1"/>
        <pt x="290" y="775" on="0"/>
        <pt x="210" y="775" on="1"/>
        <pt x="174" y="775" on="0"/>
        <pt x="94" y="792" on="0"/>
        <pt x="72" y="801" on="1"/>
        <pt x="50" y="810" on="1"/>
        <pt x="60" y="910" on="1"/>
        <pt x="150" y="860" on="0"/>
      </contour>
      <contour>
        <pt x="20" y="720" on="1"/>
        <pt x="400" y="720" on="1"/>
        <pt x="400" y="580" on="1"/>
        <pt x="220" y="580" on="1"/>
        <pt x="220" y="430" on="1"/>
        <pt x="340" y="430" on="1"/>
        <pt x="340" y="290" on="1"/>
        <pt x="220" y="290" on="1"/>
        <pt x="220" y="140" on="1"/>
        <pt x="400" y="140" on="1"/>
        <pt x="400" y="0" on="1"/>
        <pt x="20" y="0" on="1"/>
      </contour>
    </TTGlyph>
    <TTGlyph name="Ecaron" xMin="20" yMin="0" xMax="400" yMax="910">
      <contour>
        <pt x="50" y="810" on="1"/>
        <pt x="70" y="910" on="1"/>
        <pt x="210" y="849" on="1"/>
        <pt x="350" y="910" on="1"/>
        <pt x="370" y="810" on="1"/>
        <pt x="210" y="775" on="1"/>
      </contour>
      <contour>
        <pt x="20" y="720" on="1"/>
        <pt x="400" y="720" on="1"/>
        <pt x="400" y="580" on="1"/>
        <pt x="220" y="580" on="1"/>
        <pt x="220" y="430" on="1"/>
        <pt x="340" y="430" on="1"/>
        <pt x="340" y="290" on="1"/>
        <pt x="220" y="290" on="1"/>
        <pt x="220" y="140" on="1"/>
        <pt x="400" y="140" on="1"/>
        <pt x="400" y="0" on="1"/>
        <pt x="20" y="0" on="1"/>
      </contour>
    </TTGlyph>
    <TTGlyph name="Ecircumflex" xMin="20" yMin="0" xMax="400" yMax="905">
      <contour>
        <pt x="70" y="770" on="1"/>
        <pt x="50" y="870" on="1"/>
        <pt x="210" y="905" on="1"/>
        <pt x="370" y="870" on="1"/>
        <pt x="350" y="770" on="1"/>
        <pt x="210" y="831" on="1"/>
      </contour>
      <contour>
        <pt x="20" y="720" on="1"/>
        <pt x="400" y="720" on="1"/>
        <pt x="400" y="580" on="1"/>
        <pt x="220" y="580" on="1"/>
        <pt x="220" y="430" on="1"/>
        <pt x="340" y="430" on="1"/>
        <pt x="340" y="290" on="1"/>
        <pt x="220" y="290" on="1"/>
        <pt x="220" y="140" on="1"/>
        <pt x="400" y="140" on="1"/>
        <pt x="400" y="0" on="1"/>
        <pt x="20" y="0" on="1"/>
      </contour>
    </TTGlyph>
    <TTGlyph name="Edieresis" xMin="20" yMin="0" xMax="400" yMax="880">
      <contour>
        <pt x="30" y="765" on="1"/>
        <pt x="30" y="880" on="1"/>
        <pt x="170" y="880" on="1"/>
        <pt x="170" y="765" on="1"/>
      </contour>
      <contour>
        <pt x="250" y="765" on="1"/>
        <pt x="250" y="880" on="1"/>
        <pt x="390" y="880" on="1"/>
        <pt x="390" y="765" on="1"/>
      </contour>
      <contour>
        <pt x="20" y="720" on="1"/>
        <pt x="400" y="720" on="1"/>
        <pt x="400" y="580" on="1"/>
        <pt x="220" y="580" on="1"/>
        <pt x="220" y="430" on="1"/>
        <pt x="340" y="430" on="1"/>
        <pt x="340" y="290" on="1"/>
        <pt x="220" y="290" on="1"/>
        <pt x="220" y="140" on="1"/>
        <pt x="400" y="140" on="1"/>
        <pt x="400" y="0" on="1"/>
        <pt x="20" y="0" on="1"/>
      </contour>
    </TTGlyph>
    <TTGlyph name="Edotaccent" xMin="20" yMin="0" xMax="400" yMax="900">
      <contour>
        <pt x="110" y="785" on="1"/>
        <pt x="110" y="900" on="1"/>
        <pt x="310" y="900" on="1"/>
        <pt x="310" y="785" on="1"/>
      </contour>
      <contour>
        <pt x="20" y="720" on="1"/>
        <pt x="400" y="720" on="1"/>
        <pt x="400" y="580" on="1"/>
        <pt x="220" y="580" on="1"/>
        <pt x="220" y="430" on="1"/>
        <pt x="340" y="430" on="1"/>
        <pt x="340" y="290" on="1"/>
        <pt x="220" y="290" on="1"/>
        <pt x="220" y="140" on="1"/>
        <pt x="400" y="140" on="1"/>
        <pt x="400" y="0" on="1"/>
        <pt x="20" y="0" on="1"/>
      </contour>
    </TTGlyph>
    <TTGlyph name="Egrave" xMin="20" yMin="0" xMax="400" yMax="910">
      <contour>
        <pt x="290" y="775" on="1"/>
        <pt x="90" y="795" on="1"/>
        <pt x="110" y="910" on="1"/>
        <pt x="310" y="850" on="1"/>
      </contour>
      <contour>
        <pt x="20" y="720" on="1"/>
        <pt x="400" y="720" on="1"/>
        <pt x="400" y="580" on="1"/>
        <pt x="220" y="580" on="1"/>
        <pt x="220" y="430" on="1"/>
        <pt x="340" y="430" on="1"/>
        <pt x="340" y="290" on="1"/>
        <pt x="220" y="290" on="1"/>
        <pt x="220" y="140" on="1"/>
        <pt x="400" y="140" on="1"/>
        <pt x="400" y="0" on="1"/>
        <pt x="20" y="0" on="1"/>
      </contour>
    </TTGlyph>
    <TTGlyph name="Emacron" xMin="20" yMin="0" xMax="400" yMax="870">
      <contour>
        <pt x="380" y="790" on="1"/>
        <pt x="40" y="790" on="1"/>
        <pt x="40" y="870" on="1"/>
        <pt x="380" y="870" on="1"/>
      </contour>
      <contour>
        <pt x="20" y="720" on="1"/>
        <pt x="400" y="720" on="1"/>
        <pt x="400" y="580" on="1"/>
        <pt x="220" y="580" on="1"/>
        <pt x="220" y="430" on="1"/>
        <pt x="340" y="430" on="1"/>
        <pt x="340" y="290" on="1"/>
        <pt x="220" y="290" on="1"/>
        <pt x="220" y="140" on="1"/>
        <pt x="400" y="140" on="1"/>
        <pt x="400" y="0" on="1"/>
        <pt x="20" y="0" on="1"/>
      </contour>
    </TTGlyph>
    <TTGlyph name="Eng" xMin="20" yMin="-40" xMax="500" yMax="730">
      <contour>
        <pt x="20" y="720" on="1"/>
        <pt x="114" y="720" on="1"/>
        <pt x="150" y="668" on="1"/>
        <pt x="229" y="730" on="0"/>
        <pt x="350" y="730" on="1"/>
        <pt x="412" y="730" on="0"/>
        <pt x="500" y="660" on="0"/>
        <pt x="500" y="610" on="1"/>
        <pt x="500" y="90" on="1"/>
        <pt x="500" y="36" on="0"/>
        <pt x="436" y="-40" on="0"/>
        <pt x="390" y="-40" on="1"/>
        <pt x="295" y="-40" on="1"/>
        <pt x="300" y="-7" on="0"/>
        <pt x="300" y="40" on="1"/>
        <pt x="300" y="530" on="1"/>
        <pt x="300" y="551" on="0"/>
        <pt x="275" y="581" on="0"/>
        <pt x="258" y="581" on="1"/>
        <pt x="239" y="581" on="0"/>
        <pt x="220" y="568" on="1"/>
        <pt x="220" y="0" on="1"/>
        <pt x="20" y="0" on="1"/>
      </contour>
    </TTGlyph>
    <TTGlyph name="Eogonek" xMin="20" yMin="-240" xMax="405" yMax="720">
      <contour>
        <pt x="20" y="720" on="1"/>
        <pt x="400" y="720" on="1"/>
        <pt x="400" y="580" on="1"/>
        <pt x="220" y="580" on="1"/>
        <pt x="220" y="430" on="1"/>
        <pt x="340" y="430" on="1"/>
        <pt x="340" y="290" on="1"/>
        <pt x="220" y="290" on="1"/>
        <pt x="220" y="140" on="1"/>
        <pt x="400" y="140" on="1"/>
        <pt x="400" y="4" on="1"/>
        <pt x="394" y="0" on="1"/>
        <pt x="352" y="-27" on="0"/>
        <pt x="316" y="-70" on="0"/>
        <pt x="316" y="-99" on="1"/>
        <pt x="316" y="-120" on="0"/>
        <pt x="340" y="-120" on="1"/>
        <pt x="352" y="-120" on="0"/>
        <pt x="363" y="-113" on="1"/>
        <pt x="405" y="-223" on="1"/>
        <pt x="376" y="-240" on="0"/>
        <pt x="342" y="-240" on="1"/>
        <pt x="280" y="-240" on="0"/>
        <pt x="203" y="-182" on="0"/>
        <pt x="203" y="-134" on="1"/>
        <pt x="203" y="-62" on="0"/>
        <pt x="297" y="-7" on="1"/>
        <pt x="297" y="0" on="1"/>
        <pt x="20" y="0" on="1"/>
      </contour>
    </TTGlyph>
    <TTGlyph name="Eth" xMin="10" yMin="0" xMax="530" yMax="720">
      <contour>
        <pt x="50" y="720" on="1"/>
        <pt x="290" y="720" on="1"/>
        <pt x="407" y="720" on="0"/>
        <pt x="530" y="638" on="0"/>
        <pt x="530" y="560" on="1"/>
        <pt x="530" y="160" on="1"/>
        <pt x="530" y="82" on="0"/>
        <pt x="407" y="0" on="0"/>
        <pt x="290" y="0" on="1"/>
        <pt x="50" y="0" on="1"/>
        <pt x="50" y="320" on="1"/>
        <pt x="10" y="320" on="1"/>
        <pt x="10" y="400" on="1"/>
        <pt x="50" y="400" on="1"/>
      </contour>
      <contour>
        <pt x="230" y="600" on="1"/>
        <pt x="230" y="400" on="1"/>
        <pt x="290" y="400" on="1"/>
        <pt x="290" y="320" on="1"/>
        <pt x="230" y="320" on="1"/>
        <pt x="230" y="120" on="1"/>
        <pt x="290" y="120" on="1"/>
        <pt x="330" y="120" on="0"/>
        <pt x="330" y="170" on="1"/>
        <pt x="330" y="550" on="1"/>
        <pt x="330" y="600" on="0"/>
        <pt x="290" y="600" on="1"/>
      </contour>
    </TTGlyph>
    <TTGlyph name="Euro" xMin="10" yMin="-10" xMax="505" yMax="730">
      <contour>
        <pt x="505" y="520" on="1"/>
        <pt x="325" y="520" on="1"/>
        <pt x="325" y="560" on="1"/>
        <pt x="325" y="610" on="0"/>
        <pt x="245" y="610" on="0"/>
        <pt x="245" y="560" on="1"/>
        <pt x="245" y="470" on="1"/>
        <pt x="407" y="470" on="1"/>
        <pt x="405" y="390" on="1"/>
        <pt x="245" y="390" on="1"/>
        <pt x="245" y="330" on="1"/>
        <pt x="402" y="330" on="1"/>
        <pt x="400" y="250" on="1"/>
        <pt x="245" y="250" on="1"/>
        <pt x="245" y="160" on="1"/>
        <pt x="245" y="110" on="0"/>
        <pt x="325" y="110" on="0"/>
        <pt x="325" y="160" on="1"/>
        <pt x="325" y="200" on="1"/>
        <pt x="505" y="200" on="1"/>
        <pt x="505" y="100" on="1"/>
        <pt x="505" y="40" on="0"/>
        <pt x="406" y="-10" on="0"/>
        <pt x="285" y="-10" on="1"/>
        <pt x="154" y="-10" on="0"/>
        <pt x="45" y="44" on="0"/>
        <pt x="45" y="110" on="1"/>
        <pt x="45" y="250" on="1"/>
        <pt x="10" y="250" on="1"/>
        <pt x="12" y="330" on="1"/>
        <pt x="45" y="330" on="1"/>
        <pt x="45" y="390" on="1"/>
        <pt x="15" y="390" on="1"/>
        <pt x="17" y="470" on="1"/>
        <pt x="45" y="470" on="1"/>
        <pt x="45" y="610" on="1"/>
        <pt x="45" y="676" on="0"/>
        <pt x="154" y="730" on="0"/>
        <pt x="285" y="730" on="1"/>
        <pt x="406" y="730" on="0"/>
        <pt x="505" y="680" on="0"/>
        <pt x="505" y="620" on="1"/>
      </contour>
    </TTGlyph>
    <TTGlyph name="F" xMin="20" yMin="0" xMax="400" yMax="720">
      <contour>
        <pt x="20" y="720" on="1"/>
        <pt x="400" y="720" on="1"/>
        <pt x="400" y="580" on="1"/>
        <pt x="220" y="580" on="1"/>
        <pt x="220" y="430" on="1"/>
        <pt x="380" y="430" on="1"/>
        <pt x="380" y="290" on="1"/>
        <pt x="220" y="290" on="1"/>
        <pt x="220" y="0" on="1"/>
        <pt x="20" y="0" on="1"/>
      </contour>
    </TTGlyph>
    <TTGlyph name="F_T.dlig" xMin="20" yMin="0" xMax="810" yMax="720">
      <contour>
        <pt x="20" y="720" on="1"/>
        <pt x="810" y="720" on="1"/>
        <pt x="810" y="580" on="1"/>
        <pt x="670" y="580" on="1"/>
        <pt x="670" y="0" on="1"/>
        <pt x="470" y="0" on="1"/>
        <pt x="470" y="580" on="1"/>
        <pt x="220" y="580" on="1"/>
        <pt x="220" y="430" on="1"/>
        <pt x="390" y="430" on="1"/>
        <pt x="390" y="290" on="1"/>
        <pt x="220" y="290" on="1"/>
        <pt x="220" y="0" on="1"/>
        <pt x="20" y="0" on="1"/>
      </contour>
    </TTGlyph>
    <TTGlyph name="G" xMin="15" yMin="-10" xMax="500" yMax="730">
      <contour>
        <pt x="295" y="500" on="1"/>
        <pt x="295" y="560" on="1"/>
        <pt x="295" y="610" on="0"/>
        <pt x="215" y="610" on="0"/>
        <pt x="215" y="560" on="1"/>
        <pt x="215" y="190" on="1"/>
        <pt x="215" y="167" on="0"/>
        <pt x="233" y="139" on="0"/>
        <pt x="247" y="139" on="1"/>
        <pt x="269" y="139" on="0"/>
        <pt x="295" y="167" on="1"/>
        <pt x="295" y="280" on="1"/>
        <pt x="260" y="280" on="1"/>
        <pt x="260" y="400" on="1"/>
        <pt x="495" y="400" on="1"/>
        <pt x="495" y="80" on="1"/>
        <pt x="495" y="33" on="0"/>
        <pt x="500" y="0" on="1"/>
        <pt x="401" y="0" on="1"/>
        <pt x="358" y="62" on="1"/>
        <pt x="275" y="-10" on="0"/>
        <pt x="155" y="-10" on="1"/>
        <pt x="93" y="-10" on="0"/>
        <pt x="15" y="57" on="0"/>
        <pt x="15" y="110" on="1"/>
        <pt x="15" y="610" on="1"/>
        <pt x="15" y="676" on="0"/>
        <pt x="124" y="730" on="0"/>
        <pt x="255" y="730" on="1"/>
        <pt x="495" y="730" on="0"/>
        <pt x="495" y="620" on="1"/>
        <pt x="495" y="500" on="1"/>
      </contour>
    </TTGlyph>
    <TTGlyph name="Gbreve" xMin="15" yMin="-10" xMax="500" yMax="910">
      <contour>
        <pt x="255" y="860" on="1"/>
        <pt x="282" y="860" on="0"/>
        <pt x="357" y="885" on="0"/>
        <pt x="381" y="898" on="1"/>
        <pt x="405" y="910" on="1"/>
        <pt x="415" y="810" on="1"/>
        <pt x="335" y="775" on="0"/>
        <pt x="255" y="775" on="1"/>
        <pt x="219" y="775" on="0"/>
        <pt x="139" y="792" on="0"/>
        <pt x="117" y="801" on="1"/>
        <pt x="95" y="810" on="1"/>
        <pt x="105" y="910" on="1"/>
        <pt x="195" y="860" on="0"/>
      </contour>
      <contour>
        <pt x="295" y="500" on="1"/>
        <pt x="295" y="560" on="1"/>
        <pt x="295" y="610" on="0"/>
        <pt x="215" y="610" on="0"/>
        <pt x="215" y="560" on="1"/>
        <pt x="215" y="190" on="1"/>
        <pt x="215" y="167" on="0"/>
        <pt x="233" y="139" on="0"/>
        <pt x="247" y="139" on="1"/>
        <pt x="269" y="139" on="0"/>
        <pt x="295" y="167" on="1"/>
        <pt x="295" y="280" on="1"/>
        <pt x="260" y="280" on="1"/>
        <pt x="260" y="400" on="1"/>
        <pt x="495" y="400" on="1"/>
        <pt x="495" y="80" on="1"/>
        <pt x="495" y="33" on="0"/>
        <pt x="500" y="0" on="1"/>
        <pt x="401" y="0" on="1"/>
        <pt x="358" y="62" on="1"/>
        <pt x="275" y="-10" on="0"/>
        <pt x="155" y="-10" on="1"/>
        <pt x="93" y="-10" on="0"/>
        <pt x="15" y="57" on="0"/>
        <pt x="15" y="110" on="1"/>
        <pt x="15" y="610" on="1"/>
        <pt x="15" y="676" on="0"/>
        <pt x="124" y="730" on="0"/>
        <pt x="255" y="730" on="1"/>
        <pt x="495" y="730" on="0"/>
        <pt x="495" y="620" on="1"/>
        <pt x="495" y="500" on="1"/>
      </contour>
    </TTGlyph>
    <TTGlyph name="Gcaron" xMin="15" yMin="-10" xMax="500" yMax="910">
      <contour>
        <pt x="95" y="810" on="1"/>
        <pt x="115" y="910" on="1"/>
        <pt x="255" y="849" on="1"/>
        <pt x="395" y="910" on="1"/>
        <pt x="415" y="810" on="1"/>
        <pt x="255" y="775" on="1"/>
      </contour>
      <contour>
        <pt x="295" y="500" on="1"/>
        <pt x="295" y="560" on="1"/>
        <pt x="295" y="610" on="0"/>
        <pt x="215" y="610" on="0"/>
        <pt x="215" y="560" on="1"/>
        <pt x="215" y="190" on="1"/>
        <pt x="215" y="167" on="0"/>
        <pt x="233" y="139" on="0"/>
        <pt x="247" y="139" on="1"/>
        <pt x="269" y="139" on="0"/>
        <pt x="295" y="167" on="1"/>
        <pt x="295" y="280" on="1"/>
        <pt x="260" y="280" on="1"/>
        <pt x="260" y="400" on="1"/>
        <pt x="495" y="400" on="1"/>
        <pt x="495" y="80" on="1"/>
        <pt x="495" y="33" on="0"/>
        <pt x="500" y="0" on="1"/>
        <pt x="401" y="0" on="1"/>
        <pt x="358" y="62" on="1"/>
        <pt x="275" y="-10" on="0"/>
        <pt x="155" y="-10" on="1"/>
        <pt x="93" y="-10" on="0"/>
        <pt x="15" y="57" on="0"/>
        <pt x="15" y="110" on="1"/>
        <pt x="15" y="610" on="1"/>
        <pt x="15" y="676" on="0"/>
        <pt x="124" y="730" on="0"/>
        <pt x="255" y="730" on="1"/>
        <pt x="495" y="730" on="0"/>
        <pt x="495" y="620" on="1"/>
        <pt x="495" y="500" on="1"/>
      </contour>
    </TTGlyph>
    <TTGlyph name="Gcircumflex" xMin="15" yMin="-10" xMax="500" yMax="905">
      <contour>
        <pt x="115" y="770" on="1"/>
        <pt x="95" y="870" on="1"/>
        <pt x="255" y="905" on="1"/>
        <pt x="415" y="870" on="1"/>
        <pt x="395" y="770" on="1"/>
        <pt x="255" y="831" on="1"/>
      </contour>
      <contour>
        <pt x="295" y="500" on="1"/>
        <pt x="295" y="560" on="1"/>
        <pt x="295" y="610" on="0"/>
        <pt x="215" y="610" on="0"/>
        <pt x="215" y="560" on="1"/>
        <pt x="215" y="190" on="1"/>
        <pt x="215" y="167" on="0"/>
        <pt x="233" y="139" on="0"/>
        <pt x="247" y="139" on="1"/>
        <pt x="269" y="139" on="0"/>
        <pt x="295" y="167" on="1"/>
        <pt x="295" y="280" on="1"/>
        <pt x="260" y="280" on="1"/>
        <pt x="260" y="400" on="1"/>
        <pt x="495" y="400" on="1"/>
        <pt x="495" y="80" on="1"/>
        <pt x="495" y="33" on="0"/>
        <pt x="500" y="0" on="1"/>
        <pt x="401" y="0" on="1"/>
        <pt x="358" y="62" on="1"/>
        <pt x="275" y="-10" on="0"/>
        <pt x="155" y="-10" on="1"/>
        <pt x="93" y="-10" on="0"/>
        <pt x="15" y="57" on="0"/>
        <pt x="15" y="110" on="1"/>
        <pt x="15" y="610" on="1"/>
        <pt x="15" y="676" on="0"/>
        <pt x="124" y="730" on="0"/>
        <pt x="255" y="730" on="1"/>
        <pt x="495" y="730" on="0"/>
        <pt x="495" y="620" on="1"/>
        <pt x="495" y="500" on="1"/>
      </contour>
    </TTGlyph>
    <TTGlyph name="Gcommaaccent" xMin="15" yMin="-241" xMax="500" yMax="730">
      <contour>
        <pt x="229" y="-224" on="1"/>
        <pt x="255" y="-187" on="0"/>
        <pt x="255" y="-145" on="1"/>
        <pt x="200" y="-145" on="1"/>
        <pt x="195" y="-140" on="1"/>
        <pt x="195" y="-50" on="1"/>
        <pt x="200" y="-45" on="1"/>
        <pt x="310" y="-45" on="1"/>
        <pt x="315" y="-50" on="1"/>
        <pt x="315" y="-145" on="1"/>
        <pt x="315" y="-195" on="0"/>
        <pt x="289" y="-241" on="1"/>
      </contour>
      <contour>
        <pt x="295" y="500" on="1"/>
        <pt x="295" y="560" on="1"/>
        <pt x="295" y="610" on="0"/>
        <pt x="215" y="610" on="0"/>
        <pt x="215" y="560" on="1"/>
        <pt x="215" y="190" on="1"/>
        <pt x="215" y="167" on="0"/>
        <pt x="233" y="139" on="0"/>
        <pt x="247" y="139" on="1"/>
        <pt x="269" y="139" on="0"/>
        <pt x="295" y="167" on="1"/>
        <pt x="295" y="280" on="1"/>
        <pt x="260" y="280" on="1"/>
        <pt x="260" y="400" on="1"/>
        <pt x="495" y="400" on="1"/>
        <pt x="495" y="80" on="1"/>
        <pt x="495" y="33" on="0"/>
        <pt x="500" y="0" on="1"/>
        <pt x="401" y="0" on="1"/>
        <pt x="358" y="62" on="1"/>
        <pt x="275" y="-10" on="0"/>
        <pt x="155" y="-10" on="1"/>
        <pt x="93" y="-10" on="0"/>
        <pt x="15" y="57" on="0"/>
        <pt x="15" y="110" on="1"/>
        <pt x="15" y="610" on="1"/>
        <pt x="15" y="676" on="0"/>
        <pt x="124" y="730" on="0"/>
        <pt x="255" y="730" on="1"/>
        <pt x="495" y="730" on="0"/>
        <pt x="495" y="620" on="1"/>
        <pt x="495" y="500" on="1"/>
      </contour>
    </TTGlyph>
    <TTGlyph name="Gdotaccent" xMin="15" yMin="-10" xMax="500" yMax="900">
      <contour>
        <pt x="155" y="785" on="1"/>
        <pt x="155" y="900" on="1"/>
        <pt x="355" y="900" on="1"/>
        <pt x="355" y="785" on="1"/>
      </contour>
      <contour>
        <pt x="295" y="500" on="1"/>
        <pt x="295" y="560" on="1"/>
        <pt x="295" y="610" on="0"/>
        <pt x="215" y="610" on="0"/>
        <pt x="215" y="560" on="1"/>
        <pt x="215" y="190" on="1"/>
        <pt x="215" y="167" on="0"/>
        <pt x="233" y="139" on="0"/>
        <pt x="247" y="139" on="1"/>
        <pt x="269" y="139" on="0"/>
        <pt x="295" y="167" on="1"/>
        <pt x="295" y="280" on="1"/>
        <pt x="260" y="280" on="1"/>
        <pt x="260" y="400" on="1"/>
        <pt x="495" y="400" on="1"/>
        <pt x="495" y="80" on="1"/>
        <pt x="495" y="33" on="0"/>
        <pt x="500" y="0" on="1"/>
        <pt x="401" y="0" on="1"/>
        <pt x="358" y="62" on="1"/>
        <pt x="275" y="-10" on="0"/>
        <pt x="155" y="-10" on="1"/>
        <pt x="93" y="-10" on="0"/>
        <pt x="15" y="57" on="0"/>
        <pt x="15" y="110" on="1"/>
        <pt x="15" y="610" on="1"/>
        <pt x="15" y="676" on="0"/>
        <pt x="124" y="730" on="0"/>
        <pt x="255" y="730" on="1"/>
        <pt x="495" y="730" on="0"/>
        <pt x="495" y="620" on="1"/>
        <pt x="495" y="500" on="1"/>
      </contour>
    </TTGlyph>
    <TTGlyph name="H" xMin="20" yMin="0" xMax="505" yMax="720">
      <contour>
        <pt x="20" y="720" on="1"/>
        <pt x="220" y="720" on="1"/>
        <pt x="220" y="430" on="1"/>
        <pt x="300" y="430" on="1"/>
        <pt x="300" y="720" on="1"/>
        <pt x="500" y="720" on="1"/>
        <pt x="500" y="80" on="1"/>
        <pt x="500" y="33" on="0"/>
        <pt x="505" y="0" on="1"/>
        <pt x="335" y="0" on="1"/>
        <pt x="314" y="0" on="0"/>
        <pt x="300" y="56" on="0"/>
        <pt x="300" y="130" on="1"/>
        <pt x="300" y="290" on="1"/>
        <pt x="220" y="290" on="1"/>
        <pt x="220" y="0" on="1"/>
        <pt x="20" y="0" on="1"/>
      </contour>
    </TTGlyph>
    <TTGlyph name="Hbar" xMin="5" yMin="0" xMax="545" yMax="720">
      <contour>
        <pt x="545" y="620" on="1"/>
        <pt x="545" y="540" on="1"/>
        <pt x="515" y="540" on="1"/>
        <pt x="515" y="80" on="1"/>
        <pt x="515" y="33" on="0"/>
        <pt x="520" y="0" on="1"/>
        <pt x="350" y="0" on="1"/>
        <pt x="329" y="0" on="0"/>
        <pt x="315" y="56" on="0"/>
        <pt x="315" y="130" on="1"/>
        <pt x="315" y="290" on="1"/>
        <pt x="235" y="290" on="1"/>
        <pt x="235" y="0" on="1"/>
        <pt x="35" y="0" on="1"/>
        <pt x="35" y="540" on="1"/>
        <pt x="5" y="540" on="1"/>
        <pt x="5" y="620" on="1"/>
        <pt x="35" y="620" on="1"/>
        <pt x="35" y="720" on="1"/>
        <pt x="235" y="720" on="1"/>
        <pt x="235" y="620" on="1"/>
        <pt x="315" y="620" on="1"/>
        <pt x="315" y="720" on="1"/>
        <pt x="515" y="720" on="1"/>
        <pt x="515" y="620" on="1"/>
      </contour>
      <contour>
        <pt x="315" y="540" on="1"/>
        <pt x="235" y="540" on="1"/>
        <pt x="235" y="430" on="1"/>
        <pt x="315" y="430" on="1"/>
      </contour>
    </TTGlyph>
    <TTGlyph name="Hcircumflex" xMin="20" yMin="0" xMax="505" yMax="905">
      <contour>
        <pt x="120" y="770" on="1"/>
        <pt x="100" y="870" on="1"/>
        <pt x="260" y="905" on="1"/>
        <pt x="420" y="870" on="1"/>
        <pt x="400" y="770" on="1"/>
        <pt x="260" y="831" on="1"/>
      </contour>
      <contour>
        <pt x="20" y="720" on="1"/>
        <pt x="220" y="720" on="1"/>
        <pt x="220" y="430" on="1"/>
        <pt x="300" y="430" on="1"/>
        <pt x="300" y="720" on="1"/>
        <pt x="500" y="720" on="1"/>
        <pt x="500" y="80" on="1"/>
        <pt x="500" y="33" on="0"/>
        <pt x="505" y="0" on="1"/>
        <pt x="335" y="0" on="1"/>
        <pt x="314" y="0" on="0"/>
        <pt x="300" y="56" on="0"/>
        <pt x="300" y="130" on="1"/>
        <pt x="300" y="290" on="1"/>
        <pt x="220" y="290" on="1"/>
        <pt x="220" y="0" on="1"/>
        <pt x="20" y="0" on="1"/>
      </contour>
    </TTGlyph>
    <TTGlyph name="I" xMin="20" yMin="0" xMax="220" yMax="720">
      <contour>
        <pt x="20" y="720" on="1"/>
        <pt x="220" y="720" on="1"/>
        <pt x="220" y="0" on="1"/>
        <pt x="20" y="0" on="1"/>
      </contour>
    </TTGlyph>
    <TTGlyph name="IJ" xMin="20" yMin="-10" xMax="535" yMax="720">
      <contour>
        <pt x="255" y="720" on="1"/>
        <pt x="535" y="720" on="1"/>
        <pt x="535" y="130" on="1"/>
        <pt x="535" y="62" on="0"/>
        <pt x="427" y="-10" on="0"/>
        <pt x="325" y="-10" on="1"/>
        <pt x="286" y="-10" on="0"/>
        <pt x="255" y="-1" on="1"/>
        <pt x="255" y="118" on="1"/>
        <pt x="269" y="110" on="0"/>
        <pt x="285" y="110" on="1"/>
        <pt x="335" y="110" on="0"/>
        <pt x="335" y="160" on="1"/>
        <pt x="335" y="580" on="1"/>
        <pt x="255" y="580" on="1"/>
      </contour>
      <contour>
        <pt x="20" y="720" on="1"/>
        <pt x="220" y="720" on="1"/>
        <pt x="220" y="0" on="1"/>
        <pt x="20" y="0" on="1"/>
      </contour>
    </TTGlyph>
    <TTGlyph name="Iacute" xMin="10" yMin="0" xMax="230" yMax="890">
      <contour>
        <pt x="30" y="755" on="1"/>
        <pt x="10" y="830" on="1"/>
        <pt x="210" y="890" on="1"/>
        <pt x="230" y="775" on="1"/>
      </contour>
      <contour>
        <pt x="20" y="720" on="1"/>
        <pt x="220" y="720" on="1"/>
        <pt x="220" y="0" on="1"/>
        <pt x="20" y="0" on="1"/>
      </contour>
    </TTGlyph>
    <TTGlyph name="Ibreve" xMin="-40" yMin="0" xMax="280" yMax="910">
      <contour>
        <pt x="120" y="860" on="1"/>
        <pt x="147" y="860" on="0"/>
        <pt x="222" y="885" on="0"/>
        <pt x="246" y="898" on="1"/>
        <pt x="270" y="910" on="1"/>
        <pt x="280" y="810" on="1"/>
        <pt x="200" y="775" on="0"/>
        <pt x="120" y="775" on="1"/>
        <pt x="84" y="775" on="0"/>
        <pt x="4" y="792" on="0"/>
        <pt x="-18" y="801" on="1"/>
        <pt x="-40" y="810" on="1"/>
        <pt x="-30" y="910" on="1"/>
        <pt x="60" y="860" on="0"/>
      </contour>
      <contour>
        <pt x="20" y="720" on="1"/>
        <pt x="220" y="720" on="1"/>
        <pt x="220" y="0" on="1"/>
        <pt x="20" y="0" on="1"/>
      </contour>
    </TTGlyph>
    <TTGlyph name="Icircumflex" xMin="-40" yMin="0" xMax="280" yMax="905">
      <contour>
        <pt x="-20" y="770" on="1"/>
        <pt x="-40" y="870" on="1"/>
        <pt x="120" y="905" on="1"/>
        <pt x="280" y="870" on="1"/>
        <pt x="260" y="770" on="1"/>
        <pt x="120" y="831" on="1"/>
      </contour>
      <contour>
        <pt x="20" y="720" on="1"/>
        <pt x="220" y="720" on="1"/>
        <pt x="220" y="0" on="1"/>
        <pt x="20" y="0" on="1"/>
      </contour>
    </TTGlyph>
    <TTGlyph name="Idieresis" xMin="-60" yMin="0" xMax="300" yMax="900">
      <contour>
        <pt x="-60" y="785" on="1"/>
        <pt x="-60" y="900" on="1"/>
        <pt x="80" y="900" on="1"/>
        <pt x="80" y="785" on="1"/>
      </contour>
      <contour>
        <pt x="160" y="785" on="1"/>
        <pt x="160" y="900" on="1"/>
        <pt x="300" y="900" on="1"/>
        <pt x="300" y="785" on="1"/>
      </contour>
      <contour>
        <pt x="20" y="720" on="1"/>
        <pt x="220" y="720" on="1"/>
        <pt x="220" y="0" on="1"/>
        <pt x="20" y="0" on="1"/>
      </contour>
    </TTGlyph>
    <TTGlyph name="Idotaccent" xMin="20" yMin="0" xMax="220" yMax="900">
      <contour>
        <pt x="20" y="785" on="1"/>
        <pt x="20" y="900" on="1"/>
        <pt x="220" y="900" on="1"/>
        <pt x="220" y="785" on="1"/>
      </contour>
      <contour>
        <pt x="20" y="720" on="1"/>
        <pt x="220" y="720" on="1"/>
        <pt x="220" y="0" on="1"/>
        <pt x="20" y="0" on="1"/>
      </contour>
    </TTGlyph>
    <TTGlyph name="Igrave" xMin="10" yMin="0" xMax="230" yMax="890">
      <contour>
        <pt x="210" y="755" on="1"/>
        <pt x="10" y="775" on="1"/>
        <pt x="30" y="890" on="1"/>
        <pt x="230" y="830" on="1"/>
      </contour>
      <contour>
        <pt x="20" y="720" on="1"/>
        <pt x="220" y="720" on="1"/>
        <pt x="220" y="0" on="1"/>
        <pt x="20" y="0" on="1"/>
      </contour>
    </TTGlyph>
    <TTGlyph name="Imacron" xMin="-50" yMin="0" xMax="290" yMax="890">
      <contour>
        <pt x="290" y="810" on="1"/>
        <pt x="-50" y="810" on="1"/>
        <pt x="-50" y="890" on="1"/>
        <pt x="290" y="890" on="1"/>
      </contour>
      <contour>
        <pt x="20" y="720" on="1"/>
        <pt x="220" y="720" on="1"/>
        <pt x="220" y="0" on="1"/>
        <pt x="20" y="0" on="1"/>
      </contour>
    </TTGlyph>
    <TTGlyph name="Iogonek" xMin="20" yMin="-240" xMax="220" yMax="720">
      <contour>
        <pt x="20" y="720" on="1"/>
        <pt x="220" y="720" on="1"/>
        <pt x="220" y="0" on="1"/>
        <pt x="131" y="-41" on="0"/>
        <pt x="131" y="-99" on="1"/>
        <pt x="131" y="-120" on="0"/>
        <pt x="155" y="-120" on="1"/>
        <pt x="167" y="-120" on="0"/>
        <pt x="178" y="-113" on="1"/>
        <pt x="220" y="-223" on="1"/>
        <pt x="191" y="-240" on="0"/>
        <pt x="157" y="-240" on="1"/>
        <pt x="95" y="-240" on="0"/>
        <pt x="20" y="-182" on="0"/>
        <pt x="20" y="-134" on="1"/>
        <pt x="20" y="-65" on="0"/>
        <pt x="108" y="-10" on="1"/>
        <pt x="108" y="0" on="1"/>
        <pt x="20" y="0" on="1"/>
      </contour>
    </TTGlyph>
    <TTGlyph name="Itilde" xMin="-51" yMin="0" xMax="307" yMax="905">
      <contour>
        <pt x="27" y="785" on="1"/>
        <pt x="-51" y="805" on="1"/>
        <pt x="-40" y="845" on="0"/>
        <pt x="21" y="905" on="0"/>
        <pt x="64" y="905" on="1"/>
        <pt x="93" y="905" on="0"/>
        <pt x="181" y="858" on="0"/>
        <pt x="194" y="858" on="1"/>
        <pt x="218" y="858" on="0"/>
        <pt x="229" y="900" on="1"/>
        <pt x="307" y="880" on="1"/>
        <pt x="296" y="838" on="0"/>
        <pt x="233" y="779" on="0"/>
        <pt x="192" y="779" on="1"/>
        <pt x="161" y="779" on="0"/>
        <pt x="73" y="826" on="0"/>
        <pt x="61" y="826" on="1"/>
        <pt x="38" y="826" on="0"/>
      </contour>
      <contour>
        <pt x="20" y="720" on="1"/>
        <pt x="220" y="720" on="1"/>
        <pt x="220" y="0" on="1"/>
        <pt x="20" y="0" on="1"/>
      </contour>
    </TTGlyph>
    <TTGlyph name="J" xMin="15" yMin="-10" xMax="295" yMax="720">
      <contour>
        <pt x="15" y="720" on="1"/>
        <pt x="295" y="720" on="1"/>
        <pt x="295" y="130" on="1"/>
        <pt x="295" y="62" on="0"/>
        <pt x="187" y="-10" on="0"/>
        <pt x="85" y="-10" on="1"/>
        <pt x="46" y="-10" on="0"/>
        <pt x="15" y="-1" on="1"/>
        <pt x="15" y="118" on="1"/>
        <pt x="29" y="110" on="0"/>
        <pt x="45" y="110" on="1"/>
        <pt x="95" y="110" on="0"/>
        <pt x="95" y="160" on="1"/>
        <pt x="95" y="580" on="1"/>
        <pt x="15" y="580" on="1"/>
      </contour>
    </TTGlyph>
    <TTGlyph name="Jcircumflex" xMin="-10" yMin="-10" xMax="310" yMax="905">
      <contour>
        <pt x="10" y="770" on="1"/>
        <pt x="-10" y="870" on="1"/>
        <pt x="150" y="905" on="1"/>
        <pt x="310" y="870" on="1"/>
        <pt x="290" y="770" on="1"/>
        <pt x="150" y="831" on="1"/>
      </contour>
      <contour>
        <pt x="15" y="720" on="1"/>
        <pt x="295" y="720" on="1"/>
        <pt x="295" y="130" on="1"/>
        <pt x="295" y="62" on="0"/>
        <pt x="187" y="-10" on="0"/>
        <pt x="85" y="-10" on="1"/>
        <pt x="46" y="-10" on="0"/>
        <pt x="15" y="-1" on="1"/>
        <pt x="15" y="118" on="1"/>
        <pt x="29" y="110" on="0"/>
        <pt x="45" y="110" on="1"/>
        <pt x="95" y="110" on="0"/>
        <pt x="95" y="160" on="1"/>
        <pt x="95" y="580" on="1"/>
        <pt x="15" y="580" on="1"/>
      </contour>
    </TTGlyph>
    <TTGlyph name="K" xMin="20" yMin="0" xMax="505" yMax="720">
      <contour>
        <pt x="20" y="720" on="1"/>
        <pt x="220" y="720" on="1"/>
        <pt x="220" y="460" on="1"/>
        <pt x="258" y="460" on="1"/>
        <pt x="273" y="460" on="0"/>
        <pt x="300" y="488" on="0"/>
        <pt x="300" y="509" on="1"/>
        <pt x="300" y="720" on="1"/>
        <pt x="490" y="720" on="1"/>
        <pt x="490" y="510" on="1"/>
        <pt x="490" y="477" on="0"/>
        <pt x="437" y="417" on="0"/>
        <pt x="395" y="399" on="1"/>
        <pt x="440" y="381" on="0"/>
        <pt x="500" y="315" on="0"/>
        <pt x="500" y="280" on="1"/>
        <pt x="500" y="80" on="1"/>
        <pt x="500" y="33" on="0"/>
        <pt x="505" y="0" on="1"/>
        <pt x="335" y="0" on="1"/>
        <pt x="314" y="0" on="0"/>
        <pt x="300" y="56" on="0"/>
        <pt x="300" y="130" on="1"/>
        <pt x="300" y="270" on="1"/>
        <pt x="300" y="292" on="0"/>
        <pt x="282" y="320" on="0"/>
        <pt x="268" y="320" on="1"/>
        <pt x="220" y="320" on="1"/>
        <pt x="220" y="0" on="1"/>
        <pt x="20" y="0" on="1"/>
      </contour>
    </TTGlyph>
    <TTGlyph name="Kcommaaccent" xMin="20" yMin="-241" xMax="505" yMax="720">
      <contour>
        <pt x="234" y="-224" on="1"/>
        <pt x="260" y="-187" on="0"/>
        <pt x="260" y="-145" on="1"/>
        <pt x="205" y="-145" on="1"/>
        <pt x="200" y="-140" on="1"/>
        <pt x="200" y="-50" on="1"/>
        <pt x="205" y="-45" on="1"/>
        <pt x="315" y="-45" on="1"/>
        <pt x="320" y="-50" on="1"/>
        <pt x="320" y="-145" on="1"/>
        <pt x="320" y="-195" on="0"/>
        <pt x="294" y="-241" on="1"/>
      </contour>
      <contour>
        <pt x="20" y="720" on="1"/>
        <pt x="220" y="720" on="1"/>
        <pt x="220" y="460" on="1"/>
        <pt x="258" y="460" on="1"/>
        <pt x="273" y="460" on="0"/>
        <pt x="300" y="488" on="0"/>
        <pt x="300" y="509" on="1"/>
        <pt x="300" y="720" on="1"/>
        <pt x="490" y="720" on="1"/>
        <pt x="490" y="510" on="1"/>
        <pt x="490" y="477" on="0"/>
        <pt x="437" y="417" on="0"/>
        <pt x="395" y="399" on="1"/>
        <pt x="440" y="381" on="0"/>
        <pt x="500" y="315" on="0"/>
        <pt x="500" y="280" on="1"/>
        <pt x="500" y="80" on="1"/>
        <pt x="500" y="33" on="0"/>
        <pt x="505" y="0" on="1"/>
        <pt x="335" y="0" on="1"/>
        <pt x="314" y="0" on="0"/>
        <pt x="300" y="56" on="0"/>
        <pt x="300" y="130" on="1"/>
        <pt x="300" y="270" on="1"/>
        <pt x="300" y="292" on="0"/>
        <pt x="282" y="320" on="0"/>
        <pt x="268" y="320" on="1"/>
        <pt x="220" y="320" on="1"/>
        <pt x="220" y="0" on="1"/>
        <pt x="20" y="0" on="1"/>
      </contour>
    </TTGlyph>
    <TTGlyph name="L" xMin="20" yMin="0" xMax="400" yMax="720">
      <contour>
        <pt x="20" y="720" on="1"/>
        <pt x="220" y="720" on="1"/>
        <pt x="220" y="140" on="1"/>
        <pt x="400" y="140" on="1"/>
        <pt x="400" y="0" on="1"/>
        <pt x="20" y="0" on="1"/>
      </contour>
    </TTGlyph>
    <TTGlyph name="Lacute" xMin="20" yMin="0" xMax="400" yMax="890">
      <contour>
        <pt x="130" y="755" on="1"/>
        <pt x="110" y="830" on="1"/>
        <pt x="310" y="890" on="1"/>
        <pt x="330" y="775" on="1"/>
      </contour>
      <contour>
        <pt x="20" y="720" on="1"/>
        <pt x="220" y="720" on="1"/>
        <pt x="220" y="140" on="1"/>
        <pt x="400" y="140" on="1"/>
        <pt x="400" y="0" on="1"/>
        <pt x="20" y="0" on="1"/>
      </contour>
    </TTGlyph>
    <TTGlyph name="Lcaron" xMin="20" yMin="0" xMax="480" yMax="720">
      <contour>
        <pt x="345" y="580" on="1"/>
        <pt x="340" y="585" on="1"/>
        <pt x="340" y="715" on="1"/>
        <pt x="345" y="720" on="1"/>
        <pt x="475" y="720" on="1"/>
        <pt x="480" y="715" on="1"/>
        <pt x="480" y="580" on="1"/>
        <pt x="480" y="498" on="0"/>
        <pt x="410" y="428" on="1"/>
        <pt x="368" y="470" on="1"/>
        <pt x="420" y="522" on="0"/>
        <pt x="420" y="580" on="1"/>
      </contour>
      <contour>
        <pt x="20" y="720" on="1"/>
        <pt x="220" y="720" on="1"/>
        <pt x="220" y="140" on="1"/>
        <pt x="400" y="140" on="1"/>
        <pt x="400" y="0" on="1"/>
        <pt x="20" y="0" on="1"/>
      </contour>
    </TTGlyph>
    <TTGlyph name="Lcommaaccent" xMin="20" yMin="-241" xMax="400" yMax="720">
      <contour>
        <pt x="174" y="-224" on="1"/>
        <pt x="200" y="-187" on="0"/>
        <pt x="200" y="-145" on="1"/>
        <pt x="145" y="-145" on="1"/>
        <pt x="140" y="-140" on="1"/>
        <pt x="140" y="-50" on="1"/>
        <pt x="145" y="-45" on="1"/>
        <pt x="255" y="-45" on="1"/>
        <pt x="260" y="-50" on="1"/>
        <pt x="260" y="-145" on="1"/>
        <pt x="260" y="-195" on="0"/>
        <pt x="234" y="-241" on="1"/>
      </contour>
      <contour>
        <pt x="20" y="720" on="1"/>
        <pt x="220" y="720" on="1"/>
        <pt x="220" y="140" on="1"/>
        <pt x="400" y="140" on="1"/>
        <pt x="400" y="0" on="1"/>
        <pt x="20" y="0" on="1"/>
      </contour>
    </TTGlyph>
    <TTGlyph name="Ldot" xMin="20" yMin="0" xMax="400" yMax="720">
      <contour>
        <pt x="260" y="315" on="1"/>
        <pt x="255" y="320" on="1"/>
        <pt x="255" y="450" on="1"/>
        <pt x="260" y="455" on="1"/>
        <pt x="390" y="455" on="1"/>
        <pt x="395" y="450" on="1"/>
        <pt x="395" y="320" on="1"/>
        <pt x="390" y="315" on="1"/>
      </contour>
      <contour>
        <pt x="20" y="720" on="1"/>
        <pt x="220" y="720" on="1"/>
        <pt x="220" y="140" on="1"/>
        <pt x="400" y="140" on="1"/>
        <pt x="400" y="0" on="1"/>
        <pt x="20" y="0" on="1"/>
      </contour>
    </TTGlyph>
    <TTGlyph name="Lslash" xMin="10" yMin="0" xMax="440" yMax="720">
      <contour>
        <pt x="60" y="720" on="1"/>
        <pt x="260" y="720" on="1"/>
        <pt x="260" y="470" on="1"/>
        <pt x="391" y="527" on="1"/>
        <pt x="391" y="374" on="1"/>
        <pt x="260" y="317" on="1"/>
        <pt x="260" y="140" on="1"/>
        <pt x="440" y="140" on="1"/>
        <pt x="440" y="0" on="1"/>
        <pt x="60" y="0" on="1"/>
        <pt x="60" y="230" on="1"/>
        <pt x="10" y="208" on="1"/>
        <pt x="10" y="361" on="1"/>
        <pt x="60" y="383" on="1"/>
      </contour>
    </TTGlyph>
    <TTGlyph name="M" xMin="20" yMin="0" xMax="785" yMax="720">
      <contour>
        <pt x="20" y="720" on="1"/>
        <pt x="200" y="720" on="1"/>
        <pt x="314" y="720" on="0"/>
        <pt x="400" y="623" on="1"/>
        <pt x="486" y="720" on="0"/>
        <pt x="600" y="720" on="1"/>
        <pt x="780" y="720" on="1"/>
        <pt x="780" y="80" on="1"/>
        <pt x="780" y="33" on="0"/>
        <pt x="785" y="0" on="1"/>
        <pt x="615" y="0" on="1"/>
        <pt x="594" y="0" on="0"/>
        <pt x="580" y="56" on="0"/>
        <pt x="580" y="130" on="1"/>
        <pt x="580" y="600" on="1"/>
        <pt x="500" y="600" on="0"/>
        <pt x="500" y="440" on="1"/>
        <pt x="500" y="0" on="1"/>
        <pt x="300" y="0" on="1"/>
        <pt x="300" y="440" on="1"/>
        <pt x="300" y="600" on="0"/>
        <pt x="220" y="600" on="1"/>
        <pt x="220" y="0" on="1"/>
        <pt x="20" y="0" on="1"/>
      </contour>
    </TTGlyph>
    <TTGlyph name="N" xMin="20" yMin="0" xMax="505" yMax="720">
      <contour>
        <pt x="20" y="720" on="1"/>
        <pt x="40" y="720" on="1"/>
        <pt x="196" y="720" on="0"/>
        <pt x="320" y="588" on="1"/>
        <pt x="320" y="720" on="1"/>
        <pt x="500" y="720" on="1"/>
        <pt x="500" y="80" on="1"/>
        <pt x="500" y="33" on="0"/>
        <pt x="505" y="0" on="1"/>
        <pt x="300" y="0" on="1"/>
        <pt x="300" y="230" on="1"/>
        <pt x="300" y="353" on="0"/>
        <pt x="253" y="520" on="0"/>
        <pt x="220" y="520" on="1"/>
        <pt x="220" y="0" on="1"/>
        <pt x="20" y="0" on="1"/>
      </contour>
    </TTGlyph>
    <TTGlyph name="Nacute" xMin="20" yMin="0" xMax="505" yMax="910">
      <contour>
        <pt x="160" y="775" on="1"/>
        <pt x="140" y="850" on="1"/>
        <pt x="340" y="910" on="1"/>
        <pt x="360" y="795" on="1"/>
      </contour>
      <contour>
        <pt x="20" y="720" on="1"/>
        <pt x="40" y="720" on="1"/>
        <pt x="196" y="720" on="0"/>
        <pt x="320" y="588" on="1"/>
        <pt x="320" y="720" on="1"/>
        <pt x="500" y="720" on="1"/>
        <pt x="500" y="80" on="1"/>
        <pt x="500" y="33" on="0"/>
        <pt x="505" y="0" on="1"/>
        <pt x="300" y="0" on="1"/>
        <pt x="300" y="230" on="1"/>
        <pt x="300" y="353" on="0"/>
        <pt x="253" y="520" on="0"/>
        <pt x="220" y="520" on="1"/>
        <pt x="220" y="0" on="1"/>
        <pt x="20" y="0" on="1"/>
      </contour>
    </TTGlyph>
    <TTGlyph name="Ncaron" xMin="20" yMin="0" xMax="505" yMax="910">
      <contour>
        <pt x="90" y="810" on="1"/>
        <pt x="110" y="910" on="1"/>
        <pt x="250" y="849" on="1"/>
        <pt x="390" y="910" on="1"/>
        <pt x="410" y="810" on="1"/>
        <pt x="250" y="775" on="1"/>
      </contour>
      <contour>
        <pt x="20" y="720" on="1"/>
        <pt x="40" y="720" on="1"/>
        <pt x="196" y="720" on="0"/>
        <pt x="320" y="588" on="1"/>
        <pt x="320" y="720" on="1"/>
        <pt x="500" y="720" on="1"/>
        <pt x="500" y="80" on="1"/>
        <pt x="500" y="33" on="0"/>
        <pt x="505" y="0" on="1"/>
        <pt x="300" y="0" on="1"/>
        <pt x="300" y="230" on="1"/>
        <pt x="300" y="353" on="0"/>
        <pt x="253" y="520" on="0"/>
        <pt x="220" y="520" on="1"/>
        <pt x="220" y="0" on="1"/>
        <pt x="20" y="0" on="1"/>
      </contour>
    </TTGlyph>
    <TTGlyph name="Ncommaaccent" xMin="20" yMin="-241" xMax="505" yMax="720">
      <contour>
        <pt x="234" y="-224" on="1"/>
        <pt x="260" y="-187" on="0"/>
        <pt x="260" y="-145" on="1"/>
        <pt x="205" y="-145" on="1"/>
        <pt x="200" y="-140" on="1"/>
        <pt x="200" y="-50" on="1"/>
        <pt x="205" y="-45" on="1"/>
        <pt x="315" y="-45" on="1"/>
        <pt x="320" y="-50" on="1"/>
        <pt x="320" y="-145" on="1"/>
        <pt x="320" y="-195" on="0"/>
        <pt x="294" y="-241" on="1"/>
      </contour>
      <contour>
        <pt x="20" y="720" on="1"/>
        <pt x="40" y="720" on="1"/>
        <pt x="196" y="720" on="0"/>
        <pt x="320" y="588" on="1"/>
        <pt x="320" y="720" on="1"/>
        <pt x="500" y="720" on="1"/>
        <pt x="500" y="80" on="1"/>
        <pt x="500" y="33" on="0"/>
        <pt x="505" y="0" on="1"/>
        <pt x="300" y="0" on="1"/>
        <pt x="300" y="230" on="1"/>
        <pt x="300" y="353" on="0"/>
        <pt x="253" y="520" on="0"/>
        <pt x="220" y="520" on="1"/>
        <pt x="220" y="0" on="1"/>
        <pt x="20" y="0" on="1"/>
      </contour>
    </TTGlyph>
    <TTGlyph name="Ntilde" xMin="20" yMin="0" xMax="505" yMax="905">
      <contour>
        <pt x="157" y="785" on="1"/>
        <pt x="79" y="805" on="1"/>
        <pt x="90" y="845" on="0"/>
        <pt x="151" y="905" on="0"/>
        <pt x="194" y="905" on="1"/>
        <pt x="222" y="905" on="0"/>
        <pt x="310" y="858" on="0"/>
        <pt x="324" y="858" on="1"/>
        <pt x="348" y="858" on="0"/>
        <pt x="359" y="900" on="1"/>
        <pt x="437" y="880" on="1"/>
        <pt x="426" y="838" on="0"/>
        <pt x="363" y="779" on="0"/>
        <pt x="322" y="779" on="1"/>
        <pt x="291" y="779" on="0"/>
        <pt x="203" y="826" on="0"/>
        <pt x="191" y="826" on="1"/>
        <pt x="168" y="826" on="0"/>
      </contour>
      <contour>
        <pt x="20" y="720" on="1"/>
        <pt x="40" y="720" on="1"/>
        <pt x="196" y="720" on="0"/>
        <pt x="320" y="588" on="1"/>
        <pt x="320" y="720" on="1"/>
        <pt x="500" y="720" on="1"/>
        <pt x="500" y="80" on="1"/>
        <pt x="500" y="33" on="0"/>
        <pt x="505" y="0" on="1"/>
        <pt x="300" y="0" on="1"/>
        <pt x="300" y="230" on="1"/>
        <pt x="300" y="353" on="0"/>
        <pt x="253" y="520" on="0"/>
        <pt x="220" y="520" on="1"/>
        <pt x="220" y="0" on="1"/>
        <pt x="20" y="0" on="1"/>
      </contour>
    </TTGlyph>
    <TTGlyph name="O" xMin="15" yMin="-10" xMax="495" yMax="730">
      <contour>
        <pt x="124" y="730" on="0"/>
        <pt x="386" y="730" on="0"/>
        <pt x="495" y="676" on="0"/>
        <pt x="495" y="610" on="1"/>
        <pt x="495" y="110" on="1"/>
        <pt x="495" y="44" on="0"/>
        <pt x="386" y="-10" on="0"/>
        <pt x="124" y="-10" on="0"/>
        <pt x="15" y="44" on="0"/>
        <pt x="15" y="110" on="1"/>
        <pt x="15" y="610" on="1"/>
        <pt x="15" y="676" on="0"/>
      </contour>
      <contour>
        <pt x="295" y="610" on="0"/>
        <pt x="215" y="610" on="0"/>
        <pt x="215" y="560" on="1"/>
        <pt x="215" y="160" on="1"/>
        <pt x="215" y="110" on="0"/>
        <pt x="295" y="110" on="0"/>
        <pt x="295" y="160" on="1"/>
        <pt x="295" y="560" on="1"/>
      </contour>
    </TTGlyph>
    <TTGlyph name="OE" xMin="15" yMin="0" xMax="675" yMax="720">
      <contour>
        <pt x="295" y="580" on="1"/>
        <pt x="255" y="580" on="1"/>
        <pt x="215" y="580" on="0"/>
        <pt x="215" y="530" on="1"/>
        <pt x="215" y="190" on="1"/>
        <pt x="215" y="140" on="0"/>
        <pt x="255" y="140" on="1"/>
        <pt x="295" y="140" on="1"/>
      </contour>
      <contour>
        <pt x="675" y="720" on="1"/>
        <pt x="675" y="580" on="1"/>
        <pt x="495" y="580" on="1"/>
        <pt x="495" y="430" on="1"/>
        <pt x="615" y="430" on="1"/>
        <pt x="615" y="290" on="1"/>
        <pt x="495" y="290" on="1"/>
        <pt x="495" y="140" on="1"/>
        <pt x="675" y="140" on="1"/>
        <pt x="675" y="0" on="1"/>
        <pt x="255" y="0" on="1"/>
        <pt x="138" y="0" on="0"/>
        <pt x="15" y="62" on="0"/>
        <pt x="15" y="120" on="1"/>
        <pt x="15" y="600" on="1"/>
        <pt x="15" y="658" on="0"/>
        <pt x="138" y="720" on="0"/>
        <pt x="255" y="720" on="1"/>
      </contour>
    </TTGlyph>
    <TTGlyph name="Oacute" xMin="15" yMin="-10" xMax="495" yMax="910">
      <contour>
        <pt x="175" y="775" on="1"/>
        <pt x="155" y="850" on="1"/>
        <pt x="355" y="910" on="1"/>
        <pt x="375" y="795" on="1"/>
      </contour>
      <contour>
        <pt x="124" y="730" on="0"/>
        <pt x="386" y="730" on="0"/>
        <pt x="495" y="676" on="0"/>
        <pt x="495" y="610" on="1"/>
        <pt x="495" y="110" on="1"/>
        <pt x="495" y="44" on="0"/>
        <pt x="386" y="-10" on="0"/>
        <pt x="124" y="-10" on="0"/>
        <pt x="15" y="44" on="0"/>
        <pt x="15" y="110" on="1"/>
        <pt x="15" y="610" on="1"/>
        <pt x="15" y="676" on="0"/>
      </contour>
      <contour>
        <pt x="295" y="610" on="0"/>
        <pt x="215" y="610" on="0"/>
        <pt x="215" y="560" on="1"/>
        <pt x="215" y="160" on="1"/>
        <pt x="215" y="110" on="0"/>
        <pt x="295" y="110" on="0"/>
        <pt x="295" y="160" on="1"/>
        <pt x="295" y="560" on="1"/>
      </contour>
    </TTGlyph>
    <TTGlyph name="Obreve" xMin="15" yMin="-10" xMax="495" yMax="910">
      <contour>
        <pt x="255" y="860" on="1"/>
        <pt x="282" y="860" on="0"/>
        <pt x="357" y="885" on="0"/>
        <pt x="381" y="898" on="1"/>
        <pt x="405" y="910" on="1"/>
        <pt x="415" y="810" on="1"/>
        <pt x="335" y="775" on="0"/>
        <pt x="255" y="775" on="1"/>
        <pt x="219" y="775" on="0"/>
        <pt x="139" y="792" on="0"/>
        <pt x="117" y="801" on="1"/>
        <pt x="95" y="810" on="1"/>
        <pt x="105" y="910" on="1"/>
        <pt x="195" y="860" on="0"/>
      </contour>
      <contour>
        <pt x="124" y="730" on="0"/>
        <pt x="386" y="730" on="0"/>
        <pt x="495" y="676" on="0"/>
        <pt x="495" y="610" on="1"/>
        <pt x="495" y="110" on="1"/>
        <pt x="495" y="44" on="0"/>
        <pt x="386" y="-10" on="0"/>
        <pt x="124" y="-10" on="0"/>
        <pt x="15" y="44" on="0"/>
        <pt x="15" y="110" on="1"/>
        <pt x="15" y="610" on="1"/>
        <pt x="15" y="676" on="0"/>
      </contour>
      <contour>
        <pt x="295" y="610" on="0"/>
        <pt x="215" y="610" on="0"/>
        <pt x="215" y="560" on="1"/>
        <pt x="215" y="160" on="1"/>
        <pt x="215" y="110" on="0"/>
        <pt x="295" y="110" on="0"/>
        <pt x="295" y="160" on="1"/>
        <pt x="295" y="560" on="1"/>
      </contour>
    </TTGlyph>
    <TTGlyph name="Ocircumflex" xMin="15" yMin="-10" xMax="495" yMax="905">
      <contour>
        <pt x="115" y="770" on="1"/>
        <pt x="95" y="870" on="1"/>
        <pt x="255" y="905" on="1"/>
        <pt x="415" y="870" on="1"/>
        <pt x="395" y="770" on="1"/>
        <pt x="255" y="831" on="1"/>
      </contour>
      <contour>
        <pt x="124" y="730" on="0"/>
        <pt x="386" y="730" on="0"/>
        <pt x="495" y="676" on="0"/>
        <pt x="495" y="610" on="1"/>
        <pt x="495" y="110" on="1"/>
        <pt x="495" y="44" on="0"/>
        <pt x="386" y="-10" on="0"/>
        <pt x="124" y="-10" on="0"/>
        <pt x="15" y="44" on="0"/>
        <pt x="15" y="110" on="1"/>
        <pt x="15" y="610" on="1"/>
        <pt x="15" y="676" on="0"/>
      </contour>
      <contour>
        <pt x="295" y="610" on="0"/>
        <pt x="215" y="610" on="0"/>
        <pt x="215" y="560" on="1"/>
        <pt x="215" y="160" on="1"/>
        <pt x="215" y="110" on="0"/>
        <pt x="295" y="110" on="0"/>
        <pt x="295" y="160" on="1"/>
        <pt x="295" y="560" on="1"/>
      </contour>
    </TTGlyph>
    <TTGlyph name="Odieresis" xMin="15" yMin="-10" xMax="495" yMax="900">
      <contour>
        <pt x="75" y="785" on="1"/>
        <pt x="75" y="900" on="1"/>
        <pt x="215" y="900" on="1"/>
        <pt x="215" y="785" on="1"/>
      </contour>
      <contour>
        <pt x="295" y="785" on="1"/>
        <pt x="295" y="900" on="1"/>
        <pt x="435" y="900" on="1"/>
        <pt x="435" y="785" on="1"/>
      </contour>
      <contour>
        <pt x="124" y="730" on="0"/>
        <pt x="386" y="730" on="0"/>
        <pt x="495" y="676" on="0"/>
        <pt x="495" y="610" on="1"/>
        <pt x="495" y="110" on="1"/>
        <pt x="495" y="44" on="0"/>
        <pt x="386" y="-10" on="0"/>
        <pt x="124" y="-10" on="0"/>
        <pt x="15" y="44" on="0"/>
        <pt x="15" y="110" on="1"/>
        <pt x="15" y="610" on="1"/>
        <pt x="15" y="676" on="0"/>
      </contour>
      <contour>
        <pt x="295" y="610" on="0"/>
        <pt x="215" y="610" on="0"/>
        <pt x="215" y="560" on="1"/>
        <pt x="215" y="160" on="1"/>
        <pt x="215" y="110" on="0"/>
        <pt x="295" y="110" on="0"/>
        <pt x="295" y="160" on="1"/>
        <pt x="295" y="560" on="1"/>
      </contour>
    </TTGlyph>
    <TTGlyph name="Ograve" xMin="15" yMin="-10" xMax="495" yMax="910">
      <contour>
        <pt x="335" y="775" on="1"/>
        <pt x="135" y="795" on="1"/>
        <pt x="155" y="910" on="1"/>
        <pt x="355" y="850" on="1"/>
      </contour>
      <contour>
        <pt x="124" y="730" on="0"/>
        <pt x="386" y="730" on="0"/>
        <pt x="495" y="676" on="0"/>
        <pt x="495" y="610" on="1"/>
        <pt x="495" y="110" on="1"/>
        <pt x="495" y="44" on="0"/>
        <pt x="386" y="-10" on="0"/>
        <pt x="124" y="-10" on="0"/>
        <pt x="15" y="44" on="0"/>
        <pt x="15" y="110" on="1"/>
        <pt x="15" y="610" on="1"/>
        <pt x="15" y="676" on="0"/>
      </contour>
      <contour>
        <pt x="295" y="610" on="0"/>
        <pt x="215" y="610" on="0"/>
        <pt x="215" y="560" on="1"/>
        <pt x="215" y="160" on="1"/>
        <pt x="215" y="110" on="0"/>
        <pt x="295" y="110" on="0"/>
        <pt x="295" y="160" on="1"/>
        <pt x="295" y="560" on="1"/>
      </contour>
    </TTGlyph>
    <TTGlyph name="Ohungarumlaut" xMin="15" yMin="-10" xMax="495" yMax="910">
      <contour>
        <pt x="75" y="775" on="1"/>
        <pt x="55" y="845" on="1"/>
        <pt x="215" y="910" on="1"/>
        <pt x="235" y="800" on="1"/>
      </contour>
      <contour>
        <pt x="295" y="775" on="1"/>
        <pt x="275" y="845" on="1"/>
        <pt x="435" y="910" on="1"/>
        <pt x="455" y="800" on="1"/>
      </contour>
      <contour>
        <pt x="124" y="730" on="0"/>
        <pt x="386" y="730" on="0"/>
        <pt x="495" y="676" on="0"/>
        <pt x="495" y="610" on="1"/>
        <pt x="495" y="110" on="1"/>
        <pt x="495" y="44" on="0"/>
        <pt x="386" y="-10" on="0"/>
        <pt x="124" y="-10" on="0"/>
        <pt x="15" y="44" on="0"/>
        <pt x="15" y="110" on="1"/>
        <pt x="15" y="610" on="1"/>
        <pt x="15" y="676" on="0"/>
      </contour>
      <contour>
        <pt x="295" y="610" on="0"/>
        <pt x="215" y="610" on="0"/>
        <pt x="215" y="560" on="1"/>
        <pt x="215" y="160" on="1"/>
        <pt x="215" y="110" on="0"/>
        <pt x="295" y="110" on="0"/>
        <pt x="295" y="160" on="1"/>
        <pt x="295" y="560" on="1"/>
      </contour>
    </TTGlyph>
    <TTGlyph name="Omacron" xMin="15" yMin="-10" xMax="495" yMax="890">
      <contour>
        <pt x="425" y="810" on="1"/>
        <pt x="85" y="810" on="1"/>
        <pt x="85" y="890" on="1"/>
        <pt x="425" y="890" on="1"/>
      </contour>
      <contour>
        <pt x="124" y="730" on="0"/>
        <pt x="386" y="730" on="0"/>
        <pt x="495" y="676" on="0"/>
        <pt x="495" y="610" on="1"/>
        <pt x="495" y="110" on="1"/>
        <pt x="495" y="44" on="0"/>
        <pt x="386" y="-10" on="0"/>
        <pt x="124" y="-10" on="0"/>
        <pt x="15" y="44" on="0"/>
        <pt x="15" y="110" on="1"/>
        <pt x="15" y="610" on="1"/>
        <pt x="15" y="676" on="0"/>
      </contour>
      <contour>
        <pt x="295" y="610" on="0"/>
        <pt x="215" y="610" on="0"/>
        <pt x="215" y="560" on="1"/>
        <pt x="215" y="160" on="1"/>
        <pt x="215" y="110" on="0"/>
        <pt x="295" y="110" on="0"/>
        <pt x="295" y="160" on="1"/>
        <pt x="295" y="560" on="1"/>
      </contour>
    </TTGlyph>
    <TTGlyph name="Omega" xMin="20" yMin="0" xMax="500" yMax="730">
      <contour>
        <pt x="25" y="0" on="1"/>
        <pt x="25" y="120" on="1"/>
        <pt x="130" y="120" on="1"/>
        <pt x="120" y="192" on="1"/>
        <pt x="67" y="204" on="0"/>
        <pt x="20" y="256" on="0"/>
        <pt x="20" y="300" on="1"/>
        <pt x="20" y="610" on="1"/>
        <pt x="20" y="676" on="0"/>
        <pt x="129" y="730" on="0"/>
        <pt x="391" y="730" on="0"/>
        <pt x="500" y="676" on="0"/>
        <pt x="500" y="610" on="1"/>
        <pt x="500" y="300" on="1"/>
        <pt x="500" y="256" on="0"/>
        <pt x="453" y="204" on="0"/>
        <pt x="400" y="192" on="1"/>
        <pt x="390" y="120" on="1"/>
        <pt x="495" y="120" on="1"/>
        <pt x="495" y="0" on="1"/>
        <pt x="290" y="0" on="1"/>
        <pt x="300" y="240" on="1"/>
        <pt x="300" y="560" on="1"/>
        <pt x="300" y="610" on="0"/>
        <pt x="220" y="610" on="0"/>
        <pt x="220" y="560" on="1"/>
        <pt x="220" y="240" on="1"/>
        <pt x="230" y="0" on="1"/>
      </contour>
    </TTGlyph>
    <TTGlyph name="Oslash" xMin="15" yMin="-49" xMax="495" yMax="769">
      <contour>
        <pt x="295" y="610" on="0"/>
        <pt x="215" y="610" on="0"/>
        <pt x="215" y="560" on="1"/>
        <pt x="215" y="340" on="1"/>
        <pt x="295" y="494" on="1"/>
        <pt x="295" y="560" on="1"/>
      </contour>
      <contour>
        <pt x="255" y="730" on="1"/>
        <pt x="360" y="730" on="0"/>
        <pt x="410" y="715" on="1"/>
        <pt x="438" y="769" on="1"/>
        <pt x="474" y="751" on="1"/>
        <pt x="447" y="699" on="1"/>
        <pt x="495" y="672" on="0"/>
        <pt x="495" y="610" on="1"/>
        <pt x="495" y="110" on="1"/>
        <pt x="495" y="44" on="0"/>
        <pt x="386" y="-10" on="0"/>
        <pt x="255" y="-10" on="1"/>
        <pt x="144" y="-10" on="0"/>
        <pt x="88" y="9" on="1"/>
        <pt x="58" y="-49" on="1"/>
        <pt x="22" y="-31" on="1"/>
        <pt x="52" y="27" on="1"/>
        <pt x="15" y="54" on="0"/>
        <pt x="15" y="110" on="1"/>
        <pt x="15" y="610" on="1"/>
        <pt x="15" y="676" on="0"/>
        <pt x="124" y="730" on="0"/>
      </contour>
      <contour>
        <pt x="215" y="110" on="0"/>
        <pt x="295" y="110" on="0"/>
        <pt x="295" y="160" on="1"/>
        <pt x="295" y="407" on="1"/>
        <pt x="215" y="253" on="1"/>
        <pt x="215" y="160" on="1"/>
      </contour>
    </TTGlyph>
    <TTGlyph name="Otilde" xMin="15" yMin="-10" xMax="495" yMax="905">
      <contour>
        <pt x="162" y="785" on="1"/>
        <pt x="84" y="805" on="1"/>
        <pt x="95" y="845" on="0"/>
        <pt x="156" y="905" on="0"/>
        <pt x="199" y="905" on="1"/>
        <pt x="228" y="905" on="0"/>
        <pt x="316" y="858" on="0"/>
        <pt x="329" y="858" on="1"/>
        <pt x="353" y="858" on="0"/>
        <pt x="364" y="900" on="1"/>
        <pt x="442" y="880" on="1"/>
        <pt x="431" y="838" on="0"/>
        <pt x="368" y="779" on="0"/>
        <pt x="327" y="779" on="1"/>
        <pt x="296" y="779" on="0"/>
        <pt x="208" y="826" on="0"/>
        <pt x="196" y="826" on="1"/>
        <pt x="173" y="826" on="0"/>
      </contour>
      <contour>
        <pt x="124" y="730" on="0"/>
        <pt x="386" y="730" on="0"/>
        <pt x="495" y="676" on="0"/>
        <pt x="495" y="610" on="1"/>
        <pt x="495" y="110" on="1"/>
        <pt x="495" y="44" on="0"/>
        <pt x="386" y="-10" on="0"/>
        <pt x="124" y="-10" on="0"/>
        <pt x="15" y="44" on="0"/>
        <pt x="15" y="110" on="1"/>
        <pt x="15" y="610" on="1"/>
        <pt x="15" y="676" on="0"/>
      </contour>
      <contour>
        <pt x="295" y="610" on="0"/>
        <pt x="215" y="610" on="0"/>
        <pt x="215" y="560" on="1"/>
        <pt x="215" y="160" on="1"/>
        <pt x="215" y="110" on="0"/>
        <pt x="295" y="110" on="0"/>
        <pt x="295" y="160" on="1"/>
        <pt x="295" y="560" on="1"/>
      </contour>
    </TTGlyph>
    <TTGlyph name="P" xMin="20" yMin="0" xMax="500" yMax="720">
      <contour>
        <pt x="220" y="600" on="1"/>
        <pt x="220" y="340" on="1"/>
        <pt x="260" y="340" on="1"/>
        <pt x="300" y="340" on="0"/>
        <pt x="300" y="390" on="1"/>
        <pt x="300" y="550" on="1"/>
        <pt x="300" y="600" on="0"/>
        <pt x="260" y="600" on="1"/>
      </contour>
      <contour>
        <pt x="20" y="720" on="1"/>
        <pt x="260" y="720" on="1"/>
        <pt x="391" y="720" on="0"/>
        <pt x="500" y="666" on="0"/>
        <pt x="500" y="600" on="1"/>
        <pt x="500" y="340" on="1"/>
        <pt x="500" y="274" on="0"/>
        <pt x="391" y="220" on="0"/>
        <pt x="260" y="220" on="1"/>
        <pt x="220" y="220" on="1"/>
        <pt x="220" y="0" on="1"/>
        <pt x="20" y="0" on="1"/>
      </contour>
    </TTGlyph>
    <TTGlyph name="Q" xMin="15" yMin="-210" xMax="495" yMax="730">
      <contour>
        <pt x="295" y="610" on="0"/>
        <pt x="215" y="610" on="0"/>
        <pt x="215" y="560" on="1"/>
        <pt x="215" y="160" on="1"/>
        <pt x="215" y="110" on="0"/>
        <pt x="295" y="110" on="0"/>
        <pt x="295" y="160" on="1"/>
        <pt x="295" y="560" on="1"/>
      </contour>
      <contour>
        <pt x="138" y="730" on="0"/>
        <pt x="372" y="730" on="0"/>
        <pt x="495" y="668" on="0"/>
        <pt x="495" y="610" on="1"/>
        <pt x="495" y="110" on="1"/>
        <pt x="495" y="60" on="0"/>
        <pt x="403" y="0" on="0"/>
        <pt x="315" y="-8" on="1"/>
        <pt x="315" y="-20" on="1"/>
        <pt x="315" y="-70" on="0"/>
        <pt x="365" y="-70" on="1"/>
        <pt x="420" y="-70" on="1"/>
        <pt x="420" y="-210" on="1"/>
        <pt x="330" y="-210" on="1"/>
        <pt x="264" y="-210" on="0"/>
        <pt x="195" y="-118" on="0"/>
        <pt x="195" y="-30" on="1"/>
        <pt x="195" y="-8" on="1"/>
        <pt x="107" y="0" on="0"/>
        <pt x="15" y="60" on="0"/>
        <pt x="15" y="110" on="1"/>
        <pt x="15" y="610" on="1"/>
        <pt x="15" y="668" on="0"/>
      </contour>
    </TTGlyph>
    <TTGlyph name="R" xMin="20" yMin="0" xMax="505" yMax="720">
      <contour>
        <pt x="220" y="600" on="1"/>
        <pt x="220" y="400" on="1"/>
        <pt x="260" y="400" on="1"/>
        <pt x="300" y="400" on="0"/>
        <pt x="300" y="450" on="1"/>
        <pt x="300" y="550" on="1"/>
        <pt x="300" y="600" on="0"/>
        <pt x="260" y="600" on="1"/>
      </contour>
      <contour>
        <pt x="20" y="720" on="1"/>
        <pt x="250" y="720" on="1"/>
        <pt x="381" y="720" on="0"/>
        <pt x="490" y="666" on="0"/>
        <pt x="490" y="600" on="1"/>
        <pt x="490" y="460" on="1"/>
        <pt x="490" y="412" on="0"/>
        <pt x="434" y="358" on="0"/>
        <pt x="370" y="348" on="1"/>
        <pt x="423" y="333" on="0"/>
        <pt x="500" y="260" on="0"/>
        <pt x="500" y="220" on="1"/>
        <pt x="500" y="80" on="1"/>
        <pt x="500" y="33" on="0"/>
        <pt x="505" y="0" on="1"/>
        <pt x="335" y="0" on="1"/>
        <pt x="314" y="0" on="0"/>
        <pt x="300" y="56" on="0"/>
        <pt x="300" y="130" on="1"/>
        <pt x="300" y="230" on="1"/>
        <pt x="300" y="252" on="0"/>
        <pt x="282" y="280" on="0"/>
        <pt x="268" y="280" on="1"/>
        <pt x="220" y="280" on="1"/>
        <pt x="220" y="0" on="1"/>
        <pt x="20" y="0" on="1"/>
      </contour>
    </TTGlyph>
    <TTGlyph name="Racute" xMin="20" yMin="0" xMax="505" yMax="910">
      <contour>
        <pt x="155" y="775" on="1"/>
        <pt x="135" y="850" on="1"/>
        <pt x="335" y="910" on="1"/>
        <pt x="355" y="795" on="1"/>
      </contour>
      <contour>
        <pt x="220" y="600" on="1"/>
        <pt x="220" y="400" on="1"/>
        <pt x="260" y="400" on="1"/>
        <pt x="300" y="400" on="0"/>
        <pt x="300" y="450" on="1"/>
        <pt x="300" y="550" on="1"/>
        <pt x="300" y="600" on="0"/>
        <pt x="260" y="600" on="1"/>
      </contour>
      <contour>
        <pt x="20" y="720" on="1"/>
        <pt x="250" y="720" on="1"/>
        <pt x="381" y="720" on="0"/>
        <pt x="490" y="666" on="0"/>
        <pt x="490" y="600" on="1"/>
        <pt x="490" y="460" on="1"/>
        <pt x="490" y="412" on="0"/>
        <pt x="434" y="358" on="0"/>
        <pt x="370" y="348" on="1"/>
        <pt x="423" y="333" on="0"/>
        <pt x="500" y="260" on="0"/>
        <pt x="500" y="220" on="1"/>
        <pt x="500" y="80" on="1"/>
        <pt x="500" y="33" on="0"/>
        <pt x="505" y="0" on="1"/>
        <pt x="335" y="0" on="1"/>
        <pt x="314" y="0" on="0"/>
        <pt x="300" y="56" on="0"/>
        <pt x="300" y="130" on="1"/>
        <pt x="300" y="230" on="1"/>
        <pt x="300" y="252" on="0"/>
        <pt x="282" y="280" on="0"/>
        <pt x="268" y="280" on="1"/>
        <pt x="220" y="280" on="1"/>
        <pt x="220" y="0" on="1"/>
        <pt x="20" y="0" on="1"/>
      </contour>
    </TTGlyph>
    <TTGlyph name="Rcaron" xMin="20" yMin="0" xMax="505" yMax="910">
      <contour>
        <pt x="85" y="810" on="1"/>
        <pt x="105" y="910" on="1"/>
        <pt x="245" y="849" on="1"/>
        <pt x="385" y="910" on="1"/>
        <pt x="405" y="810" on="1"/>
        <pt x="245" y="775" on="1"/>
      </contour>
      <contour>
        <pt x="220" y="600" on="1"/>
        <pt x="220" y="400" on="1"/>
        <pt x="260" y="400" on="1"/>
        <pt x="300" y="400" on="0"/>
        <pt x="300" y="450" on="1"/>
        <pt x="300" y="550" on="1"/>
        <pt x="300" y="600" on="0"/>
        <pt x="260" y="600" on="1"/>
      </contour>
      <contour>
        <pt x="20" y="720" on="1"/>
        <pt x="250" y="720" on="1"/>
        <pt x="381" y="720" on="0"/>
        <pt x="490" y="666" on="0"/>
        <pt x="490" y="600" on="1"/>
        <pt x="490" y="460" on="1"/>
        <pt x="490" y="412" on="0"/>
        <pt x="434" y="358" on="0"/>
        <pt x="370" y="348" on="1"/>
        <pt x="423" y="333" on="0"/>
        <pt x="500" y="260" on="0"/>
        <pt x="500" y="220" on="1"/>
        <pt x="500" y="80" on="1"/>
        <pt x="500" y="33" on="0"/>
        <pt x="505" y="0" on="1"/>
        <pt x="335" y="0" on="1"/>
        <pt x="314" y="0" on="0"/>
        <pt x="300" y="56" on="0"/>
        <pt x="300" y="130" on="1"/>
        <pt x="300" y="230" on="1"/>
        <pt x="300" y="252" on="0"/>
        <pt x="282" y="280" on="0"/>
        <pt x="268" y="280" on="1"/>
        <pt x="220" y="280" on="1"/>
        <pt x="220" y="0" on="1"/>
        <pt x="20" y="0" on="1"/>
      </contour>
    </TTGlyph>
    <TTGlyph name="Rcommaaccent" xMin="20" yMin="-241" xMax="505" yMax="720">
      <contour>
        <pt x="234" y="-224" on="1"/>
        <pt x="260" y="-187" on="0"/>
        <pt x="260" y="-145" on="1"/>
        <pt x="205" y="-145" on="1"/>
        <pt x="200" y="-140" on="1"/>
        <pt x="200" y="-50" on="1"/>
        <pt x="205" y="-45" on="1"/>
        <pt x="315" y="-45" on="1"/>
        <pt x="320" y="-50" on="1"/>
        <pt x="320" y="-145" on="1"/>
        <pt x="320" y="-195" on="0"/>
        <pt x="294" y="-241" on="1"/>
      </contour>
      <contour>
        <pt x="220" y="600" on="1"/>
        <pt x="220" y="400" on="1"/>
        <pt x="260" y="400" on="1"/>
        <pt x="300" y="400" on="0"/>
        <pt x="300" y="450" on="1"/>
        <pt x="300" y="550" on="1"/>
        <pt x="300" y="600" on="0"/>
        <pt x="260" y="600" on="1"/>
      </contour>
      <contour>
        <pt x="20" y="720" on="1"/>
        <pt x="250" y="720" on="1"/>
        <pt x="381" y="720" on="0"/>
        <pt x="490" y="666" on="0"/>
        <pt x="490" y="600" on="1"/>
        <pt x="490" y="460" on="1"/>
        <pt x="490" y="412" on="0"/>
        <pt x="434" y="358" on="0"/>
        <pt x="370" y="348" on="1"/>
        <pt x="423" y="333" on="0"/>
        <pt x="500" y="260" on="0"/>
        <pt x="500" y="220" on="1"/>
        <pt x="500" y="80" on="1"/>
        <pt x="500" y="33" on="0"/>
        <pt x="505" y="0" on="1"/>
        <pt x="335" y="0" on="1"/>
        <pt x="314" y="0" on="0"/>
        <pt x="300" y="56" on="0"/>
        <pt x="300" y="130" on="1"/>
        <pt x="300" y="230" on="1"/>
        <pt x="300" y="252" on="0"/>
        <pt x="282" y="280" on="0"/>
        <pt x="268" y="280" on="1"/>
        <pt x="220" y="280" on="1"/>
        <pt x="220" y="0" on="1"/>
        <pt x="20" y="0" on="1"/>
      </contour>
    </TTGlyph>
    <TTGlyph name="S" xMin="15" yMin="-10" xMax="485" yMax="730">
      <contour>
        <pt x="475" y="520" on="1"/>
        <pt x="315" y="520" on="1"/>
        <pt x="315" y="580" on="1"/>
        <pt x="315" y="610" on="0"/>
        <pt x="195" y="610" on="0"/>
        <pt x="195" y="570" on="1"/>
        <pt x="195" y="540" on="0"/>
        <pt x="255" y="475" on="0"/>
        <pt x="340" y="418" on="0"/>
        <pt x="425" y="358" on="0"/>
        <pt x="485" y="286" on="0"/>
        <pt x="485" y="250" on="1"/>
        <pt x="485" y="110" on="1"/>
        <pt x="485" y="44" on="0"/>
        <pt x="379" y="-10" on="0"/>
        <pt x="250" y="-10" on="1"/>
        <pt x="15" y="-10" on="0"/>
        <pt x="15" y="90" on="1"/>
        <pt x="15" y="210" on="1"/>
        <pt x="175" y="210" on="1"/>
        <pt x="175" y="150" on="1"/>
        <pt x="175" y="110" on="0"/>
        <pt x="305" y="110" on="0"/>
        <pt x="305" y="160" on="1"/>
        <pt x="305" y="190" on="0"/>
        <pt x="247" y="256" on="0"/>
        <pt x="165" y="315" on="0"/>
        <pt x="83" y="376" on="0"/>
        <pt x="25" y="449" on="0"/>
        <pt x="25" y="485" on="1"/>
        <pt x="25" y="610" on="1"/>
        <pt x="25" y="676" on="0"/>
        <pt x="127" y="730" on="0"/>
        <pt x="373" y="730" on="0"/>
        <pt x="475" y="685" on="0"/>
        <pt x="475" y="630" on="1"/>
      </contour>
    </TTGlyph>
    <TTGlyph name="Sacute" xMin="15" yMin="-10" xMax="485" yMax="910">
      <contour>
        <pt x="155" y="775" on="1"/>
        <pt x="135" y="850" on="1"/>
        <pt x="335" y="910" on="1"/>
        <pt x="355" y="795" on="1"/>
      </contour>
      <contour>
        <pt x="475" y="520" on="1"/>
        <pt x="315" y="520" on="1"/>
        <pt x="315" y="580" on="1"/>
        <pt x="315" y="610" on="0"/>
        <pt x="195" y="610" on="0"/>
        <pt x="195" y="570" on="1"/>
        <pt x="195" y="540" on="0"/>
        <pt x="255" y="475" on="0"/>
        <pt x="340" y="418" on="0"/>
        <pt x="425" y="358" on="0"/>
        <pt x="485" y="286" on="0"/>
        <pt x="485" y="250" on="1"/>
        <pt x="485" y="110" on="1"/>
        <pt x="485" y="44" on="0"/>
        <pt x="379" y="-10" on="0"/>
        <pt x="250" y="-10" on="1"/>
        <pt x="15" y="-10" on="0"/>
        <pt x="15" y="90" on="1"/>
        <pt x="15" y="210" on="1"/>
        <pt x="175" y="210" on="1"/>
        <pt x="175" y="150" on="1"/>
        <pt x="175" y="110" on="0"/>
        <pt x="305" y="110" on="0"/>
        <pt x="305" y="160" on="1"/>
        <pt x="305" y="190" on="0"/>
        <pt x="247" y="256" on="0"/>
        <pt x="165" y="315" on="0"/>
        <pt x="83" y="376" on="0"/>
        <pt x="25" y="449" on="0"/>
        <pt x="25" y="485" on="1"/>
        <pt x="25" y="610" on="1"/>
        <pt x="25" y="676" on="0"/>
        <pt x="127" y="730" on="0"/>
        <pt x="373" y="730" on="0"/>
        <pt x="475" y="685" on="0"/>
        <pt x="475" y="630" on="1"/>
      </contour>
    </TTGlyph>
    <TTGlyph name="Scaron" xMin="15" yMin="-10" xMax="485" yMax="910">
      <contour>
        <pt x="85" y="810" on="1"/>
        <pt x="105" y="910" on="1"/>
        <pt x="245" y="849" on="1"/>
        <pt x="385" y="910" on="1"/>
        <pt x="405" y="810" on="1"/>
        <pt x="245" y="775" on="1"/>
      </contour>
      <contour>
        <pt x="475" y="520" on="1"/>
        <pt x="315" y="520" on="1"/>
        <pt x="315" y="580" on="1"/>
        <pt x="315" y="610" on="0"/>
        <pt x="195" y="610" on="0"/>
        <pt x="195" y="570" on="1"/>
        <pt x="195" y="540" on="0"/>
        <pt x="255" y="475" on="0"/>
        <pt x="340" y="418" on="0"/>
        <pt x="425" y="358" on="0"/>
        <pt x="485" y="286" on="0"/>
        <pt x="485" y="250" on="1"/>
        <pt x="485" y="110" on="1"/>
        <pt x="485" y="44" on="0"/>
        <pt x="379" y="-10" on="0"/>
        <pt x="250" y="-10" on="1"/>
        <pt x="15" y="-10" on="0"/>
        <pt x="15" y="90" on="1"/>
        <pt x="15" y="210" on="1"/>
        <pt x="175" y="210" on="1"/>
        <pt x="175" y="150" on="1"/>
        <pt x="175" y="110" on="0"/>
        <pt x="305" y="110" on="0"/>
        <pt x="305" y="160" on="1"/>
        <pt x="305" y="190" on="0"/>
        <pt x="247" y="256" on="0"/>
        <pt x="165" y="315" on="0"/>
        <pt x="83" y="376" on="0"/>
        <pt x="25" y="449" on="0"/>
        <pt x="25" y="485" on="1"/>
        <pt x="25" y="610" on="1"/>
        <pt x="25" y="676" on="0"/>
        <pt x="127" y="730" on="0"/>
        <pt x="373" y="730" on="0"/>
        <pt x="475" y="685" on="0"/>
        <pt x="475" y="630" on="1"/>
      </contour>
    </TTGlyph>
    <TTGlyph name="Scedilla" xMin="15" yMin="-240" xMax="485" yMax="730">
      <contour>
        <pt x="475" y="520" on="1"/>
        <pt x="315" y="520" on="1"/>
        <pt x="315" y="580" on="1"/>
        <pt x="315" y="610" on="0"/>
        <pt x="195" y="610" on="0"/>
        <pt x="195" y="570" on="1"/>
        <pt x="195" y="540" on="0"/>
        <pt x="255" y="475" on="0"/>
        <pt x="340" y="418" on="0"/>
        <pt x="425" y="358" on="0"/>
        <pt x="485" y="286" on="0"/>
        <pt x="485" y="250" on="1"/>
        <pt x="485" y="110" on="1"/>
        <pt x="485" y="44" on="0"/>
        <pt x="379" y="-10" on="0"/>
        <pt x="250" y="-10" on="1"/>
        <pt x="237" y="-10" on="1"/>
        <pt x="226" y="-66" on="1"/>
        <pt x="247" y="-48" on="0"/>
        <pt x="292" y="-48" on="1"/>
        <pt x="366" y="-48" on="0"/>
        <pt x="366" y="-96" on="1"/>
        <pt x="366" y="-192" on="1"/>
        <pt x="366" y="-218" on="0"/>
        <pt x="316" y="-240" on="0"/>
        <pt x="256" y="-240" on="1"/>
        <pt x="200" y="-240" on="0"/>
        <pt x="154" y="-220" on="0"/>
        <pt x="154" y="-196" on="1"/>
        <pt x="154" y="-159" on="1"/>
        <pt x="226" y="-159" on="1"/>
        <pt x="226" y="-172" on="1"/>
        <pt x="226" y="-192" on="0"/>
        <pt x="286" y="-192" on="0"/>
        <pt x="286" y="-172" on="1"/>
        <pt x="286" y="-128" on="1"/>
        <pt x="286" y="-108" on="0"/>
        <pt x="255" y="-108" on="1"/>
        <pt x="240" y="-108" on="0"/>
        <pt x="226" y="-120" on="1"/>
        <pt x="154" y="-120" on="1"/>
        <pt x="171" y="-6" on="1"/>
        <pt x="15" y="11" on="0"/>
        <pt x="15" y="90" on="1"/>
        <pt x="15" y="210" on="1"/>
        <pt x="175" y="210" on="1"/>
        <pt x="175" y="150" on="1"/>
        <pt x="175" y="110" on="0"/>
        <pt x="305" y="110" on="0"/>
        <pt x="305" y="160" on="1"/>
        <pt x="305" y="190" on="0"/>
        <pt x="247" y="256" on="0"/>
        <pt x="165" y="315" on="0"/>
        <pt x="83" y="376" on="0"/>
        <pt x="25" y="449" on="0"/>
        <pt x="25" y="485" on="1"/>
        <pt x="25" y="610" on="1"/>
        <pt x="25" y="676" on="0"/>
        <pt x="127" y="730" on="0"/>
        <pt x="373" y="730" on="0"/>
        <pt x="475" y="685" on="0"/>
        <pt x="475" y="630" on="1"/>
      </contour>
    </TTGlyph>
    <TTGlyph name="Scircumflex" xMin="15" yMin="-10" xMax="485" yMax="905">
      <contour>
        <pt x="105" y="770" on="1"/>
        <pt x="85" y="870" on="1"/>
        <pt x="245" y="905" on="1"/>
        <pt x="405" y="870" on="1"/>
        <pt x="385" y="770" on="1"/>
        <pt x="245" y="831" on="1"/>
      </contour>
      <contour>
        <pt x="475" y="520" on="1"/>
        <pt x="315" y="520" on="1"/>
        <pt x="315" y="580" on="1"/>
        <pt x="315" y="610" on="0"/>
        <pt x="195" y="610" on="0"/>
        <pt x="195" y="570" on="1"/>
        <pt x="195" y="540" on="0"/>
        <pt x="255" y="475" on="0"/>
        <pt x="340" y="418" on="0"/>
        <pt x="425" y="358" on="0"/>
        <pt x="485" y="286" on="0"/>
        <pt x="485" y="250" on="1"/>
        <pt x="485" y="110" on="1"/>
        <pt x="485" y="44" on="0"/>
        <pt x="379" y="-10" on="0"/>
        <pt x="250" y="-10" on="1"/>
        <pt x="15" y="-10" on="0"/>
        <pt x="15" y="90" on="1"/>
        <pt x="15" y="210" on="1"/>
        <pt x="175" y="210" on="1"/>
        <pt x="175" y="150" on="1"/>
        <pt x="175" y="110" on="0"/>
        <pt x="305" y="110" on="0"/>
        <pt x="305" y="160" on="1"/>
        <pt x="305" y="190" on="0"/>
        <pt x="247" y="256" on="0"/>
        <pt x="165" y="315" on="0"/>
        <pt x="83" y="376" on="0"/>
        <pt x="25" y="449" on="0"/>
        <pt x="25" y="485" on="1"/>
        <pt x="25" y="610" on="1"/>
        <pt x="25" y="676" on="0"/>
        <pt x="127" y="730" on="0"/>
        <pt x="373" y="730" on="0"/>
        <pt x="475" y="685" on="0"/>
        <pt x="475" y="630" on="1"/>
      </contour>
    </TTGlyph>
    <TTGlyph name="Scommaaccent" xMin="15" yMin="-241" xMax="485" yMax="730">
      <contour>
        <pt x="224" y="-224" on="1"/>
        <pt x="250" y="-187" on="0"/>
        <pt x="250" y="-145" on="1"/>
        <pt x="195" y="-145" on="1"/>
        <pt x="190" y="-140" on="1"/>
        <pt x="190" y="-50" on="1"/>
        <pt x="195" y="-45" on="1"/>
        <pt x="305" y="-45" on="1"/>
        <pt x="310" y="-50" on="1"/>
        <pt x="310" y="-145" on="1"/>
        <pt x="310" y="-195" on="0"/>
        <pt x="284" y="-241" on="1"/>
      </contour>
      <contour>
        <pt x="475" y="520" on="1"/>
        <pt x="315" y="520" on="1"/>
        <pt x="315" y="580" on="1"/>
        <pt x="315" y="610" on="0"/>
        <pt x="195" y="610" on="0"/>
        <pt x="195" y="570" on="1"/>
        <pt x="195" y="540" on="0"/>
        <pt x="255" y="475" on="0"/>
        <pt x="340" y="418" on="0"/>
        <pt x="425" y="358" on="0"/>
        <pt x="485" y="286" on="0"/>
        <pt x="485" y="250" on="1"/>
        <pt x="485" y="110" on="1"/>
        <pt x="485" y="44" on="0"/>
        <pt x="379" y="-10" on="0"/>
        <pt x="250" y="-10" on="1"/>
        <pt x="15" y="-10" on="0"/>
        <pt x="15" y="90" on="1"/>
        <pt x="15" y="210" on="1"/>
        <pt x="175" y="210" on="1"/>
        <pt x="175" y="150" on="1"/>
        <pt x="175" y="110" on="0"/>
        <pt x="305" y="110" on="0"/>
        <pt x="305" y="160" on="1"/>
        <pt x="305" y="190" on="0"/>
        <pt x="247" y="256" on="0"/>
        <pt x="165" y="315" on="0"/>
        <pt x="83" y="376" on="0"/>
        <pt x="25" y="449" on="0"/>
        <pt x="25" y="485" on="1"/>
        <pt x="25" y="610" on="1"/>
        <pt x="25" y="676" on="0"/>
        <pt x="127" y="730" on="0"/>
        <pt x="373" y="730" on="0"/>
        <pt x="475" y="685" on="0"/>
        <pt x="475" y="630" on="1"/>
      </contour>
    </TTGlyph>
    <TTGlyph name="T" xMin="10" yMin="0" xMax="490" yMax="720">
      <contour>
        <pt x="10" y="720" on="1"/>
        <pt x="490" y="720" on="1"/>
        <pt x="490" y="580" on="1"/>
        <pt x="350" y="580" on="1"/>
        <pt x="350" y="0" on="1"/>
        <pt x="150" y="0" on="1"/>
        <pt x="150" y="580" on="1"/>
        <pt x="10" y="580" on="1"/>
      </contour>
    </TTGlyph>
    <TTGlyph name="Tbar" xMin="10" yMin="0" xMax="490" yMax="720">
      <contour>
        <pt x="10" y="720" on="1"/>
        <pt x="490" y="720" on="1"/>
        <pt x="490" y="600" on="1"/>
        <pt x="350" y="600" on="1"/>
        <pt x="350" y="500" on="1"/>
        <pt x="420" y="500" on="1"/>
        <pt x="420" y="420" on="1"/>
        <pt x="350" y="420" on="1"/>
        <pt x="350" y="0" on="1"/>
        <pt x="150" y="0" on="1"/>
        <pt x="150" y="420" on="1"/>
        <pt x="80" y="420" on="1"/>
        <pt x="80" y="500" on="1"/>
        <pt x="150" y="500" on="1"/>
        <pt x="150" y="600" on="1"/>
        <pt x="10" y="600" on="1"/>
      </contour>
    </TTGlyph>
    <TTGlyph name="Tcaron" xMin="10" yMin="0" xMax="490" yMax="910">
      <contour>
        <pt x="90" y="810" on="1"/>
        <pt x="110" y="910" on="1"/>
        <pt x="250" y="849" on="1"/>
        <pt x="390" y="910" on="1"/>
        <pt x="410" y="810" on="1"/>
        <pt x="250" y="775" on="1"/>
      </contour>
      <contour>
        <pt x="10" y="720" on="1"/>
        <pt x="490" y="720" on="1"/>
        <pt x="490" y="580" on="1"/>
        <pt x="350" y="580" on="1"/>
        <pt x="350" y="0" on="1"/>
        <pt x="150" y="0" on="1"/>
        <pt x="150" y="580" on="1"/>
        <pt x="10" y="580" on="1"/>
      </contour>
    </TTGlyph>
    <TTGlyph name="Tcommaaccent" xMin="10" yMin="-240" xMax="490" yMax="720">
      <contour>
        <pt x="10" y="720" on="1"/>
        <pt x="490" y="720" on="1"/>
        <pt x="490" y="580" on="1"/>
        <pt x="350" y="580" on="1"/>
        <pt x="350" y="0" on="1"/>
        <pt x="248" y="0" on="1"/>
        <pt x="236" y="-66" on="1"/>
        <pt x="257" y="-48" on="0"/>
        <pt x="302" y="-48" on="1"/>
        <pt x="376" y="-48" on="0"/>
        <pt x="376" y="-96" on="1"/>
        <pt x="376" y="-192" on="1"/>
        <pt x="376" y="-218" on="0"/>
        <pt x="326" y="-240" on="0"/>
        <pt x="266" y="-240" on="1"/>
        <pt x="210" y="-240" on="0"/>
        <pt x="164" y="-220" on="0"/>
        <pt x="164" y="-196" on="1"/>
        <pt x="164" y="-159" on="1"/>
        <pt x="236" y="-159" on="1"/>
        <pt x="236" y="-172" on="1"/>
        <pt x="236" y="-192" on="0"/>
        <pt x="296" y="-192" on="0"/>
        <pt x="296" y="-172" on="1"/>
        <pt x="296" y="-128" on="1"/>
        <pt x="296" y="-108" on="0"/>
        <pt x="265" y="-108" on="1"/>
        <pt x="250" y="-108" on="0"/>
        <pt x="236" y="-120" on="1"/>
        <pt x="164" y="-120" on="1"/>
        <pt x="182" y="0" on="1"/>
        <pt x="150" y="0" on="1"/>
        <pt x="150" y="580" on="1"/>
        <pt x="10" y="580" on="1"/>
      </contour>
    </TTGlyph>
    <TTGlyph name="Thorn" xMin="20" yMin="0" xMax="500" yMax="720">
      <contour>
        <pt x="20" y="720" on="1"/>
        <pt x="220" y="720" on="1"/>
        <pt x="220" y="640" on="1"/>
        <pt x="260" y="640" on="1"/>
        <pt x="391" y="640" on="0"/>
        <pt x="500" y="586" on="0"/>
        <pt x="500" y="520" on="1"/>
        <pt x="500" y="280" on="1"/>
        <pt x="500" y="214" on="0"/>
        <pt x="391" y="160" on="0"/>
        <pt x="260" y="160" on="1"/>
        <pt x="220" y="160" on="1"/>
        <pt x="220" y="0" on="1"/>
        <pt x="20" y="0" on="1"/>
      </contour>
      <contour>
        <pt x="220" y="280" on="1"/>
        <pt x="260" y="280" on="1"/>
        <pt x="300" y="280" on="0"/>
        <pt x="300" y="330" on="1"/>
        <pt x="300" y="470" on="1"/>
        <pt x="300" y="520" on="0"/>
        <pt x="260" y="520" on="1"/>
        <pt x="220" y="520" on="1"/>
      </contour>
    </TTGlyph>
    <TTGlyph name="U" xMin="15" yMin="-10" xMax="495" yMax="720">
      <contour>
        <pt x="15" y="720" on="1"/>
        <pt x="215" y="720" on="1"/>
        <pt x="215" y="160" on="1"/>
        <pt x="215" y="110" on="0"/>
        <pt x="295" y="110" on="0"/>
        <pt x="295" y="160" on="1"/>
        <pt x="295" y="720" on="1"/>
        <pt x="495" y="720" on="1"/>
        <pt x="495" y="110" on="1"/>
        <pt x="495" y="44" on="0"/>
        <pt x="386" y="-10" on="0"/>
        <pt x="124" y="-10" on="0"/>
        <pt x="15" y="44" on="0"/>
        <pt x="15" y="110" on="1"/>
      </contour>
    </TTGlyph>
    <TTGlyph name="Uacute" xMin="15" yMin="-10" xMax="495" yMax="910">
      <contour>
        <pt x="175" y="775" on="1"/>
        <pt x="155" y="850" on="1"/>
        <pt x="355" y="910" on="1"/>
        <pt x="375" y="795" on="1"/>
      </contour>
      <contour>
        <pt x="15" y="720" on="1"/>
        <pt x="215" y="720" on="1"/>
        <pt x="215" y="160" on="1"/>
        <pt x="215" y="110" on="0"/>
        <pt x="295" y="110" on="0"/>
        <pt x="295" y="160" on="1"/>
        <pt x="295" y="720" on="1"/>
        <pt x="495" y="720" on="1"/>
        <pt x="495" y="110" on="1"/>
        <pt x="495" y="44" on="0"/>
        <pt x="386" y="-10" on="0"/>
        <pt x="124" y="-10" on="0"/>
        <pt x="15" y="44" on="0"/>
        <pt x="15" y="110" on="1"/>
      </contour>
    </TTGlyph>
    <TTGlyph name="Ubreve" xMin="15" yMin="-10" xMax="495" yMax="910">
      <contour>
        <pt x="255" y="860" on="1"/>
        <pt x="282" y="860" on="0"/>
        <pt x="357" y="885" on="0"/>
        <pt x="381" y="898" on="1"/>
        <pt x="405" y="910" on="1"/>
        <pt x="415" y="810" on="1"/>
        <pt x="335" y="775" on="0"/>
        <pt x="255" y="775" on="1"/>
        <pt x="219" y="775" on="0"/>
        <pt x="139" y="792" on="0"/>
        <pt x="117" y="801" on="1"/>
        <pt x="95" y="810" on="1"/>
        <pt x="105" y="910" on="1"/>
        <pt x="195" y="860" on="0"/>
      </contour>
      <contour>
        <pt x="15" y="720" on="1"/>
        <pt x="215" y="720" on="1"/>
        <pt x="215" y="160" on="1"/>
        <pt x="215" y="110" on="0"/>
        <pt x="295" y="110" on="0"/>
        <pt x="295" y="160" on="1"/>
        <pt x="295" y="720" on="1"/>
        <pt x="495" y="720" on="1"/>
        <pt x="495" y="110" on="1"/>
        <pt x="495" y="44" on="0"/>
        <pt x="386" y="-10" on="0"/>
        <pt x="124" y="-10" on="0"/>
        <pt x="15" y="44" on="0"/>
        <pt x="15" y="110" on="1"/>
      </contour>
    </TTGlyph>
    <TTGlyph name="Ucircumflex" xMin="15" yMin="-10" xMax="495" yMax="905">
      <contour>
        <pt x="115" y="770" on="1"/>
        <pt x="95" y="870" on="1"/>
        <pt x="255" y="905" on="1"/>
        <pt x="415" y="870" on="1"/>
        <pt x="395" y="770" on="1"/>
        <pt x="255" y="831" on="1"/>
      </contour>
      <contour>
        <pt x="15" y="720" on="1"/>
        <pt x="215" y="720" on="1"/>
        <pt x="215" y="160" on="1"/>
        <pt x="215" y="110" on="0"/>
        <pt x="295" y="110" on="0"/>
        <pt x="295" y="160" on="1"/>
        <pt x="295" y="720" on="1"/>
        <pt x="495" y="720" on="1"/>
        <pt x="495" y="110" on="1"/>
        <pt x="495" y="44" on="0"/>
        <pt x="386" y="-10" on="0"/>
        <pt x="124" y="-10" on="0"/>
        <pt x="15" y="44" on="0"/>
        <pt x="15" y="110" on="1"/>
      </contour>
    </TTGlyph>
    <TTGlyph name="Udieresis" xMin="15" yMin="-10" xMax="495" yMax="900">
      <contour>
        <pt x="75" y="785" on="1"/>
        <pt x="75" y="900" on="1"/>
        <pt x="215" y="900" on="1"/>
        <pt x="215" y="785" on="1"/>
      </contour>
      <contour>
        <pt x="295" y="785" on="1"/>
        <pt x="295" y="900" on="1"/>
        <pt x="435" y="900" on="1"/>
        <pt x="435" y="785" on="1"/>
      </contour>
      <contour>
        <pt x="15" y="720" on="1"/>
        <pt x="215" y="720" on="1"/>
        <pt x="215" y="160" on="1"/>
        <pt x="215" y="110" on="0"/>
        <pt x="295" y="110" on="0"/>
        <pt x="295" y="160" on="1"/>
        <pt x="295" y="720" on="1"/>
        <pt x="495" y="720" on="1"/>
        <pt x="495" y="110" on="1"/>
        <pt x="495" y="44" on="0"/>
        <pt x="386" y="-10" on="0"/>
        <pt x="124" y="-10" on="0"/>
        <pt x="15" y="44" on="0"/>
        <pt x="15" y="110" on="1"/>
      </contour>
    </TTGlyph>
    <TTGlyph name="Ugrave" xMin="15" yMin="-10" xMax="495" yMax="910">
      <contour>
        <pt x="335" y="775" on="1"/>
        <pt x="135" y="795" on="1"/>
        <pt x="155" y="910" on="1"/>
        <pt x="355" y="850" on="1"/>
      </contour>
      <contour>
        <pt x="15" y="720" on="1"/>
        <pt x="215" y="720" on="1"/>
        <pt x="215" y="160" on="1"/>
        <pt x="215" y="110" on="0"/>
        <pt x="295" y="110" on="0"/>
        <pt x="295" y="160" on="1"/>
        <pt x="295" y="720" on="1"/>
        <pt x="495" y="720" on="1"/>
        <pt x="495" y="110" on="1"/>
        <pt x="495" y="44" on="0"/>
        <pt x="386" y="-10" on="0"/>
        <pt x="124" y="-10" on="0"/>
        <pt x="15" y="44" on="0"/>
        <pt x="15" y="110" on="1"/>
      </contour>
    </TTGlyph>
    <TTGlyph name="Uhungarumlaut" xMin="15" yMin="-10" xMax="495" yMax="910">
      <contour>
        <pt x="75" y="775" on="1"/>
        <pt x="55" y="845" on="1"/>
        <pt x="215" y="910" on="1"/>
        <pt x="235" y="800" on="1"/>
      </contour>
      <contour>
        <pt x="295" y="775" on="1"/>
        <pt x="275" y="845" on="1"/>
        <pt x="435" y="910" on="1"/>
        <pt x="455" y="800" on="1"/>
      </contour>
      <contour>
        <pt x="15" y="720" on="1"/>
        <pt x="215" y="720" on="1"/>
        <pt x="215" y="160" on="1"/>
        <pt x="215" y="110" on="0"/>
        <pt x="295" y="110" on="0"/>
        <pt x="295" y="160" on="1"/>
        <pt x="295" y="720" on="1"/>
        <pt x="495" y="720" on="1"/>
        <pt x="495" y="110" on="1"/>
        <pt x="495" y="44" on="0"/>
        <pt x="386" y="-10" on="0"/>
        <pt x="124" y="-10" on="0"/>
        <pt x="15" y="44" on="0"/>
        <pt x="15" y="110" on="1"/>
      </contour>
    </TTGlyph>
    <TTGlyph name="Umacron" xMin="15" yMin="-10" xMax="495" yMax="890">
      <contour>
        <pt x="425" y="810" on="1"/>
        <pt x="85" y="810" on="1"/>
        <pt x="85" y="890" on="1"/>
        <pt x="425" y="890" on="1"/>
      </contour>
      <contour>
        <pt x="15" y="720" on="1"/>
        <pt x="215" y="720" on="1"/>
        <pt x="215" y="160" on="1"/>
        <pt x="215" y="110" on="0"/>
        <pt x="295" y="110" on="0"/>
        <pt x="295" y="160" on="1"/>
        <pt x="295" y="720" on="1"/>
        <pt x="495" y="720" on="1"/>
        <pt x="495" y="110" on="1"/>
        <pt x="495" y="44" on="0"/>
        <pt x="386" y="-10" on="0"/>
        <pt x="124" y="-10" on="0"/>
        <pt x="15" y="44" on="0"/>
        <pt x="15" y="110" on="1"/>
      </contour>
    </TTGlyph>
    <TTGlyph name="Uogonek" xMin="15" yMin="-240" xMax="495" yMax="720">
      <contour>
        <pt x="370" y="-223" on="1"/>
        <pt x="341" y="-240" on="0"/>
        <pt x="307" y="-240" on="1"/>
        <pt x="245" y="-240" on="0"/>
        <pt x="168" y="-182" on="0"/>
        <pt x="168" y="-134" on="1"/>
        <pt x="168" y="-85" on="0"/>
        <pt x="207" y="-49" on="1"/>
        <pt x="221" y="-36" on="0"/>
        <pt x="272" y="-10" on="1"/>
        <pt x="255" y="-10" on="1"/>
        <pt x="124" y="-10" on="0"/>
        <pt x="15" y="44" on="0"/>
        <pt x="15" y="110" on="1"/>
        <pt x="15" y="720" on="1"/>
        <pt x="215" y="720" on="1"/>
        <pt x="215" y="160" on="1"/>
        <pt x="215" y="110" on="0"/>
        <pt x="295" y="110" on="0"/>
        <pt x="295" y="160" on="1"/>
        <pt x="295" y="720" on="1"/>
        <pt x="495" y="720" on="1"/>
        <pt x="495" y="110" on="1"/>
        <pt x="495" y="84" on="0"/>
        <pt x="481" y="47" on="0"/>
        <pt x="449" y="23" on="0"/>
        <pt x="422" y="9" on="0"/>
        <pt x="399" y="1" on="1"/>
        <pt x="344" y="-18" on="0"/>
        <pt x="281" y="-63" on="0"/>
        <pt x="281" y="-99" on="1"/>
        <pt x="281" y="-120" on="0"/>
        <pt x="305" y="-120" on="1"/>
        <pt x="317" y="-120" on="0"/>
        <pt x="328" y="-113" on="1"/>
      </contour>
    </TTGlyph>
    <TTGlyph name="Uring" xMin="15" yMin="-10" xMax="495" yMax="960">
      <contour>
        <pt x="255" y="960" on="1"/>
        <pt x="302" y="960" on="0"/>
        <pt x="365" y="895" on="0"/>
        <pt x="365" y="850" on="1"/>
        <pt x="365" y="803" on="0"/>
        <pt x="300" y="740" on="0"/>
        <pt x="255" y="740" on="1"/>
        <pt x="208" y="740" on="0"/>
        <pt x="145" y="805" on="0"/>
        <pt x="145" y="850" on="1"/>
        <pt x="145" y="897" on="0"/>
        <pt x="210" y="960" on="0"/>
      </contour>
      <contour>
        <pt x="255" y="900" on="1"/>
        <pt x="233" y="900" on="0"/>
        <pt x="205" y="870" on="0"/>
        <pt x="205" y="850" on="1"/>
        <pt x="205" y="828" on="0"/>
        <pt x="235" y="800" on="0"/>
        <pt x="255" y="800" on="1"/>
        <pt x="277" y="800" on="0"/>
        <pt x="305" y="830" on="0"/>
        <pt x="305" y="850" on="1"/>
        <pt x="305" y="872" on="0"/>
        <pt x="275" y="900" on="0"/>
      </contour>
      <contour>
        <pt x="15" y="720" on="1"/>
        <pt x="215" y="720" on="1"/>
        <pt x="215" y="160" on="1"/>
        <pt x="215" y="110" on="0"/>
        <pt x="295" y="110" on="0"/>
        <pt x="295" y="160" on="1"/>
        <pt x="295" y="720" on="1"/>
        <pt x="495" y="720" on="1"/>
        <pt x="495" y="110" on="1"/>
        <pt x="495" y="44" on="0"/>
        <pt x="386" y="-10" on="0"/>
        <pt x="124" y="-10" on="0"/>
        <pt x="15" y="44" on="0"/>
        <pt x="15" y="110" on="1"/>
      </contour>
    </TTGlyph>
    <TTGlyph name="Utilde" xMin="15" yMin="-10" xMax="495" yMax="905">
      <contour>
        <pt x="162" y="785" on="1"/>
        <pt x="84" y="805" on="1"/>
        <pt x="95" y="845" on="0"/>
        <pt x="156" y="905" on="0"/>
        <pt x="199" y="905" on="1"/>
        <pt x="228" y="905" on="0"/>
        <pt x="316" y="858" on="0"/>
        <pt x="329" y="858" on="1"/>
        <pt x="353" y="858" on="0"/>
        <pt x="364" y="900" on="1"/>
        <pt x="442" y="880" on="1"/>
        <pt x="431" y="838" on="0"/>
        <pt x="368" y="779" on="0"/>
        <pt x="327" y="779" on="1"/>
        <pt x="296" y="779" on="0"/>
        <pt x="208" y="826" on="0"/>
        <pt x="196" y="826" on="1"/>
        <pt x="173" y="826" on="0"/>
      </contour>
      <contour>
        <pt x="15" y="720" on="1"/>
        <pt x="215" y="720" on="1"/>
        <pt x="215" y="160" on="1"/>
        <pt x="215" y="110" on="0"/>
        <pt x="295" y="110" on="0"/>
        <pt x="295" y="160" on="1"/>
        <pt x="295" y="720" on="1"/>
        <pt x="495" y="720" on="1"/>
        <pt x="495" y="110" on="1"/>
        <pt x="495" y="44" on="0"/>
        <pt x="386" y="-10" on="0"/>
        <pt x="124" y="-10" on="0"/>
        <pt x="15" y="44" on="0"/>
        <pt x="15" y="110" on="1"/>
      </contour>
    </TTGlyph>
    <TTGlyph name="V" xMin="15" yMin="0" xMax="495" yMax="720">
      <contour>
        <pt x="15" y="720" on="1"/>
        <pt x="215" y="720" on="1"/>
        <pt x="215" y="398" on="1"/>
        <pt x="215" y="336" on="0"/>
        <pt x="242" y="147" on="0"/>
        <pt x="255" y="120" on="1"/>
        <pt x="268" y="147" on="0"/>
        <pt x="295" y="335" on="0"/>
        <pt x="295" y="398" on="1"/>
        <pt x="295" y="720" on="1"/>
        <pt x="495" y="720" on="1"/>
        <pt x="495" y="460" on="1"/>
        <pt x="495" y="380" on="0"/>
        <pt x="425" y="150" on="0"/>
        <pt x="390" y="75" on="1"/>
        <pt x="355" y="0" on="1"/>
        <pt x="155" y="0" on="1"/>
        <pt x="149" y="11" on="0"/>
        <pt x="130" y="51" on="0"/>
        <pt x="82" y="167" on="0"/>
        <pt x="45" y="275" on="0"/>
        <pt x="15" y="410" on="0"/>
        <pt x="15" y="460" on="1"/>
      </contour>
    </TTGlyph>
    <TTGlyph name="W" xMin="15" yMin="0" xMax="775" yMax="720">
      <contour>
        <pt x="245" y="120" on="1"/>
        <pt x="260" y="150" on="0"/>
        <pt x="295" y="337" on="0"/>
        <pt x="295" y="408" on="1"/>
        <pt x="295" y="700" on="1"/>
        <pt x="495" y="700" on="1"/>
        <pt x="495" y="408" on="1"/>
        <pt x="495" y="338" on="0"/>
        <pt x="530" y="151" on="0"/>
        <pt x="545" y="120" on="1"/>
        <pt x="557" y="144" on="0"/>
        <pt x="575" y="342" on="0"/>
        <pt x="575" y="388" on="1"/>
        <pt x="575" y="720" on="1"/>
        <pt x="775" y="720" on="1"/>
        <pt x="775" y="450" on="1"/>
        <pt x="775" y="379" on="0"/>
        <pt x="705" y="154" on="0"/>
        <pt x="670" y="77" on="1"/>
        <pt x="635" y="0" on="1"/>
        <pt x="495" y="0" on="1"/>
        <pt x="427" y="87" on="0"/>
        <pt x="395" y="154" on="1"/>
        <pt x="381" y="125" on="0"/>
        <pt x="331" y="48" on="0"/>
        <pt x="313" y="24" on="1"/>
        <pt x="295" y="0" on="1"/>
        <pt x="155" y="0" on="1"/>
        <pt x="149" y="12" on="0"/>
        <pt x="130" y="53" on="0"/>
        <pt x="82" y="170" on="0"/>
        <pt x="45" y="277" on="0"/>
        <pt x="15" y="405" on="0"/>
        <pt x="15" y="450" on="1"/>
        <pt x="15" y="720" on="1"/>
        <pt x="215" y="720" on="1"/>
        <pt x="215" y="388" on="1"/>
        <pt x="215" y="344" on="0"/>
        <pt x="234" y="144" on="0"/>
      </contour>
    </TTGlyph>
    <TTGlyph name="Wacute" xMin="15" yMin="0" xMax="775" yMax="890">
      <contour>
        <pt x="305" y="755" on="1"/>
        <pt x="285" y="830" on="1"/>
        <pt x="485" y="890" on="1"/>
        <pt x="505" y="775" on="1"/>
      </contour>
      <contour>
        <pt x="245" y="120" on="1"/>
        <pt x="260" y="150" on="0"/>
        <pt x="295" y="337" on="0"/>
        <pt x="295" y="408" on="1"/>
        <pt x="295" y="700" on="1"/>
        <pt x="495" y="700" on="1"/>
        <pt x="495" y="408" on="1"/>
        <pt x="495" y="338" on="0"/>
        <pt x="530" y="151" on="0"/>
        <pt x="545" y="120" on="1"/>
        <pt x="557" y="144" on="0"/>
        <pt x="575" y="342" on="0"/>
        <pt x="575" y="388" on="1"/>
        <pt x="575" y="720" on="1"/>
        <pt x="775" y="720" on="1"/>
        <pt x="775" y="450" on="1"/>
        <pt x="775" y="379" on="0"/>
        <pt x="705" y="154" on="0"/>
        <pt x="670" y="77" on="1"/>
        <pt x="635" y="0" on="1"/>
        <pt x="495" y="0" on="1"/>
        <pt x="427" y="87" on="0"/>
        <pt x="395" y="154" on="1"/>
        <pt x="381" y="125" on="0"/>
        <pt x="331" y="48" on="0"/>
        <pt x="313" y="24" on="1"/>
        <pt x="295" y="0" on="1"/>
        <pt x="155" y="0" on="1"/>
        <pt x="149" y="12" on="0"/>
        <pt x="130" y="53" on="0"/>
        <pt x="82" y="170" on="0"/>
        <pt x="45" y="277" on="0"/>
        <pt x="15" y="405" on="0"/>
        <pt x="15" y="450" on="1"/>
        <pt x="15" y="720" on="1"/>
        <pt x="215" y="720" on="1"/>
        <pt x="215" y="388" on="1"/>
        <pt x="215" y="344" on="0"/>
        <pt x="234" y="144" on="0"/>
      </contour>
    </TTGlyph>
    <TTGlyph name="Wcircumflex" xMin="15" yMin="0" xMax="775" yMax="905">
      <contour>
        <pt x="255" y="770" on="1"/>
        <pt x="235" y="870" on="1"/>
        <pt x="395" y="905" on="1"/>
        <pt x="555" y="870" on="1"/>
        <pt x="535" y="770" on="1"/>
        <pt x="395" y="831" on="1"/>
      </contour>
      <contour>
        <pt x="245" y="120" on="1"/>
        <pt x="260" y="150" on="0"/>
        <pt x="295" y="337" on="0"/>
        <pt x="295" y="408" on="1"/>
        <pt x="295" y="700" on="1"/>
        <pt x="495" y="700" on="1"/>
        <pt x="495" y="408" on="1"/>
        <pt x="495" y="338" on="0"/>
        <pt x="530" y="151" on="0"/>
        <pt x="545" y="120" on="1"/>
        <pt x="557" y="144" on="0"/>
        <pt x="575" y="342" on="0"/>
        <pt x="575" y="388" on="1"/>
        <pt x="575" y="720" on="1"/>
        <pt x="775" y="720" on="1"/>
        <pt x="775" y="450" on="1"/>
        <pt x="775" y="379" on="0"/>
        <pt x="705" y="154" on="0"/>
        <pt x="670" y="77" on="1"/>
        <pt x="635" y="0" on="1"/>
        <pt x="495" y="0" on="1"/>
        <pt x="427" y="87" on="0"/>
        <pt x="395" y="154" on="1"/>
        <pt x="381" y="125" on="0"/>
        <pt x="331" y="48" on="0"/>
        <pt x="313" y="24" on="1"/>
        <pt x="295" y="0" on="1"/>
        <pt x="155" y="0" on="1"/>
        <pt x="149" y="12" on="0"/>
        <pt x="130" y="53" on="0"/>
        <pt x="82" y="170" on="0"/>
        <pt x="45" y="277" on="0"/>
        <pt x="15" y="405" on="0"/>
        <pt x="15" y="450" on="1"/>
        <pt x="15" y="720" on="1"/>
        <pt x="215" y="720" on="1"/>
        <pt x="215" y="388" on="1"/>
        <pt x="215" y="344" on="0"/>
        <pt x="234" y="144" on="0"/>
      </contour>
    </TTGlyph>
    <TTGlyph name="Wdieresis" xMin="15" yMin="0" xMax="775" yMax="900">
      <contour>
        <pt x="215" y="785" on="1"/>
        <pt x="215" y="900" on="1"/>
        <pt x="355" y="900" on="1"/>
        <pt x="355" y="785" on="1"/>
      </contour>
      <contour>
        <pt x="435" y="785" on="1"/>
        <pt x="435" y="900" on="1"/>
        <pt x="575" y="900" on="1"/>
        <pt x="575" y="785" on="1"/>
      </contour>
      <contour>
        <pt x="245" y="120" on="1"/>
        <pt x="260" y="150" on="0"/>
        <pt x="295" y="337" on="0"/>
        <pt x="295" y="408" on="1"/>
        <pt x="295" y="700" on="1"/>
        <pt x="495" y="700" on="1"/>
        <pt x="495" y="408" on="1"/>
        <pt x="495" y="338" on="0"/>
        <pt x="530" y="151" on="0"/>
        <pt x="545" y="120" on="1"/>
        <pt x="557" y="144" on="0"/>
        <pt x="575" y="342" on="0"/>
        <pt x="575" y="388" on="1"/>
        <pt x="575" y="720" on="1"/>
        <pt x="775" y="720" on="1"/>
        <pt x="775" y="450" on="1"/>
        <pt x="775" y="379" on="0"/>
        <pt x="705" y="154" on="0"/>
        <pt x="670" y="77" on="1"/>
        <pt x="635" y="0" on="1"/>
        <pt x="495" y="0" on="1"/>
        <pt x="427" y="87" on="0"/>
        <pt x="395" y="154" on="1"/>
        <pt x="381" y="125" on="0"/>
        <pt x="331" y="48" on="0"/>
        <pt x="313" y="24" on="1"/>
        <pt x="295" y="0" on="1"/>
        <pt x="155" y="0" on="1"/>
        <pt x="149" y="12" on="0"/>
        <pt x="130" y="53" on="0"/>
        <pt x="82" y="170" on="0"/>
        <pt x="45" y="277" on="0"/>
        <pt x="15" y="405" on="0"/>
        <pt x="15" y="450" on="1"/>
        <pt x="15" y="720" on="1"/>
        <pt x="215" y="720" on="1"/>
        <pt x="215" y="388" on="1"/>
        <pt x="215" y="344" on="0"/>
        <pt x="234" y="144" on="0"/>
      </contour>
    </TTGlyph>
    <TTGlyph name="Wgrave" xMin="15" yMin="0" xMax="775" yMax="890">
      <contour>
        <pt x="485" y="755" on="1"/>
        <pt x="285" y="775" on="1"/>
        <pt x="305" y="890" on="1"/>
        <pt x="505" y="830" on="1"/>
      </contour>
      <contour>
        <pt x="245" y="120" on="1"/>
        <pt x="260" y="150" on="0"/>
        <pt x="295" y="337" on="0"/>
        <pt x="295" y="408" on="1"/>
        <pt x="295" y="700" on="1"/>
        <pt x="495" y="700" on="1"/>
        <pt x="495" y="408" on="1"/>
        <pt x="495" y="338" on="0"/>
        <pt x="530" y="151" on="0"/>
        <pt x="545" y="120" on="1"/>
        <pt x="557" y="144" on="0"/>
        <pt x="575" y="342" on="0"/>
        <pt x="575" y="388" on="1"/>
        <pt x="575" y="720" on="1"/>
        <pt x="775" y="720" on="1"/>
        <pt x="775" y="450" on="1"/>
        <pt x="775" y="379" on="0"/>
        <pt x="705" y="154" on="0"/>
        <pt x="670" y="77" on="1"/>
        <pt x="635" y="0" on="1"/>
        <pt x="495" y="0" on="1"/>
        <pt x="427" y="87" on="0"/>
        <pt x="395" y="154" on="1"/>
        <pt x="381" y="125" on="0"/>
        <pt x="331" y="48" on="0"/>
        <pt x="313" y="24" on="1"/>
        <pt x="295" y="0" on="1"/>
        <pt x="155" y="0" on="1"/>
        <pt x="149" y="12" on="0"/>
        <pt x="130" y="53" on="0"/>
        <pt x="82" y="170" on="0"/>
        <pt x="45" y="277" on="0"/>
        <pt x="15" y="405" on="0"/>
        <pt x="15" y="450" on="1"/>
        <pt x="15" y="720" on="1"/>
        <pt x="215" y="720" on="1"/>
        <pt x="215" y="388" on="1"/>
        <pt x="215" y="344" on="0"/>
        <pt x="234" y="144" on="0"/>
      </contour>
    </TTGlyph>
    <TTGlyph name="X" xMin="15" yMin="0" xMax="500" yMax="720">
      <contour>
        <pt x="255" y="440" on="1"/>
        <pt x="295" y="520" on="0"/>
        <pt x="295" y="578" on="1"/>
        <pt x="295" y="720" on="1"/>
        <pt x="485" y="720" on="1"/>
        <pt x="485" y="590" on="1"/>
        <pt x="485" y="487" on="0"/>
        <pt x="377" y="370" on="1"/>
        <pt x="495" y="261" on="0"/>
        <pt x="495" y="160" on="1"/>
        <pt x="495" y="33" on="0"/>
        <pt x="500" y="0" on="1"/>
        <pt x="330" y="0" on="1"/>
        <pt x="321" y="0" on="0"/>
        <pt x="308" y="24" on="0"/>
        <pt x="302" y="67" on="0"/>
        <pt x="299" y="107" on="0"/>
        <pt x="296" y="158" on="0"/>
        <pt x="295" y="169" on="1"/>
        <pt x="292" y="197" on="0"/>
        <pt x="270" y="284" on="0"/>
        <pt x="255" y="310" on="1"/>
        <pt x="215" y="225" on="0"/>
        <pt x="215" y="162" on="1"/>
        <pt x="215" y="0" on="1"/>
        <pt x="15" y="0" on="1"/>
        <pt x="15" y="160" on="1"/>
        <pt x="15" y="260" on="0"/>
        <pt x="120" y="370" on="1"/>
        <pt x="25" y="488" on="0"/>
        <pt x="25" y="590" on="1"/>
        <pt x="25" y="720" on="1"/>
        <pt x="215" y="720" on="1"/>
        <pt x="215" y="578" on="1"/>
        <pt x="215" y="525" on="0"/>
      </contour>
    </TTGlyph>
    <TTGlyph name="Y" xMin="15" yMin="0" xMax="495" yMax="720">
      <contour>
        <pt x="15" y="720" on="1"/>
        <pt x="215" y="720" on="1"/>
        <pt x="215" y="498" on="1"/>
        <pt x="215" y="468" on="0"/>
        <pt x="241" y="369" on="0"/>
        <pt x="255" y="340" on="1"/>
        <pt x="269" y="368" on="0"/>
        <pt x="295" y="468" on="0"/>
        <pt x="295" y="498" on="1"/>
        <pt x="295" y="720" on="1"/>
        <pt x="495" y="720" on="1"/>
        <pt x="495" y="560" on="1"/>
        <pt x="495" y="498" on="0"/>
        <pt x="425" y="348" on="0"/>
        <pt x="390" y="304" on="1"/>
        <pt x="355" y="260" on="1"/>
        <pt x="355" y="0" on="1"/>
        <pt x="155" y="0" on="1"/>
        <pt x="155" y="260" on="1"/>
        <pt x="149" y="267" on="0"/>
        <pt x="130" y="290" on="0"/>
        <pt x="82" y="360" on="0"/>
        <pt x="45" y="429" on="0"/>
        <pt x="15" y="521" on="0"/>
        <pt x="15" y="560" on="1"/>
      </contour>
    </TTGlyph>
    <TTGlyph name="Yacute" xMin="15" yMin="0" xMax="495" yMax="890">
      <contour>
        <pt x="165" y="755" on="1"/>
        <pt x="145" y="830" on="1"/>
        <pt x="345" y="890" on="1"/>
        <pt x="365" y="775" on="1"/>
      </contour>
      <contour>
        <pt x="15" y="720" on="1"/>
        <pt x="215" y="720" on="1"/>
        <pt x="215" y="498" on="1"/>
        <pt x="215" y="468" on="0"/>
        <pt x="241" y="369" on="0"/>
        <pt x="255" y="340" on="1"/>
        <pt x="269" y="368" on="0"/>
        <pt x="295" y="468" on="0"/>
        <pt x="295" y="498" on="1"/>
        <pt x="295" y="720" on="1"/>
        <pt x="495" y="720" on="1"/>
        <pt x="495" y="560" on="1"/>
        <pt x="495" y="498" on="0"/>
        <pt x="425" y="348" on="0"/>
        <pt x="390" y="304" on="1"/>
        <pt x="355" y="260" on="1"/>
        <pt x="355" y="0" on="1"/>
        <pt x="155" y="0" on="1"/>
        <pt x="155" y="260" on="1"/>
        <pt x="149" y="267" on="0"/>
        <pt x="130" y="290" on="0"/>
        <pt x="82" y="360" on="0"/>
        <pt x="45" y="429" on="0"/>
        <pt x="15" y="521" on="0"/>
        <pt x="15" y="560" on="1"/>
      </contour>
    </TTGlyph>
    <TTGlyph name="Ycircumflex" xMin="15" yMin="0" xMax="495" yMax="905">
      <contour>
        <pt x="115" y="770" on="1"/>
        <pt x="95" y="870" on="1"/>
        <pt x="255" y="905" on="1"/>
        <pt x="415" y="870" on="1"/>
        <pt x="395" y="770" on="1"/>
        <pt x="255" y="831" on="1"/>
      </contour>
      <contour>
        <pt x="15" y="720" on="1"/>
        <pt x="215" y="720" on="1"/>
        <pt x="215" y="498" on="1"/>
        <pt x="215" y="468" on="0"/>
        <pt x="241" y="369" on="0"/>
        <pt x="255" y="340" on="1"/>
        <pt x="269" y="368" on="0"/>
        <pt x="295" y="468" on="0"/>
        <pt x="295" y="498" on="1"/>
        <pt x="295" y="720" on="1"/>
        <pt x="495" y="720" on="1"/>
        <pt x="495" y="560" on="1"/>
        <pt x="495" y="498" on="0"/>
        <pt x="425" y="348" on="0"/>
        <pt x="390" y="304" on="1"/>
        <pt x="355" y="260" on="1"/>
        <pt x="355" y="0" on="1"/>
        <pt x="155" y="0" on="1"/>
        <pt x="155" y="260" on="1"/>
        <pt x="149" y="267" on="0"/>
        <pt x="130" y="290" on="0"/>
        <pt x="82" y="360" on="0"/>
        <pt x="45" y="429" on="0"/>
        <pt x="15" y="521" on="0"/>
        <pt x="15" y="560" on="1"/>
      </contour>
    </TTGlyph>
    <TTGlyph name="Ydieresis" xMin="15" yMin="0" xMax="495" yMax="900">
      <contour>
        <pt x="75" y="785" on="1"/>
        <pt x="75" y="900" on="1"/>
        <pt x="215" y="900" on="1"/>
        <pt x="215" y="785" on="1"/>
      </contour>
      <contour>
        <pt x="295" y="785" on="1"/>
        <pt x="295" y="900" on="1"/>
        <pt x="435" y="900" on="1"/>
        <pt x="435" y="785" on="1"/>
      </contour>
      <contour>
        <pt x="15" y="720" on="1"/>
        <pt x="215" y="720" on="1"/>
        <pt x="215" y="498" on="1"/>
        <pt x="215" y="468" on="0"/>
        <pt x="241" y="369" on="0"/>
        <pt x="255" y="340" on="1"/>
        <pt x="269" y="368" on="0"/>
        <pt x="295" y="468" on="0"/>
        <pt x="295" y="498" on="1"/>
        <pt x="295" y="720" on="1"/>
        <pt x="495" y="720" on="1"/>
        <pt x="495" y="560" on="1"/>
        <pt x="495" y="498" on="0"/>
        <pt x="425" y="348" on="0"/>
        <pt x="390" y="304" on="1"/>
        <pt x="355" y="260" on="1"/>
        <pt x="355" y="0" on="1"/>
        <pt x="155" y="0" on="1"/>
        <pt x="155" y="260" on="1"/>
        <pt x="149" y="267" on="0"/>
        <pt x="130" y="290" on="0"/>
        <pt x="82" y="360" on="0"/>
        <pt x="45" y="429" on="0"/>
        <pt x="15" y="521" on="0"/>
        <pt x="15" y="560" on="1"/>
      </contour>
    </TTGlyph>
    <TTGlyph name="Ygrave" xMin="15" yMin="0" xMax="495" yMax="910">
      <contour>
        <pt x="335" y="775" on="1"/>
        <pt x="135" y="795" on="1"/>
        <pt x="155" y="910" on="1"/>
        <pt x="355" y="850" on="1"/>
      </contour>
      <contour>
        <pt x="15" y="720" on="1"/>
        <pt x="215" y="720" on="1"/>
        <pt x="215" y="498" on="1"/>
        <pt x="215" y="468" on="0"/>
        <pt x="241" y="369" on="0"/>
        <pt x="255" y="340" on="1"/>
        <pt x="269" y="368" on="0"/>
        <pt x="295" y="468" on="0"/>
        <pt x="295" y="498" on="1"/>
        <pt x="295" y="720" on="1"/>
        <pt x="495" y="720" on="1"/>
        <pt x="495" y="560" on="1"/>
        <pt x="495" y="498" on="0"/>
        <pt x="425" y="348" on="0"/>
        <pt x="390" y="304" on="1"/>
        <pt x="355" y="260" on="1"/>
        <pt x="355" y="0" on="1"/>
        <pt x="155" y="0" on="1"/>
        <pt x="155" y="260" on="1"/>
        <pt x="149" y="267" on="0"/>
        <pt x="130" y="290" on="0"/>
        <pt x="82" y="360" on="0"/>
        <pt x="45" y="429" on="0"/>
        <pt x="15" y="521" on="0"/>
        <pt x="15" y="560" on="1"/>
      </contour>
    </TTGlyph>
    <TTGlyph name="Z" xMin="10" yMin="0" xMax="470" yMax="720">
      <contour>
        <pt x="20" y="720" on="1"/>
        <pt x="470" y="720" on="1"/>
        <pt x="470" y="690" on="1"/>
        <pt x="260" y="120" on="1"/>
        <pt x="339" y="120" on="1"/>
        <pt x="377" y="220" on="1"/>
        <pt x="470" y="220" on="1"/>
        <pt x="470" y="0" on="1"/>
        <pt x="10" y="0" on="1"/>
        <pt x="10" y="31" on="1"/>
        <pt x="216" y="600" on="1"/>
        <pt x="142" y="600" on="1"/>
        <pt x="104" y="500" on="1"/>
        <pt x="20" y="500" on="1"/>
      </contour>
    </TTGlyph>
    <TTGlyph name="Zacute" xMin="10" yMin="0" xMax="470" yMax="910">
      <contour>
        <pt x="155" y="775" on="1"/>
        <pt x="135" y="850" on="1"/>
        <pt x="335" y="910" on="1"/>
        <pt x="355" y="795" on="1"/>
      </contour>
      <contour>
        <pt x="20" y="720" on="1"/>
        <pt x="470" y="720" on="1"/>
        <pt x="470" y="690" on="1"/>
        <pt x="260" y="120" on="1"/>
        <pt x="339" y="120" on="1"/>
        <pt x="377" y="220" on="1"/>
        <pt x="470" y="220" on="1"/>
        <pt x="470" y="0" on="1"/>
        <pt x="10" y="0" on="1"/>
        <pt x="10" y="31" on="1"/>
        <pt x="216" y="600" on="1"/>
        <pt x="142" y="600" on="1"/>
        <pt x="104" y="500" on="1"/>
        <pt x="20" y="500" on="1"/>
      </contour>
    </TTGlyph>
    <TTGlyph name="Zcaron" xMin="10" yMin="0" xMax="470" yMax="910">
      <contour>
        <pt x="85" y="810" on="1"/>
        <pt x="105" y="910" on="1"/>
        <pt x="245" y="849" on="1"/>
        <pt x="385" y="910" on="1"/>
        <pt x="405" y="810" on="1"/>
        <pt x="245" y="775" on="1"/>
      </contour>
      <contour>
        <pt x="20" y="720" on="1"/>
        <pt x="470" y="720" on="1"/>
        <pt x="470" y="690" on="1"/>
        <pt x="260" y="120" on="1"/>
        <pt x="339" y="120" on="1"/>
        <pt x="377" y="220" on="1"/>
        <pt x="470" y="220" on="1"/>
        <pt x="470" y="0" on="1"/>
        <pt x="10" y="0" on="1"/>
        <pt x="10" y="31" on="1"/>
        <pt x="216" y="600" on="1"/>
        <pt x="142" y="600" on="1"/>
        <pt x="104" y="500" on="1"/>
        <pt x="20" y="500" on="1"/>
      </contour>
    </TTGlyph>
    <TTGlyph name="Zdotaccent" xMin="10" yMin="0" xMax="470" yMax="900">
      <contour>
        <pt x="145" y="785" on="1"/>
        <pt x="145" y="900" on="1"/>
        <pt x="345" y="900" on="1"/>
        <pt x="345" y="785" on="1"/>
      </contour>
      <contour>
        <pt x="20" y="720" on="1"/>
        <pt x="470" y="720" on="1"/>
        <pt x="470" y="690" on="1"/>
        <pt x="260" y="120" on="1"/>
        <pt x="339" y="120" on="1"/>
        <pt x="377" y="220" on="1"/>
        <pt x="470" y="220" on="1"/>
        <pt x="470" y="0" on="1"/>
        <pt x="10" y="0" on="1"/>
        <pt x="10" y="31" on="1"/>
        <pt x="216" y="600" on="1"/>
        <pt x="142" y="600" on="1"/>
        <pt x="104" y="500" on="1"/>
        <pt x="20" y="500" on="1"/>
      </contour>
    </TTGlyph>
    <TTGlyph name="a" xMin="15" yMin="-10" xMax="480" yMax="530">
      <contour>
        <pt x="25" y="350" on="1"/>
        <pt x="25" y="410" on="1"/>
        <pt x="25" y="476" on="0"/>
        <pt x="124" y="530" on="0"/>
        <pt x="245" y="530" on="1"/>
        <pt x="372" y="530" on="0"/>
        <pt x="475" y="476" on="0"/>
        <pt x="475" y="410" on="1"/>
        <pt x="475" y="110" on="1"/>
        <pt x="475" y="37" on="0"/>
        <pt x="480" y="4" on="1"/>
        <pt x="371" y="-4" on="1"/>
        <pt x="335" y="45" on="1"/>
        <pt x="257" y="-10" on="0"/>
        <pt x="155" y="-10" on="1"/>
        <pt x="93" y="-10" on="0"/>
        <pt x="15" y="57" on="0"/>
        <pt x="15" y="110" on="1"/>
        <pt x="15" y="190" on="1"/>
        <pt x="15" y="255" on="0"/>
        <pt x="109" y="310" on="0"/>
        <pt x="215" y="310" on="1"/>
        <pt x="248" y="310" on="0"/>
        <pt x="275" y="333" on="0"/>
        <pt x="275" y="361" on="1"/>
        <pt x="275" y="410" on="0"/>
        <pt x="215" y="410" on="0"/>
        <pt x="215" y="360" on="1"/>
        <pt x="215" y="350" on="1"/>
      </contour>
      <contour>
        <pt x="275" y="129" on="1"/>
        <pt x="275" y="223" on="1"/>
        <pt x="269" y="219" on="0"/>
        <pt x="229" y="211" on="0"/>
        <pt x="205" y="190" on="0"/>
        <pt x="205" y="142" on="0"/>
        <pt x="224" y="120" on="0"/>
        <pt x="250" y="120" on="1"/>
        <pt x="262" y="120" on="0"/>
      </contour>
    </TTGlyph>
    <TTGlyph name="a.sc" xMin="15" yMin="0" xMax="500" yMax="520">
      <contour>
        <pt x="135" y="520" on="1"/>
        <pt x="375" y="520" on="1"/>
        <pt x="380" y="510" on="0"/>
        <pt x="396" y="476" on="0"/>
        <pt x="437" y="374" on="0"/>
        <pt x="469" y="276" on="0"/>
        <pt x="495" y="150" on="0"/>
        <pt x="495" y="100" on="1"/>
        <pt x="495" y="80" on="1"/>
        <pt x="495" y="33" on="0"/>
        <pt x="500" y="0" on="1"/>
        <pt x="325" y="0" on="1"/>
        <pt x="295" y="0" on="0"/>
        <pt x="295" y="70" on="1"/>
        <pt x="295" y="110" on="1"/>
        <pt x="215" y="110" on="1"/>
        <pt x="215" y="0" on="1"/>
        <pt x="15" y="0" on="1"/>
        <pt x="15" y="100" on="1"/>
        <pt x="15" y="180" on="0"/>
        <pt x="75" y="390" on="0"/>
        <pt x="105" y="455" on="1"/>
      </contour>
      <contour>
        <pt x="215" y="210" on="1"/>
        <pt x="295" y="210" on="1"/>
        <pt x="295" y="242" on="1"/>
        <pt x="295" y="274" on="0"/>
        <pt x="268" y="393" on="0"/>
        <pt x="255" y="420" on="1"/>
        <pt x="242" y="393" on="0"/>
        <pt x="215" y="273" on="0"/>
        <pt x="215" y="242" on="1"/>
      </contour>
    </TTGlyph>
    <TTGlyph name="aacute" xMin="15" yMin="-10" xMax="480" yMax="730">
      <contour>
        <pt x="155" y="595" on="1"/>
        <pt x="135" y="670" on="1"/>
        <pt x="335" y="730" on="1"/>
        <pt x="355" y="615" on="1"/>
      </contour>
      <contour>
        <pt x="25" y="350" on="1"/>
        <pt x="25" y="410" on="1"/>
        <pt x="25" y="476" on="0"/>
        <pt x="124" y="530" on="0"/>
        <pt x="245" y="530" on="1"/>
        <pt x="372" y="530" on="0"/>
        <pt x="475" y="476" on="0"/>
        <pt x="475" y="410" on="1"/>
        <pt x="475" y="110" on="1"/>
        <pt x="475" y="37" on="0"/>
        <pt x="480" y="4" on="1"/>
        <pt x="371" y="-4" on="1"/>
        <pt x="335" y="45" on="1"/>
        <pt x="257" y="-10" on="0"/>
        <pt x="155" y="-10" on="1"/>
        <pt x="93" y="-10" on="0"/>
        <pt x="15" y="57" on="0"/>
        <pt x="15" y="110" on="1"/>
        <pt x="15" y="190" on="1"/>
        <pt x="15" y="255" on="0"/>
        <pt x="109" y="310" on="0"/>
        <pt x="215" y="310" on="1"/>
        <pt x="248" y="310" on="0"/>
        <pt x="275" y="333" on="0"/>
        <pt x="275" y="361" on="1"/>
        <pt x="275" y="410" on="0"/>
        <pt x="215" y="410" on="0"/>
        <pt x="215" y="360" on="1"/>
        <pt x="215" y="350" on="1"/>
      </contour>
      <contour>
        <pt x="275" y="129" on="1"/>
        <pt x="275" y="223" on="1"/>
        <pt x="269" y="219" on="0"/>
        <pt x="229" y="211" on="0"/>
        <pt x="205" y="190" on="0"/>
        <pt x="205" y="142" on="0"/>
        <pt x="224" y="120" on="0"/>
        <pt x="250" y="120" on="1"/>
        <pt x="262" y="120" on="0"/>
      </contour>
    </TTGlyph>
    <TTGlyph name="aacute.sc" xMin="15" yMin="0" xMax="500" yMax="730">
      <contour>
        <pt x="175" y="595" on="1"/>
        <pt x="155" y="670" on="1"/>
        <pt x="355" y="730" on="1"/>
        <pt x="375" y="615" on="1"/>
      </contour>
      <contour>
        <pt x="135" y="520" on="1"/>
        <pt x="375" y="520" on="1"/>
        <pt x="380" y="510" on="0"/>
        <pt x="396" y="476" on="0"/>
        <pt x="437" y="374" on="0"/>
        <pt x="469" y="276" on="0"/>
        <pt x="495" y="150" on="0"/>
        <pt x="495" y="100" on="1"/>
        <pt x="495" y="80" on="1"/>
        <pt x="495" y="33" on="0"/>
        <pt x="500" y="0" on="1"/>
        <pt x="325" y="0" on="1"/>
        <pt x="295" y="0" on="0"/>
        <pt x="295" y="70" on="1"/>
        <pt x="295" y="110" on="1"/>
        <pt x="215" y="110" on="1"/>
        <pt x="215" y="0" on="1"/>
        <pt x="15" y="0" on="1"/>
        <pt x="15" y="100" on="1"/>
        <pt x="15" y="180" on="0"/>
        <pt x="75" y="390" on="0"/>
        <pt x="105" y="455" on="1"/>
      </contour>
      <contour>
        <pt x="215" y="210" on="1"/>
        <pt x="295" y="210" on="1"/>
        <pt x="295" y="242" on="1"/>
        <pt x="295" y="274" on="0"/>
        <pt x="268" y="393" on="0"/>
        <pt x="255" y="420" on="1"/>
        <pt x="242" y="393" on="0"/>
        <pt x="215" y="273" on="0"/>
        <pt x="215" y="242" on="1"/>
      </contour>
    </TTGlyph>
    <TTGlyph name="abreve" xMin="15" yMin="-10" xMax="480" yMax="730">
      <contour>
        <pt x="245" y="680" on="1"/>
        <pt x="272" y="680" on="0"/>
        <pt x="347" y="705" on="0"/>
        <pt x="371" y="718" on="1"/>
        <pt x="395" y="730" on="1"/>
        <pt x="405" y="630" on="1"/>
        <pt x="325" y="595" on="0"/>
        <pt x="245" y="595" on="1"/>
        <pt x="209" y="595" on="0"/>
        <pt x="129" y="612" on="0"/>
        <pt x="107" y="621" on="1"/>
        <pt x="85" y="630" on="1"/>
        <pt x="95" y="730" on="1"/>
        <pt x="185" y="680" on="0"/>
      </contour>
      <contour>
        <pt x="25" y="350" on="1"/>
        <pt x="25" y="410" on="1"/>
        <pt x="25" y="476" on="0"/>
        <pt x="124" y="530" on="0"/>
        <pt x="245" y="530" on="1"/>
        <pt x="372" y="530" on="0"/>
        <pt x="475" y="476" on="0"/>
        <pt x="475" y="410" on="1"/>
        <pt x="475" y="110" on="1"/>
        <pt x="475" y="37" on="0"/>
        <pt x="480" y="4" on="1"/>
        <pt x="371" y="-4" on="1"/>
        <pt x="335" y="45" on="1"/>
        <pt x="257" y="-10" on="0"/>
        <pt x="155" y="-10" on="1"/>
        <pt x="93" y="-10" on="0"/>
        <pt x="15" y="57" on="0"/>
        <pt x="15" y="110" on="1"/>
        <pt x="15" y="190" on="1"/>
        <pt x="15" y="255" on="0"/>
        <pt x="109" y="310" on="0"/>
        <pt x="215" y="310" on="1"/>
        <pt x="248" y="310" on="0"/>
        <pt x="275" y="333" on="0"/>
        <pt x="275" y="361" on="1"/>
        <pt x="275" y="410" on="0"/>
        <pt x="215" y="410" on="0"/>
        <pt x="215" y="360" on="1"/>
        <pt x="215" y="350" on="1"/>
      </contour>
      <contour>
        <pt x="275" y="129" on="1"/>
        <pt x="275" y="223" on="1"/>
        <pt x="269" y="219" on="0"/>
        <pt x="229" y="211" on="0"/>
        <pt x="205" y="190" on="0"/>
        <pt x="205" y="142" on="0"/>
        <pt x="224" y="120" on="0"/>
        <pt x="250" y="120" on="1"/>
        <pt x="262" y="120" on="0"/>
      </contour>
    </TTGlyph>
    <TTGlyph name="abreve.sc" xMin="15" yMin="0" xMax="500" yMax="730">
      <contour>
        <pt x="255" y="680" on="1"/>
        <pt x="282" y="680" on="0"/>
        <pt x="357" y="705" on="0"/>
        <pt x="381" y="718" on="1"/>
        <pt x="405" y="730" on="1"/>
        <pt x="415" y="630" on="1"/>
        <pt x="335" y="595" on="0"/>
        <pt x="255" y="595" on="1"/>
        <pt x="219" y="595" on="0"/>
        <pt x="139" y="612" on="0"/>
        <pt x="117" y="621" on="1"/>
        <pt x="95" y="630" on="1"/>
        <pt x="105" y="730" on="1"/>
        <pt x="195" y="680" on="0"/>
      </contour>
      <contour>
        <pt x="135" y="520" on="1"/>
        <pt x="375" y="520" on="1"/>
        <pt x="380" y="510" on="0"/>
        <pt x="396" y="476" on="0"/>
        <pt x="437" y="374" on="0"/>
        <pt x="469" y="276" on="0"/>
        <pt x="495" y="150" on="0"/>
        <pt x="495" y="100" on="1"/>
        <pt x="495" y="80" on="1"/>
        <pt x="495" y="33" on="0"/>
        <pt x="500" y="0" on="1"/>
        <pt x="325" y="0" on="1"/>
        <pt x="295" y="0" on="0"/>
        <pt x="295" y="70" on="1"/>
        <pt x="295" y="110" on="1"/>
        <pt x="215" y="110" on="1"/>
        <pt x="215" y="0" on="1"/>
        <pt x="15" y="0" on="1"/>
        <pt x="15" y="100" on="1"/>
        <pt x="15" y="180" on="0"/>
        <pt x="75" y="390" on="0"/>
        <pt x="105" y="455" on="1"/>
      </contour>
      <contour>
        <pt x="215" y="210" on="1"/>
        <pt x="295" y="210" on="1"/>
        <pt x="295" y="242" on="1"/>
        <pt x="295" y="274" on="0"/>
        <pt x="268" y="393" on="0"/>
        <pt x="255" y="420" on="1"/>
        <pt x="242" y="393" on="0"/>
        <pt x="215" y="273" on="0"/>
        <pt x="215" y="242" on="1"/>
      </contour>
    </TTGlyph>
    <TTGlyph name="acircumflex" xMin="15" yMin="-10" xMax="480" yMax="725">
      <contour>
        <pt x="105" y="590" on="1"/>
        <pt x="85" y="690" on="1"/>
        <pt x="245" y="725" on="1"/>
        <pt x="405" y="690" on="1"/>
        <pt x="385" y="590" on="1"/>
        <pt x="245" y="651" on="1"/>
      </contour>
      <contour>
        <pt x="25" y="350" on="1"/>
        <pt x="25" y="410" on="1"/>
        <pt x="25" y="476" on="0"/>
        <pt x="124" y="530" on="0"/>
        <pt x="245" y="530" on="1"/>
        <pt x="372" y="530" on="0"/>
        <pt x="475" y="476" on="0"/>
        <pt x="475" y="410" on="1"/>
        <pt x="475" y="110" on="1"/>
        <pt x="475" y="37" on="0"/>
        <pt x="480" y="4" on="1"/>
        <pt x="371" y="-4" on="1"/>
        <pt x="335" y="45" on="1"/>
        <pt x="257" y="-10" on="0"/>
        <pt x="155" y="-10" on="1"/>
        <pt x="93" y="-10" on="0"/>
        <pt x="15" y="57" on="0"/>
        <pt x="15" y="110" on="1"/>
        <pt x="15" y="190" on="1"/>
        <pt x="15" y="255" on="0"/>
        <pt x="109" y="310" on="0"/>
        <pt x="215" y="310" on="1"/>
        <pt x="248" y="310" on="0"/>
        <pt x="275" y="333" on="0"/>
        <pt x="275" y="361" on="1"/>
        <pt x="275" y="410" on="0"/>
        <pt x="215" y="410" on="0"/>
        <pt x="215" y="360" on="1"/>
        <pt x="215" y="350" on="1"/>
      </contour>
      <contour>
        <pt x="275" y="129" on="1"/>
        <pt x="275" y="223" on="1"/>
        <pt x="269" y="219" on="0"/>
        <pt x="229" y="211" on="0"/>
        <pt x="205" y="190" on="0"/>
        <pt x="205" y="142" on="0"/>
        <pt x="224" y="120" on="0"/>
        <pt x="250" y="120" on="1"/>
        <pt x="262" y="120" on="0"/>
      </contour>
    </TTGlyph>
    <TTGlyph name="acircumflex.sc" xMin="15" yMin="0" xMax="500" yMax="725">
      <contour>
        <pt x="115" y="590" on="1"/>
        <pt x="95" y="690" on="1"/>
        <pt x="255" y="725" on="1"/>
        <pt x="415" y="690" on="1"/>
        <pt x="395" y="590" on="1"/>
        <pt x="255" y="651" on="1"/>
      </contour>
      <contour>
        <pt x="135" y="520" on="1"/>
        <pt x="375" y="520" on="1"/>
        <pt x="380" y="510" on="0"/>
        <pt x="396" y="476" on="0"/>
        <pt x="437" y="374" on="0"/>
        <pt x="469" y="276" on="0"/>
        <pt x="495" y="150" on="0"/>
        <pt x="495" y="100" on="1"/>
        <pt x="495" y="80" on="1"/>
        <pt x="495" y="33" on="0"/>
        <pt x="500" y="0" on="1"/>
        <pt x="325" y="0" on="1"/>
        <pt x="295" y="0" on="0"/>
        <pt x="295" y="70" on="1"/>
        <pt x="295" y="110" on="1"/>
        <pt x="215" y="110" on="1"/>
        <pt x="215" y="0" on="1"/>
        <pt x="15" y="0" on="1"/>
        <pt x="15" y="100" on="1"/>
        <pt x="15" y="180" on="0"/>
        <pt x="75" y="390" on="0"/>
        <pt x="105" y="455" on="1"/>
      </contour>
      <contour>
        <pt x="215" y="210" on="1"/>
        <pt x="295" y="210" on="1"/>
        <pt x="295" y="242" on="1"/>
        <pt x="295" y="274" on="0"/>
        <pt x="268" y="393" on="0"/>
        <pt x="255" y="420" on="1"/>
        <pt x="242" y="393" on="0"/>
        <pt x="215" y="273" on="0"/>
        <pt x="215" y="242" on="1"/>
      </contour>
    </TTGlyph>
    <TTGlyph name="acute" xMin="10" yMin="563" xMax="230" yMax="770">
      <contour>
        <pt x="67" y="563" on="1"/>
        <pt x="10" y="618" on="1"/>
        <pt x="153" y="770" on="1"/>
        <pt x="230" y="681" on="1"/>
      </contour>
    </TTGlyph>
    <TTGlyph name="acutecomb" xMin="-230" yMin="595" xMax="-10" yMax="730">
      <contour>
        <pt x="-210" y="595" on="1"/>
        <pt x="-230" y="670" on="1"/>
        <pt x="-30" y="730" on="1"/>
        <pt x="-10" y="615" on="1"/>
      </contour>
    </TTGlyph>
    <TTGlyph name="adieresis" xMin="15" yMin="-10" xMax="480" yMax="720">
      <contour>
        <pt x="65" y="605" on="1"/>
        <pt x="65" y="720" on="1"/>
        <pt x="205" y="720" on="1"/>
        <pt x="205" y="605" on="1"/>
      </contour>
      <contour>
        <pt x="285" y="605" on="1"/>
        <pt x="285" y="720" on="1"/>
        <pt x="425" y="720" on="1"/>
        <pt x="425" y="605" on="1"/>
      </contour>
      <contour>
        <pt x="25" y="350" on="1"/>
        <pt x="25" y="410" on="1"/>
        <pt x="25" y="476" on="0"/>
        <pt x="124" y="530" on="0"/>
        <pt x="245" y="530" on="1"/>
        <pt x="372" y="530" on="0"/>
        <pt x="475" y="476" on="0"/>
        <pt x="475" y="410" on="1"/>
        <pt x="475" y="110" on="1"/>
        <pt x="475" y="37" on="0"/>
        <pt x="480" y="4" on="1"/>
        <pt x="371" y="-4" on="1"/>
        <pt x="335" y="45" on="1"/>
        <pt x="257" y="-10" on="0"/>
        <pt x="155" y="-10" on="1"/>
        <pt x="93" y="-10" on="0"/>
        <pt x="15" y="57" on="0"/>
        <pt x="15" y="110" on="1"/>
        <pt x="15" y="190" on="1"/>
        <pt x="15" y="255" on="0"/>
        <pt x="109" y="310" on="0"/>
        <pt x="215" y="310" on="1"/>
        <pt x="248" y="310" on="0"/>
        <pt x="275" y="333" on="0"/>
        <pt x="275" y="361" on="1"/>
        <pt x="275" y="410" on="0"/>
        <pt x="215" y="410" on="0"/>
        <pt x="215" y="360" on="1"/>
        <pt x="215" y="350" on="1"/>
      </contour>
      <contour>
        <pt x="275" y="129" on="1"/>
        <pt x="275" y="223" on="1"/>
        <pt x="269" y="219" on="0"/>
        <pt x="229" y="211" on="0"/>
        <pt x="205" y="190" on="0"/>
        <pt x="205" y="142" on="0"/>
        <pt x="224" y="120" on="0"/>
        <pt x="250" y="120" on="1"/>
        <pt x="262" y="120" on="0"/>
      </contour>
    </TTGlyph>
    <TTGlyph name="adieresis.sc" xMin="15" yMin="0" xMax="500" yMax="720">
      <contour>
        <pt x="75" y="605" on="1"/>
        <pt x="75" y="720" on="1"/>
        <pt x="215" y="720" on="1"/>
        <pt x="215" y="605" on="1"/>
      </contour>
      <contour>
        <pt x="295" y="605" on="1"/>
        <pt x="295" y="720" on="1"/>
        <pt x="435" y="720" on="1"/>
        <pt x="435" y="605" on="1"/>
      </contour>
      <contour>
        <pt x="135" y="520" on="1"/>
        <pt x="375" y="520" on="1"/>
        <pt x="380" y="510" on="0"/>
        <pt x="396" y="476" on="0"/>
        <pt x="437" y="374" on="0"/>
        <pt x="469" y="276" on="0"/>
        <pt x="495" y="150" on="0"/>
        <pt x="495" y="100" on="1"/>
        <pt x="495" y="80" on="1"/>
        <pt x="495" y="33" on="0"/>
        <pt x="500" y="0" on="1"/>
        <pt x="325" y="0" on="1"/>
        <pt x="295" y="0" on="0"/>
        <pt x="295" y="70" on="1"/>
        <pt x="295" y="110" on="1"/>
        <pt x="215" y="110" on="1"/>
        <pt x="215" y="0" on="1"/>
        <pt x="15" y="0" on="1"/>
        <pt x="15" y="100" on="1"/>
        <pt x="15" y="180" on="0"/>
        <pt x="75" y="390" on="0"/>
        <pt x="105" y="455" on="1"/>
      </contour>
      <contour>
        <pt x="215" y="210" on="1"/>
        <pt x="295" y="210" on="1"/>
        <pt x="295" y="242" on="1"/>
        <pt x="295" y="274" on="0"/>
        <pt x="268" y="393" on="0"/>
        <pt x="255" y="420" on="1"/>
        <pt x="242" y="393" on="0"/>
        <pt x="215" y="273" on="0"/>
        <pt x="215" y="242" on="1"/>
      </contour>
    </TTGlyph>
    <TTGlyph name="ae" xMin="15" yMin="-10" xMax="735" yMax="530">
      <contour>
        <pt x="735" y="220" on="1"/>
        <pt x="475" y="220" on="1"/>
        <pt x="475" y="160" on="1"/>
        <pt x="475" y="110" on="0"/>
        <pt x="535" y="110" on="0"/>
        <pt x="535" y="160" on="1"/>
        <pt x="535" y="180" on="1"/>
        <pt x="735" y="180" on="1"/>
        <pt x="735" y="110" on="1"/>
        <pt x="735" y="44" on="0"/>
        <pt x="631" y="-10" on="0"/>
        <pt x="505" y="-10" on="1"/>
        <pt x="384" y="-10" on="0"/>
        <pt x="352" y="59" on="1"/>
        <pt x="335" y="45" on="1"/>
        <pt x="257" y="-10" on="0"/>
        <pt x="155" y="-10" on="1"/>
        <pt x="93" y="-10" on="0"/>
        <pt x="15" y="57" on="0"/>
        <pt x="15" y="110" on="1"/>
        <pt x="15" y="190" on="1"/>
        <pt x="15" y="256" on="0"/>
        <pt x="119" y="310" on="0"/>
        <pt x="245" y="310" on="1"/>
        <pt x="275" y="312" on="0"/>
        <pt x="275" y="360" on="1"/>
        <pt x="275" y="361" on="1"/>
        <pt x="275" y="410" on="0"/>
        <pt x="215" y="410" on="0"/>
        <pt x="215" y="360" on="1"/>
        <pt x="215" y="350" on="1"/>
        <pt x="25" y="350" on="1"/>
        <pt x="25" y="410" on="1"/>
        <pt x="25" y="477" on="0"/>
        <pt x="120" y="530" on="0"/>
        <pt x="245" y="530" on="1"/>
        <pt x="337" y="530" on="0"/>
        <pt x="375" y="493" on="1"/>
        <pt x="413" y="530" on="0"/>
        <pt x="505" y="530" on="1"/>
        <pt x="631" y="530" on="0"/>
        <pt x="735" y="476" on="0"/>
        <pt x="735" y="410" on="1"/>
      </contour>
      <contour>
        <pt x="555" y="320" on="1"/>
        <pt x="555" y="360" on="1"/>
        <pt x="555" y="410" on="0"/>
        <pt x="475" y="410" on="0"/>
        <pt x="475" y="360" on="1"/>
        <pt x="475" y="320" on="1"/>
      </contour>
      <contour>
        <pt x="275" y="129" on="1"/>
        <pt x="275" y="223" on="1"/>
        <pt x="269" y="219" on="0"/>
        <pt x="229" y="211" on="0"/>
        <pt x="205" y="190" on="0"/>
        <pt x="205" y="142" on="0"/>
        <pt x="224" y="120" on="0"/>
        <pt x="250" y="120" on="1"/>
        <pt x="262" y="120" on="0"/>
      </contour>
    </TTGlyph>
    <TTGlyph name="ae.sc" xMin="15" yMin="0" xMax="655" yMax="520">
      <contour>
        <pt x="295" y="420" on="1"/>
        <pt x="265" y="420" on="1"/>
        <pt x="250" y="388" on="0"/>
        <pt x="215" y="271" on="0"/>
        <pt x="215" y="242" on="1"/>
        <pt x="215" y="230" on="1"/>
        <pt x="295" y="230" on="1"/>
      </contour>
      <contour>
        <pt x="15" y="0" on="1"/>
        <pt x="15" y="100" on="1"/>
        <pt x="15" y="180" on="0"/>
        <pt x="80" y="390" on="0"/>
        <pt x="112" y="455" on="1"/>
        <pt x="145" y="520" on="1"/>
        <pt x="655" y="520" on="1"/>
        <pt x="655" y="380" on="1"/>
        <pt x="495" y="380" on="1"/>
        <pt x="495" y="320" on="1"/>
        <pt x="595" y="320" on="1"/>
        <pt x="595" y="200" on="1"/>
        <pt x="495" y="200" on="1"/>
        <pt x="495" y="140" on="1"/>
        <pt x="655" y="140" on="1"/>
        <pt x="655" y="0" on="1"/>
        <pt x="295" y="0" on="1"/>
        <pt x="295" y="110" on="1"/>
        <pt x="215" y="110" on="1"/>
        <pt x="215" y="0" on="1"/>
      </contour>
    </TTGlyph>
    <TTGlyph name="afii00208" xMin="20" yMin="290" xMax="940" yMax="430">
      <contour>
        <pt x="940" y="430" on="1"/>
        <pt x="940" y="290" on="1"/>
        <pt x="20" y="290" on="1"/>
        <pt x="20" y="430" on="1"/>
      </contour>
    </TTGlyph>
    <TTGlyph name="afii10017" xMin="15" yMin="0" xMax="500" yMax="720">
      <contour>
        <pt x="135" y="720" on="1"/>
        <pt x="375" y="720" on="1"/>
        <pt x="388" y="680" on="0"/>
        <pt x="428" y="550" on="0"/>
        <pt x="495" y="260" on="0"/>
        <pt x="495" y="180" on="1"/>
        <pt x="495" y="80" on="1"/>
        <pt x="495" y="33" on="0"/>
        <pt x="500" y="0" on="1"/>
        <pt x="330" y="0" on="1"/>
        <pt x="309" y="0" on="0"/>
        <pt x="295" y="56" on="0"/>
        <pt x="295" y="130" on="1"/>
        <pt x="295" y="140" on="1"/>
        <pt x="215" y="140" on="1"/>
        <pt x="215" y="0" on="1"/>
        <pt x="15" y="0" on="1"/>
        <pt x="15" y="180" on="1"/>
        <pt x="15" y="260" on="0"/>
        <pt x="75" y="530" on="0"/>
        <pt x="105" y="625" on="1"/>
      </contour>
      <contour>
        <pt x="215" y="280" on="1"/>
        <pt x="295" y="280" on="1"/>
        <pt x="295" y="322" on="1"/>
        <pt x="295" y="363" on="0"/>
        <pt x="267" y="596" on="0"/>
        <pt x="255" y="620" on="1"/>
        <pt x="244" y="596" on="0"/>
        <pt x="215" y="361" on="0"/>
        <pt x="215" y="322" on="1"/>
      </contour>
    </TTGlyph>
    <TTGlyph name="afii10018" xMin="20" yMin="0" xMax="500" yMax="720">
      <contour>
        <pt x="20" y="720" on="1"/>
        <pt x="440" y="720" on="1"/>
        <pt x="440" y="580" on="1"/>
        <pt x="220" y="580" on="1"/>
        <pt x="220" y="420" on="1"/>
        <pt x="260" y="420" on="1"/>
        <pt x="391" y="420" on="0"/>
        <pt x="500" y="366" on="0"/>
        <pt x="500" y="300" on="1"/>
        <pt x="500" y="120" on="1"/>
        <pt x="500" y="54" on="0"/>
        <pt x="391" y="0" on="0"/>
        <pt x="260" y="0" on="1"/>
        <pt x="220" y="0" on="1"/>
        <pt x="20" y="0" on="1"/>
      </contour>
      <contour>
        <pt x="220" y="300" on="1"/>
        <pt x="220" y="120" on="1"/>
        <pt x="260" y="120" on="1"/>
        <pt x="300" y="120" on="0"/>
        <pt x="300" y="170" on="1"/>
        <pt x="300" y="250" on="1"/>
        <pt x="300" y="300" on="0"/>
        <pt x="260" y="300" on="1"/>
      </contour>
    </TTGlyph>
    <TTGlyph name="afii10019" xMin="20" yMin="0" xMax="500" yMax="720">
      <contour>
        <pt x="220" y="450" on="1"/>
        <pt x="270" y="450" on="1"/>
        <pt x="300" y="450" on="0"/>
        <pt x="300" y="500" on="1"/>
        <pt x="300" y="550" on="1"/>
        <pt x="300" y="600" on="0"/>
        <pt x="270" y="600" on="1"/>
        <pt x="220" y="600" on="1"/>
      </contour>
      <contour>
        <pt x="20" y="720" on="1"/>
        <pt x="270" y="720" on="1"/>
        <pt x="377" y="720" on="0"/>
        <pt x="490" y="658" on="0"/>
        <pt x="490" y="600" on="1"/>
        <pt x="490" y="500" on="1"/>
        <pt x="490" y="411" on="0"/>
        <pt x="406" y="385" on="1"/>
        <pt x="500" y="358" on="0"/>
        <pt x="500" y="270" on="1"/>
        <pt x="500" y="120" on="1"/>
        <pt x="500" y="54" on="0"/>
        <pt x="396" y="0" on="0"/>
        <pt x="270" y="0" on="1"/>
        <pt x="20" y="0" on="1"/>
      </contour>
      <contour>
        <pt x="220" y="120" on="1"/>
        <pt x="270" y="120" on="1"/>
        <pt x="300" y="120" on="0"/>
        <pt x="300" y="170" on="1"/>
        <pt x="300" y="260" on="1"/>
        <pt x="300" y="310" on="0"/>
        <pt x="270" y="310" on="1"/>
        <pt x="220" y="310" on="1"/>
      </contour>
    </TTGlyph>
    <TTGlyph name="afii10020" xMin="20" yMin="0" xMax="400" yMax="720">
      <contour>
        <pt x="20" y="0" on="1"/>
        <pt x="20" y="720" on="1"/>
        <pt x="400" y="720" on="1"/>
        <pt x="400" y="580" on="1"/>
        <pt x="220" y="580" on="1"/>
        <pt x="220" y="0" on="1"/>
      </contour>
    </TTGlyph>
    <TTGlyph name="afii10021" xMin="10" yMin="-80" xMax="610" yMax="720">
      <contour>
        <pt x="120" y="720" on="1"/>
        <pt x="540" y="720" on="1"/>
        <pt x="540" y="140" on="1"/>
        <pt x="610" y="140" on="1"/>
        <pt x="610" y="-80" on="1"/>
        <pt x="525" y="-80" on="1"/>
        <pt x="477" y="0" on="1"/>
        <pt x="143" y="0" on="1"/>
        <pt x="95" y="-80" on="1"/>
        <pt x="10" y="-80" on="1"/>
        <pt x="10" y="140" on="1"/>
        <pt x="30" y="140" on="1"/>
        <pt x="74" y="140" on="0"/>
        <pt x="120" y="186" on="0"/>
        <pt x="120" y="230" on="1"/>
      </contour>
      <contour>
        <pt x="258" y="140" on="1"/>
        <pt x="340" y="140" on="1"/>
        <pt x="340" y="580" on="1"/>
        <pt x="260" y="580" on="1"/>
        <pt x="260" y="180" on="1"/>
        <pt x="260" y="166" on="0"/>
      </contour>
    </TTGlyph>
    <TTGlyph name="afii10022" xMin="20" yMin="0" xMax="400" yMax="720">
      <contour>
        <pt x="20" y="720" on="1"/>
        <pt x="400" y="720" on="1"/>
        <pt x="400" y="580" on="1"/>
        <pt x="220" y="580" on="1"/>
        <pt x="220" y="430" on="1"/>
        <pt x="340" y="430" on="1"/>
        <pt x="340" y="290" on="1"/>
        <pt x="220" y="290" on="1"/>
        <pt x="220" y="140" on="1"/>
        <pt x="400" y="140" on="1"/>
        <pt x="400" y="0" on="1"/>
        <pt x="20" y="0" on="1"/>
      </contour>
    </TTGlyph>
    <TTGlyph name="afii10023" xMin="20" yMin="0" xMax="400" yMax="900">
      <contour>
        <pt x="30" y="785" on="1"/>
        <pt x="30" y="900" on="1"/>
        <pt x="170" y="900" on="1"/>
        <pt x="170" y="785" on="1"/>
      </contour>
      <contour>
        <pt x="250" y="785" on="1"/>
        <pt x="250" y="900" on="1"/>
        <pt x="390" y="900" on="1"/>
        <pt x="390" y="785" on="1"/>
      </contour>
      <contour>
        <pt x="20" y="720" on="1"/>
        <pt x="400" y="720" on="1"/>
        <pt x="400" y="580" on="1"/>
        <pt x="220" y="580" on="1"/>
        <pt x="220" y="430" on="1"/>
        <pt x="340" y="430" on="1"/>
        <pt x="340" y="290" on="1"/>
        <pt x="220" y="290" on="1"/>
        <pt x="220" y="140" on="1"/>
        <pt x="400" y="140" on="1"/>
        <pt x="400" y="0" on="1"/>
        <pt x="20" y="0" on="1"/>
      </contour>
    </TTGlyph>
    <TTGlyph name="afii10024" xMin="10" yMin="0" xMax="780" yMax="720">
      <contour>
        <pt x="295" y="720" on="1"/>
        <pt x="495" y="720" on="1"/>
        <pt x="495" y="460" on="1"/>
        <pt x="533" y="460" on="1"/>
        <pt x="548" y="460" on="0"/>
        <pt x="575" y="488" on="0"/>
        <pt x="575" y="509" on="1"/>
        <pt x="575" y="720" on="1"/>
        <pt x="765" y="720" on="1"/>
        <pt x="765" y="510" on="1"/>
        <pt x="765" y="477" on="0"/>
        <pt x="712" y="417" on="0"/>
        <pt x="670" y="399" on="1"/>
        <pt x="715" y="381" on="0"/>
        <pt x="775" y="315" on="0"/>
        <pt x="775" y="280" on="1"/>
        <pt x="775" y="80" on="1"/>
        <pt x="775" y="33" on="0"/>
        <pt x="780" y="0" on="1"/>
        <pt x="610" y="0" on="1"/>
        <pt x="589" y="0" on="0"/>
        <pt x="575" y="56" on="0"/>
        <pt x="575" y="130" on="1"/>
        <pt x="575" y="270" on="1"/>
        <pt x="575" y="292" on="0"/>
        <pt x="557" y="320" on="0"/>
        <pt x="543" y="320" on="1"/>
        <pt x="495" y="320" on="1"/>
        <pt x="495" y="0" on="1"/>
        <pt x="295" y="0" on="1"/>
        <pt x="295" y="320" on="1"/>
        <pt x="247" y="320" on="1"/>
        <pt x="233" y="320" on="0"/>
        <pt x="215" y="292" on="0"/>
        <pt x="215" y="270" on="1"/>
        <pt x="215" y="130" on="1"/>
        <pt x="215" y="56" on="0"/>
        <pt x="201" y="0" on="0"/>
        <pt x="180" y="0" on="1"/>
        <pt x="10" y="0" on="1"/>
        <pt x="15" y="33" on="0"/>
        <pt x="15" y="80" on="1"/>
        <pt x="15" y="280" on="1"/>
        <pt x="15" y="315" on="0"/>
        <pt x="75" y="381" on="0"/>
        <pt x="120" y="399" on="1"/>
        <pt x="78" y="417" on="0"/>
        <pt x="25" y="477" on="0"/>
        <pt x="25" y="510" on="1"/>
        <pt x="25" y="720" on="1"/>
        <pt x="215" y="720" on="1"/>
        <pt x="215" y="509" on="1"/>
        <pt x="215" y="488" on="0"/>
        <pt x="242" y="460" on="0"/>
        <pt x="257" y="460" on="1"/>
        <pt x="295" y="460" on="1"/>
      </contour>
    </TTGlyph>
    <TTGlyph name="afii10025" xMin="15" yMin="-10" xMax="495" yMax="730">
      <contour>
        <pt x="401" y="385" on="1"/>
        <pt x="495" y="358" on="0"/>
        <pt x="495" y="270" on="1"/>
        <pt x="495" y="110" on="1"/>
        <pt x="495" y="44" on="0"/>
        <pt x="386" y="-10" on="0"/>
        <pt x="124" y="-10" on="0"/>
        <pt x="15" y="40" on="0"/>
        <pt x="15" y="100" on="1"/>
        <pt x="15" y="260" on="1"/>
        <pt x="215" y="260" on="1"/>
        <pt x="215" y="160" on="1"/>
        <pt x="215" y="110" on="0"/>
        <pt x="295" y="110" on="0"/>
        <pt x="295" y="160" on="1"/>
        <pt x="295" y="280" on="1"/>
        <pt x="295" y="330" on="0"/>
        <pt x="265" y="330" on="1"/>
        <pt x="125" y="330" on="1"/>
        <pt x="125" y="430" on="1"/>
        <pt x="265" y="430" on="1"/>
        <pt x="295" y="430" on="0"/>
        <pt x="295" y="480" on="1"/>
        <pt x="295" y="560" on="1"/>
        <pt x="295" y="610" on="0"/>
        <pt x="215" y="610" on="0"/>
        <pt x="215" y="560" on="1"/>
        <pt x="215" y="500" on="1"/>
        <pt x="25" y="500" on="1"/>
        <pt x="25" y="620" on="1"/>
        <pt x="25" y="680" on="0"/>
        <pt x="129" y="730" on="0"/>
        <pt x="381" y="730" on="0"/>
        <pt x="485" y="676" on="0"/>
        <pt x="485" y="610" on="1"/>
        <pt x="485" y="500" on="1"/>
        <pt x="485" y="411" on="0"/>
      </contour>
    </TTGlyph>
    <TTGlyph name="afii10026" xMin="20" yMin="0" xMax="485" yMax="720">
      <contour>
        <pt x="20" y="720" on="1"/>
        <pt x="160" y="720" on="1"/>
        <pt x="160" y="404" on="1"/>
        <pt x="348" y="720" on="1"/>
        <pt x="480" y="720" on="1"/>
        <pt x="480" y="80" on="1"/>
        <pt x="480" y="33" on="0"/>
        <pt x="485" y="0" on="1"/>
        <pt x="340" y="0" on="1"/>
        <pt x="340" y="315" on="1"/>
        <pt x="152" y="0" on="1"/>
        <pt x="20" y="0" on="1"/>
      </contour>
    </TTGlyph>
    <TTGlyph name="afii10027" xMin="20" yMin="0" xMax="485" yMax="910">
      <contour>
        <pt x="250" y="860" on="1"/>
        <pt x="277" y="860" on="0"/>
        <pt x="352" y="885" on="0"/>
        <pt x="376" y="898" on="1"/>
        <pt x="400" y="910" on="1"/>
        <pt x="410" y="810" on="1"/>
        <pt x="330" y="775" on="0"/>
        <pt x="250" y="775" on="1"/>
        <pt x="214" y="775" on="0"/>
        <pt x="134" y="792" on="0"/>
        <pt x="112" y="801" on="1"/>
        <pt x="90" y="810" on="1"/>
        <pt x="100" y="910" on="1"/>
        <pt x="190" y="860" on="0"/>
      </contour>
      <contour>
        <pt x="20" y="720" on="1"/>
        <pt x="160" y="720" on="1"/>
        <pt x="160" y="404" on="1"/>
        <pt x="348" y="720" on="1"/>
        <pt x="480" y="720" on="1"/>
        <pt x="480" y="80" on="1"/>
        <pt x="480" y="33" on="0"/>
        <pt x="485" y="0" on="1"/>
        <pt x="340" y="0" on="1"/>
        <pt x="340" y="315" on="1"/>
        <pt x="152" y="0" on="1"/>
        <pt x="20" y="0" on="1"/>
      </contour>
    </TTGlyph>
    <TTGlyph name="afii10028" xMin="20" yMin="0" xMax="505" yMax="720">
      <contour>
        <pt x="20" y="720" on="1"/>
        <pt x="220" y="720" on="1"/>
        <pt x="220" y="460" on="1"/>
        <pt x="258" y="460" on="1"/>
        <pt x="273" y="460" on="0"/>
        <pt x="300" y="488" on="0"/>
        <pt x="300" y="509" on="1"/>
        <pt x="300" y="720" on="1"/>
        <pt x="490" y="720" on="1"/>
        <pt x="490" y="510" on="1"/>
        <pt x="490" y="477" on="0"/>
        <pt x="437" y="417" on="0"/>
        <pt x="395" y="399" on="1"/>
        <pt x="440" y="381" on="0"/>
        <pt x="500" y="315" on="0"/>
        <pt x="500" y="280" on="1"/>
        <pt x="500" y="80" on="1"/>
        <pt x="500" y="33" on="0"/>
        <pt x="505" y="0" on="1"/>
        <pt x="335" y="0" on="1"/>
        <pt x="314" y="0" on="0"/>
        <pt x="300" y="56" on="0"/>
        <pt x="300" y="130" on="1"/>
        <pt x="300" y="270" on="1"/>
        <pt x="300" y="292" on="0"/>
        <pt x="282" y="320" on="0"/>
        <pt x="268" y="320" on="1"/>
        <pt x="220" y="320" on="1"/>
        <pt x="220" y="0" on="1"/>
        <pt x="20" y="0" on="1"/>
      </contour>
    </TTGlyph>
    <TTGlyph name="afii10029" xMin="10" yMin="0" xMax="505" yMax="720">
      <contour>
        <pt x="80" y="720" on="1"/>
        <pt x="500" y="720" on="1"/>
        <pt x="500" y="80" on="1"/>
        <pt x="500" y="33" on="0"/>
        <pt x="505" y="0" on="1"/>
        <pt x="335" y="0" on="1"/>
        <pt x="314" y="0" on="0"/>
        <pt x="300" y="56" on="0"/>
        <pt x="300" y="130" on="1"/>
        <pt x="300" y="580" on="1"/>
        <pt x="220" y="580" on="1"/>
        <pt x="220" y="180" on="1"/>
        <pt x="220" y="92" on="0"/>
        <pt x="151" y="0" on="0"/>
        <pt x="85" y="0" on="1"/>
        <pt x="10" y="0" on="1"/>
        <pt x="10" y="200" on="1"/>
        <pt x="30" y="200" on="1"/>
        <pt x="80" y="200" on="0"/>
        <pt x="80" y="250" on="1"/>
      </contour>
    </TTGlyph>
    <TTGlyph name="afii10030" xMin="20" yMin="0" xMax="785" yMax="720">
      <contour>
        <pt x="20" y="720" on="1"/>
        <pt x="200" y="720" on="1"/>
        <pt x="314" y="720" on="0"/>
        <pt x="400" y="623" on="1"/>
        <pt x="486" y="720" on="0"/>
        <pt x="600" y="720" on="1"/>
        <pt x="780" y="720" on="1"/>
        <pt x="780" y="80" on="1"/>
        <pt x="780" y="33" on="0"/>
        <pt x="785" y="0" on="1"/>
        <pt x="615" y="0" on="1"/>
        <pt x="594" y="0" on="0"/>
        <pt x="580" y="56" on="0"/>
        <pt x="580" y="130" on="1"/>
        <pt x="580" y="600" on="1"/>
        <pt x="500" y="600" on="0"/>
        <pt x="500" y="440" on="1"/>
        <pt x="500" y="0" on="1"/>
        <pt x="300" y="0" on="1"/>
        <pt x="300" y="440" on="1"/>
        <pt x="300" y="600" on="0"/>
        <pt x="220" y="600" on="1"/>
        <pt x="220" y="0" on="1"/>
        <pt x="20" y="0" on="1"/>
      </contour>
    </TTGlyph>
    <TTGlyph name="afii10031" xMin="20" yMin="0" xMax="505" yMax="720">
      <contour>
        <pt x="20" y="720" on="1"/>
        <pt x="220" y="720" on="1"/>
        <pt x="220" y="430" on="1"/>
        <pt x="300" y="430" on="1"/>
        <pt x="300" y="720" on="1"/>
        <pt x="500" y="720" on="1"/>
        <pt x="500" y="80" on="1"/>
        <pt x="500" y="33" on="0"/>
        <pt x="505" y="0" on="1"/>
        <pt x="335" y="0" on="1"/>
        <pt x="314" y="0" on="0"/>
        <pt x="300" y="56" on="0"/>
        <pt x="300" y="130" on="1"/>
        <pt x="300" y="290" on="1"/>
        <pt x="220" y="290" on="1"/>
        <pt x="220" y="0" on="1"/>
        <pt x="20" y="0" on="1"/>
      </contour>
    </TTGlyph>
    <TTGlyph name="afii10032" xMin="15" yMin="-10" xMax="495" yMax="730">
      <contour>
        <pt x="124" y="730" on="0"/>
        <pt x="386" y="730" on="0"/>
        <pt x="495" y="676" on="0"/>
        <pt x="495" y="610" on="1"/>
        <pt x="495" y="110" on="1"/>
        <pt x="495" y="44" on="0"/>
        <pt x="386" y="-10" on="0"/>
        <pt x="124" y="-10" on="0"/>
        <pt x="15" y="44" on="0"/>
        <pt x="15" y="110" on="1"/>
        <pt x="15" y="610" on="1"/>
        <pt x="15" y="676" on="0"/>
      </contour>
      <contour>
        <pt x="295" y="610" on="0"/>
        <pt x="215" y="610" on="0"/>
        <pt x="215" y="560" on="1"/>
        <pt x="215" y="160" on="1"/>
        <pt x="215" y="110" on="0"/>
        <pt x="295" y="110" on="0"/>
        <pt x="295" y="160" on="1"/>
        <pt x="295" y="560" on="1"/>
      </contour>
    </TTGlyph>
    <TTGlyph name="afii10033" xMin="20" yMin="0" xMax="505" yMax="720">
      <contour>
        <pt x="20" y="720" on="1"/>
        <pt x="500" y="720" on="1"/>
        <pt x="500" y="80" on="1"/>
        <pt x="500" y="33" on="0"/>
        <pt x="505" y="0" on="1"/>
        <pt x="335" y="0" on="1"/>
        <pt x="314" y="0" on="0"/>
        <pt x="300" y="56" on="0"/>
        <pt x="300" y="130" on="1"/>
        <pt x="300" y="580" on="1"/>
        <pt x="220" y="580" on="1"/>
        <pt x="220" y="0" on="1"/>
        <pt x="20" y="0" on="1"/>
      </contour>
    </TTGlyph>
    <TTGlyph name="afii10034" xMin="20" yMin="0" xMax="500" yMax="720">
      <contour>
        <pt x="220" y="600" on="1"/>
        <pt x="220" y="340" on="1"/>
        <pt x="260" y="340" on="1"/>
        <pt x="300" y="340" on="0"/>
        <pt x="300" y="390" on="1"/>
        <pt x="300" y="550" on="1"/>
        <pt x="300" y="600" on="0"/>
        <pt x="260" y="600" on="1"/>
      </contour>
      <contour>
        <pt x="20" y="720" on="1"/>
        <pt x="260" y="720" on="1"/>
        <pt x="391" y="720" on="0"/>
        <pt x="500" y="666" on="0"/>
        <pt x="500" y="600" on="1"/>
        <pt x="500" y="340" on="1"/>
        <pt x="500" y="274" on="0"/>
        <pt x="391" y="220" on="0"/>
        <pt x="260" y="220" on="1"/>
        <pt x="220" y="220" on="1"/>
        <pt x="220" y="0" on="1"/>
        <pt x="20" y="0" on="1"/>
      </contour>
    </TTGlyph>
    <TTGlyph name="afii10035" xMin="15" yMin="-10" xMax="475" yMax="730">
      <contour>
        <pt x="475" y="460" on="1"/>
        <pt x="295" y="460" on="1"/>
        <pt x="295" y="560" on="1"/>
        <pt x="295" y="610" on="0"/>
        <pt x="215" y="610" on="0"/>
        <pt x="215" y="560" on="1"/>
        <pt x="215" y="160" on="1"/>
        <pt x="215" y="110" on="0"/>
        <pt x="295" y="110" on="0"/>
        <pt x="295" y="160" on="1"/>
        <pt x="295" y="260" on="1"/>
        <pt x="475" y="260" on="1"/>
        <pt x="475" y="100" on="1"/>
        <pt x="475" y="40" on="0"/>
        <pt x="376" y="-10" on="0"/>
        <pt x="255" y="-10" on="1"/>
        <pt x="124" y="-10" on="0"/>
        <pt x="15" y="44" on="0"/>
        <pt x="15" y="110" on="1"/>
        <pt x="15" y="610" on="1"/>
        <pt x="15" y="676" on="0"/>
        <pt x="124" y="730" on="0"/>
        <pt x="255" y="730" on="1"/>
        <pt x="376" y="730" on="0"/>
        <pt x="475" y="680" on="0"/>
        <pt x="475" y="620" on="1"/>
      </contour>
    </TTGlyph>
    <TTGlyph name="afii10036" xMin="10" yMin="0" xMax="490" yMax="720">
      <contour>
        <pt x="10" y="720" on="1"/>
        <pt x="490" y="720" on="1"/>
        <pt x="490" y="580" on="1"/>
        <pt x="350" y="580" on="1"/>
        <pt x="350" y="0" on="1"/>
        <pt x="150" y="0" on="1"/>
        <pt x="150" y="580" on="1"/>
        <pt x="10" y="580" on="1"/>
      </contour>
    </TTGlyph>
    <TTGlyph name="afii10037" xMin="15" yMin="0" xMax="495" yMax="720">
      <contour>
        <pt x="15" y="720" on="1"/>
        <pt x="215" y="720" on="1"/>
        <pt x="215" y="478" on="1"/>
        <pt x="215" y="426" on="0"/>
        <pt x="265" y="320" on="1"/>
        <pt x="278" y="345" on="0"/>
        <pt x="295" y="444" on="0"/>
        <pt x="295" y="478" on="1"/>
        <pt x="295" y="720" on="1"/>
        <pt x="495" y="720" on="1"/>
        <pt x="495" y="500" on="1"/>
        <pt x="495" y="438" on="0"/>
        <pt x="425" y="288" on="0"/>
        <pt x="390" y="244" on="1"/>
        <pt x="355" y="200" on="1"/>
        <pt x="346" y="191" on="1"/>
        <pt x="338" y="182" on="0"/>
        <pt x="317" y="160" on="0"/>
        <pt x="290" y="128" on="0"/>
        <pt x="265" y="92" on="0"/>
        <pt x="243" y="55" on="0"/>
        <pt x="230" y="16" on="0"/>
        <pt x="230" y="0" on="1"/>
        <pt x="30" y="0" on="1"/>
        <pt x="30" y="123" on="0"/>
        <pt x="158" y="221" on="1"/>
        <pt x="156" y="224" on="0"/>
        <pt x="122" y="267" on="0"/>
        <pt x="104" y="291" on="0"/>
        <pt x="69" y="340" on="0"/>
        <pt x="49" y="380" on="0"/>
        <pt x="26" y="429" on="0"/>
        <pt x="15" y="477" on="0"/>
        <pt x="15" y="500" on="1"/>
      </contour>
    </TTGlyph>
    <TTGlyph name="afii10038" xMin="15" yMin="0" xMax="775" yMax="720">
      <contour>
        <pt x="495" y="526" on="1"/>
        <pt x="495" y="195" on="1"/>
        <pt x="575" y="203" on="0"/>
        <pt x="575" y="240" on="1"/>
        <pt x="575" y="480" on="1"/>
        <pt x="575" y="518" on="0"/>
      </contour>
      <contour>
        <pt x="295" y="720" on="1"/>
        <pt x="495" y="720" on="1"/>
        <pt x="495" y="649" on="1"/>
        <pt x="646" y="643" on="0"/>
        <pt x="775" y="587" on="0"/>
        <pt x="775" y="530" on="1"/>
        <pt x="775" y="190" on="1"/>
        <pt x="775" y="133" on="0"/>
        <pt x="646" y="78" on="0"/>
        <pt x="495" y="72" on="1"/>
        <pt x="495" y="0" on="1"/>
        <pt x="295" y="0" on="1"/>
        <pt x="295" y="72" on="1"/>
        <pt x="144" y="78" on="0"/>
        <pt x="15" y="133" on="0"/>
        <pt x="15" y="190" on="1"/>
        <pt x="15" y="530" on="1"/>
        <pt x="15" y="587" on="0"/>
        <pt x="144" y="643" on="0"/>
        <pt x="295" y="649" on="1"/>
      </contour>
      <contour>
        <pt x="295" y="526" on="1"/>
        <pt x="215" y="518" on="0"/>
        <pt x="215" y="480" on="1"/>
        <pt x="215" y="240" on="1"/>
        <pt x="215" y="203" on="0"/>
        <pt x="295" y="195" on="1"/>
      </contour>
    </TTGlyph>
    <TTGlyph name="afii10039" xMin="15" yMin="0" xMax="500" yMax="720">
      <contour>
        <pt x="255" y="440" on="1"/>
        <pt x="295" y="520" on="0"/>
        <pt x="295" y="578" on="1"/>
        <pt x="295" y="720" on="1"/>
        <pt x="485" y="720" on="1"/>
        <pt x="485" y="590" on="1"/>
        <pt x="485" y="487" on="0"/>
        <pt x="377" y="370" on="1"/>
        <pt x="495" y="261" on="0"/>
        <pt x="495" y="160" on="1"/>
        <pt x="495" y="33" on="0"/>
        <pt x="500" y="0" on="1"/>
        <pt x="330" y="0" on="1"/>
        <pt x="321" y="0" on="0"/>
        <pt x="308" y="24" on="0"/>
        <pt x="302" y="67" on="0"/>
        <pt x="299" y="107" on="0"/>
        <pt x="296" y="158" on="0"/>
        <pt x="295" y="169" on="1"/>
        <pt x="292" y="197" on="0"/>
        <pt x="270" y="284" on="0"/>
        <pt x="255" y="310" on="1"/>
        <pt x="215" y="225" on="0"/>
        <pt x="215" y="162" on="1"/>
        <pt x="215" y="0" on="1"/>
        <pt x="15" y="0" on="1"/>
        <pt x="15" y="160" on="1"/>
        <pt x="15" y="260" on="0"/>
        <pt x="120" y="370" on="1"/>
        <pt x="25" y="488" on="0"/>
        <pt x="25" y="590" on="1"/>
        <pt x="25" y="720" on="1"/>
        <pt x="215" y="720" on="1"/>
        <pt x="215" y="578" on="1"/>
        <pt x="215" y="525" on="0"/>
      </contour>
    </TTGlyph>
    <TTGlyph name="afii10040" xMin="20" yMin="-80" xMax="570" yMax="720">
      <contour>
        <pt x="20" y="0" on="1"/>
        <pt x="20" y="720" on="1"/>
        <pt x="220" y="720" on="1"/>
        <pt x="220" y="140" on="1"/>
        <pt x="300" y="140" on="1"/>
        <pt x="300" y="720" on="1"/>
        <pt x="500" y="720" on="1"/>
        <pt x="500" y="140" on="1"/>
        <pt x="570" y="140" on="1"/>
        <pt x="570" y="-80" on="1"/>
        <pt x="485" y="-80" on="1"/>
        <pt x="437" y="0" on="1"/>
      </contour>
    </TTGlyph>
    <TTGlyph name="afii10041" xMin="15" yMin="0" xMax="495" yMax="720">
      <contour>
        <pt x="15" y="720" on="1"/>
        <pt x="215" y="720" on="1"/>
        <pt x="215" y="430" on="1"/>
        <pt x="215" y="380" on="0"/>
        <pt x="255" y="380" on="1"/>
        <pt x="295" y="380" on="1"/>
        <pt x="295" y="720" on="1"/>
        <pt x="495" y="720" on="1"/>
        <pt x="495" y="0" on="1"/>
        <pt x="295" y="0" on="1"/>
        <pt x="295" y="260" on="1"/>
        <pt x="255" y="260" on="1"/>
        <pt x="124" y="260" on="0"/>
        <pt x="15" y="314" on="0"/>
        <pt x="15" y="380" on="1"/>
      </contour>
    </TTGlyph>
    <TTGlyph name="afii10042" xMin="20" yMin="0" xMax="780" yMax="720">
      <contour>
        <pt x="20" y="0" on="1"/>
        <pt x="20" y="720" on="1"/>
        <pt x="220" y="720" on="1"/>
        <pt x="220" y="140" on="1"/>
        <pt x="300" y="140" on="1"/>
        <pt x="300" y="720" on="1"/>
        <pt x="500" y="720" on="1"/>
        <pt x="500" y="140" on="1"/>
        <pt x="580" y="140" on="1"/>
        <pt x="580" y="720" on="1"/>
        <pt x="780" y="720" on="1"/>
        <pt x="780" y="0" on="1"/>
      </contour>
    </TTGlyph>
    <TTGlyph name="afii10043" xMin="20" yMin="-80" xMax="850" yMax="720">
      <contour>
        <pt x="20" y="0" on="1"/>
        <pt x="20" y="720" on="1"/>
        <pt x="220" y="720" on="1"/>
        <pt x="220" y="140" on="1"/>
        <pt x="300" y="140" on="1"/>
        <pt x="300" y="720" on="1"/>
        <pt x="500" y="720" on="1"/>
        <pt x="500" y="140" on="1"/>
        <pt x="580" y="140" on="1"/>
        <pt x="580" y="720" on="1"/>
        <pt x="780" y="720" on="1"/>
        <pt x="780" y="140" on="1"/>
        <pt x="850" y="140" on="1"/>
        <pt x="850" y="-80" on="1"/>
        <pt x="765" y="-80" on="1"/>
        <pt x="717" y="0" on="1"/>
      </contour>
    </TTGlyph>
    <TTGlyph name="afii10044" xMin="10" yMin="0" xMax="585" yMax="720">
      <contour>
        <pt x="305" y="120" on="1"/>
        <pt x="345" y="120" on="1"/>
        <pt x="385" y="120" on="0"/>
        <pt x="385" y="170" on="1"/>
        <pt x="385" y="250" on="1"/>
        <pt x="385" y="300" on="0"/>
        <pt x="345" y="300" on="1"/>
        <pt x="305" y="300" on="1"/>
      </contour>
      <contour>
        <pt x="305" y="720" on="1"/>
        <pt x="305" y="420" on="1"/>
        <pt x="345" y="420" on="1"/>
        <pt x="476" y="420" on="0"/>
        <pt x="585" y="366" on="0"/>
        <pt x="585" y="300" on="1"/>
        <pt x="585" y="120" on="1"/>
        <pt x="585" y="54" on="0"/>
        <pt x="476" y="0" on="0"/>
        <pt x="345" y="0" on="1"/>
        <pt x="105" y="0" on="1"/>
        <pt x="105" y="580" on="1"/>
        <pt x="10" y="580" on="1"/>
        <pt x="10" y="720" on="1"/>
      </contour>
    </TTGlyph>
    <TTGlyph name="afii10045" xMin="20" yMin="0" xMax="740" yMax="720">
      <contour>
        <pt x="540" y="720" on="1"/>
        <pt x="740" y="720" on="1"/>
        <pt x="740" y="0" on="1"/>
        <pt x="540" y="0" on="1"/>
      </contour>
      <contour>
        <pt x="220" y="120" on="1"/>
        <pt x="260" y="120" on="1"/>
        <pt x="300" y="120" on="0"/>
        <pt x="300" y="170" on="1"/>
        <pt x="300" y="250" on="1"/>
        <pt x="300" y="300" on="0"/>
        <pt x="260" y="300" on="1"/>
        <pt x="220" y="300" on="1"/>
      </contour>
      <contour>
        <pt x="20" y="0" on="1"/>
        <pt x="20" y="720" on="1"/>
        <pt x="220" y="720" on="1"/>
        <pt x="220" y="420" on="1"/>
        <pt x="260" y="420" on="1"/>
        <pt x="391" y="420" on="0"/>
        <pt x="500" y="366" on="0"/>
        <pt x="500" y="300" on="1"/>
        <pt x="500" y="120" on="1"/>
        <pt x="500" y="54" on="0"/>
        <pt x="391" y="0" on="0"/>
        <pt x="260" y="0" on="1"/>
      </contour>
    </TTGlyph>
    <TTGlyph name="afii10046" xMin="20" yMin="0" xMax="500" yMax="720">
      <contour>
        <pt x="220" y="120" on="1"/>
        <pt x="260" y="120" on="1"/>
        <pt x="300" y="120" on="0"/>
        <pt x="300" y="170" on="1"/>
        <pt x="300" y="250" on="1"/>
        <pt x="300" y="300" on="0"/>
        <pt x="260" y="300" on="1"/>
        <pt x="220" y="300" on="1"/>
      </contour>
      <contour>
        <pt x="20" y="0" on="1"/>
        <pt x="20" y="720" on="1"/>
        <pt x="220" y="720" on="1"/>
        <pt x="220" y="420" on="1"/>
        <pt x="260" y="420" on="1"/>
        <pt x="391" y="420" on="0"/>
        <pt x="500" y="366" on="0"/>
        <pt x="500" y="300" on="1"/>
        <pt x="500" y="120" on="1"/>
        <pt x="500" y="54" on="0"/>
        <pt x="391" y="0" on="0"/>
        <pt x="260" y="0" on="1"/>
      </contour>
    </TTGlyph>
    <TTGlyph name="afii10047" xMin="15" yMin="-10" xMax="475" yMax="730">
      <contour>
        <pt x="15" y="480" on="1"/>
        <pt x="15" y="620" on="1"/>
        <pt x="15" y="680" on="0"/>
        <pt x="114" y="730" on="0"/>
        <pt x="235" y="730" on="1"/>
        <pt x="366" y="730" on="0"/>
        <pt x="475" y="676" on="0"/>
        <pt x="475" y="610" on="1"/>
        <pt x="475" y="110" on="1"/>
        <pt x="475" y="44" on="0"/>
        <pt x="366" y="-10" on="0"/>
        <pt x="235" y="-10" on="1"/>
        <pt x="114" y="-10" on="0"/>
        <pt x="15" y="40" on="0"/>
        <pt x="15" y="100" on="1"/>
        <pt x="15" y="240" on="1"/>
        <pt x="195" y="240" on="1"/>
        <pt x="195" y="160" on="1"/>
        <pt x="195" y="110" on="0"/>
        <pt x="275" y="110" on="0"/>
        <pt x="275" y="160" on="1"/>
        <pt x="275" y="300" on="1"/>
        <pt x="150" y="300" on="1"/>
        <pt x="150" y="420" on="1"/>
        <pt x="275" y="420" on="1"/>
        <pt x="275" y="560" on="1"/>
        <pt x="275" y="610" on="0"/>
        <pt x="195" y="610" on="0"/>
        <pt x="195" y="560" on="1"/>
        <pt x="195" y="480" on="1"/>
      </contour>
    </TTGlyph>
    <TTGlyph name="afii10048" xMin="20" yMin="-10" xMax="755" yMax="730">
      <contour>
        <pt x="555" y="610" on="0"/>
        <pt x="475" y="610" on="0"/>
        <pt x="475" y="560" on="1"/>
        <pt x="475" y="160" on="1"/>
        <pt x="475" y="110" on="0"/>
        <pt x="555" y="110" on="0"/>
        <pt x="555" y="160" on="1"/>
        <pt x="555" y="560" on="1"/>
      </contour>
      <contour>
        <pt x="20" y="720" on="1"/>
        <pt x="220" y="720" on="1"/>
        <pt x="220" y="430" on="1"/>
        <pt x="275" y="430" on="1"/>
        <pt x="275" y="610" on="1"/>
        <pt x="275" y="676" on="0"/>
        <pt x="384" y="730" on="0"/>
        <pt x="646" y="730" on="0"/>
        <pt x="755" y="676" on="0"/>
        <pt x="755" y="610" on="1"/>
        <pt x="755" y="110" on="1"/>
        <pt x="755" y="44" on="0"/>
        <pt x="646" y="-10" on="0"/>
        <pt x="384" y="-10" on="0"/>
        <pt x="275" y="44" on="0"/>
        <pt x="275" y="110" on="1"/>
        <pt x="275" y="290" on="1"/>
        <pt x="220" y="290" on="1"/>
        <pt x="220" y="0" on="1"/>
        <pt x="20" y="0" on="1"/>
      </contour>
    </TTGlyph>
</ttFont>
